<svg width="52" height="52" viewBox="0 0 52 52" fill="none" xmlns="http://www.w3.org/2000/svg">
<g filter="url(#filter0_d_706_279)">
<path d="M48 22.033C47.999 21.7175 47.9917 21.4037 47.9775 21.0914V3.28657L43.0552 8.20886C39.0266 3.27767 32.898 0.128052 26.0335 0.128052C18.8898 0.128052 12.5433 3.53789 8.53148 8.81858L16.5997 16.9717C17.3904 15.5094 18.5137 14.2534 19.868 13.3047C21.2766 12.2055 23.2724 11.3068 26.0333 11.3068C26.3668 11.3068 26.6242 11.3457 26.8134 11.4192C30.2341 11.6892 33.1991 13.577 34.945 16.317L29.2339 22.028C36.4677 21.9997 44.6397 21.983 47.9994 22.0317" fill="#1C3AA9"/>
<path d="M25.9049 0C25.5894 0.00104762 25.2756 0.00832857 24.9633 0.0224714H7.15852L12.0808 4.94476C7.14961 8.97338 4 15.102 4 21.9665C4 29.1102 7.4099 35.4567 12.6905 39.4685L20.8436 31.4003C19.3813 30.6096 18.1253 29.4863 17.1767 28.132C16.0775 26.7234 15.1787 24.7276 15.1787 21.9667C15.1787 21.6332 15.2177 21.3758 15.2911 21.1866C15.5611 17.7659 17.4489 14.8009 20.1889 13.055L25.9 18.7661C25.8716 11.5323 25.8549 3.36034 25.9037 0.000628571" fill="#4285F4"/>
<path d="M4.00105 22.0948C4.0021 22.4103 4.00938 22.7241 4.02352 23.0364V40.8412L8.94581 35.9189C12.9744 40.8501 19.103 43.9997 25.9675 43.9997C33.1112 43.9997 39.4577 40.5899 43.4696 35.3092L35.4013 27.1561C34.6106 28.6184 33.4874 29.8744 32.133 30.823C30.7244 31.9222 28.7286 32.821 25.9678 32.821C25.6343 32.821 25.3768 32.782 25.1877 32.7086C21.767 32.4386 18.8019 30.5508 17.0561 27.8108L22.7672 22.0997C15.5333 22.1281 7.36139 22.1448 4.00168 22.0961" fill="#ABABAB"/>
</g>
<defs>
<filter id="filter0_d_706_279" x="0" y="0" width="52" height="51.9998" filterUnits="userSpaceOnUse" color-interpolation-filters="sRGB">
<feFlood flood-opacity="0" result="BackgroundImageFix"/>
<feColorMatrix in="SourceAlpha" type="matrix" values="0 0 0 0 0 0 0 0 0 0 0 0 0 0 0 0 0 0 127 0" result="hardAlpha"/>
<feOffset dy="4"/>
<feGaussianBlur stdDeviation="2"/>
<feComposite in2="hardAlpha" operator="out"/>
<feColorMatrix type="matrix" values="0 0 0 0 0 0 0 0 0 0 0 0 0 0 0 0 0 0 0.25 0"/>
<feBlend mode="normal" in2="BackgroundImageFix" result="effect1_dropShadow_706_279"/>
<feBlend mode="normal" in="SourceGraphic" in2="effect1_dropShadow_706_279" result="shape"/>
</filter>
</defs>
</svg>
