<svg width="92" height="24" viewBox="0 0 92 24" fill="none" xmlns="http://www.w3.org/2000/svg">
<g clip-path="url(#clip0_706_317)">
<path d="M3.37478 8.00567C5.79854 3.5276 11.4169 1.95628 15.799 4.48628L16.694 2.93609C16.919 2.54638 17.4967 2.62585 17.6051 3.05798L18.635 6.87419C18.7082 7.1474 18.5532 7.41587 18.28 7.48907L14.4601 8.50528C14.0317 8.62741 13.679 8.15822 13.899 7.77717L14.799 6.21833C11.4215 4.26833 7.10353 5.44729 5.18683 8.86711C3.37014 12.1137 4.51579 16.3894 7.71241 18.2927C11.0736 20.291 15.4112 19.158 17.3612 15.7805C18.1662 14.3862 18.4349 12.8208 18.2195 11.3339C18.151 10.8325 18.457 10.3625 18.9488 10.2308C19.5311 10.082 20.1224 10.458 20.2078 11.05C20.4784 12.9614 20.1332 14.9792 19.0932 16.7805C16.5682 21.1539 10.9119 22.611 6.57385 19.9447C2.57719 17.4872 1.14237 12.1323 3.37478 8.00567Z" fill="#737373"/>
<path d="M45.4 2.01901C40.62 2.32901 37 6.51901 37 11.309V17.999C37 19.659 38.34 20.999 40 20.999H41C42.1 20.999 43 20.099 43 18.999V14.999C43 13.899 42.1 12.999 41 12.999H39V11.289C39 7.44901 41.96 4.10901 45.79 3.99901C49.76 3.88901 53 7.05901 53 10.999V12.999H51C49.9 12.999 49 13.899 49 14.999V18.999C49 20.099 49.9 20.999 51 20.999H52C53.66 20.999 55 19.659 55 17.999V10.999C55 5.82901 50.64 1.67901 45.4 2.01901Z" fill="#737373"/>
<path d="M79 7H81V9H79V7ZM80 17C80.55 17 81 16.55 81 16V12C81 11.45 80.55 11 80 11C79.45 11 79 11.45 79 12V16C79 16.55 79.45 17 80 17ZM80 2C74.48 2 70 6.48 70 12C70 17.52 74.48 22 80 22C85.52 22 90 17.52 90 12C90 6.48 85.52 2 80 2ZM80 20C75.59 20 72 16.41 72 12C72 7.59 75.59 4 80 4C84.41 4 88 7.59 88 12C88 16.41 84.41 20 80 20Z" fill="#737373"/>
</g>
<defs>
<clipPath id="clip0_706_317">
<rect width="92" height="24" fill="white"/>
</clipPath>
</defs>
</svg>
