<svg width="308" height="80" viewBox="0 0 308 80" fill="none" xmlns="http://www.w3.org/2000/svg">
<g filter="url(#filter0_d_706_248)">
<rect x="3" y="2" width="302" height="74" rx="2" fill="#FAFAFA"/>
<rect x="2.5" y="1.5" width="303" height="75" rx="2.5" stroke="#D6D6D6"/>
<rect x="14" y="34" width="26" height="26" rx="2" fill="white"/>
<rect x="14" y="34" width="26" height="26" rx="2" stroke="#FF0101" stroke-width="2"/>
<path d="M55.8438 42.0469V52H54.1279V42.0469H55.8438ZM59.3779 41.5V42.4639C59.3779 42.751 59.3255 43.0495 59.2207 43.3594C59.1204 43.6647 58.9792 43.9587 58.7969 44.2412C58.6146 44.5192 58.4049 44.7607 58.168 44.9658L57.3408 44.4463C57.5277 44.1637 57.6781 43.8652 57.792 43.5508C57.9105 43.2318 57.9697 42.874 57.9697 42.4775V41.5H59.3779ZM62.3447 46.1074V52H60.6973V44.6035H62.249L62.3447 46.1074ZM62.0781 48.0283L61.5176 48.0215C61.5176 47.5111 61.5814 47.0394 61.709 46.6064C61.8366 46.1735 62.0234 45.7975 62.2695 45.4785C62.5156 45.1549 62.821 44.9066 63.1855 44.7334C63.5547 44.5557 63.9808 44.4668 64.4639 44.4668C64.8011 44.4668 65.1087 44.5169 65.3867 44.6172C65.6693 44.7129 65.9131 44.8656 66.1182 45.0752C66.3278 45.2848 66.4873 45.5537 66.5967 45.8818C66.7106 46.21 66.7676 46.6064 66.7676 47.0713V52H65.1201V47.2148C65.1201 46.8548 65.0654 46.5723 64.9561 46.3672C64.8512 46.1621 64.6986 46.0163 64.498 45.9297C64.3021 45.8385 64.0674 45.793 63.7939 45.793C63.484 45.793 63.2197 45.8522 63.001 45.9707C62.7868 46.0892 62.6113 46.251 62.4746 46.4561C62.3379 46.6611 62.2376 46.8981 62.1738 47.167C62.11 47.4359 62.0781 47.723 62.0781 48.0283ZM66.665 47.5908L65.8926 47.7617C65.8926 47.3151 65.9541 46.8936 66.0771 46.4971C66.2048 46.096 66.3893 45.7451 66.6309 45.4443C66.877 45.139 67.18 44.8997 67.54 44.7266C67.9001 44.5534 68.3125 44.4668 68.7773 44.4668C69.1556 44.4668 69.4928 44.5192 69.7891 44.624C70.0898 44.7243 70.3451 44.8838 70.5547 45.1025C70.7643 45.3213 70.9238 45.6061 71.0332 45.957C71.1426 46.3034 71.1973 46.7227 71.1973 47.2148V52H69.543V47.208C69.543 46.8343 69.4883 46.5449 69.3789 46.3398C69.2741 46.1348 69.1237 45.9935 68.9277 45.916C68.7318 45.834 68.4971 45.793 68.2236 45.793C67.9684 45.793 67.7428 45.8408 67.5469 45.9365C67.3555 46.0277 67.1937 46.1576 67.0615 46.3262C66.9294 46.4902 66.8291 46.6794 66.7607 46.8936C66.6969 47.1077 66.665 47.3402 66.665 47.5908ZM78.0127 46.1826V52H76.3652V44.6035H77.917L78.0127 46.1826ZM77.7188 48.0283L77.1855 48.0215C77.1901 47.4974 77.263 47.0166 77.4043 46.5791C77.5501 46.1416 77.7507 45.7656 78.0059 45.4512C78.2656 45.1367 78.5755 44.8952 78.9355 44.7266C79.2956 44.5534 79.6966 44.4668 80.1387 44.4668C80.4941 44.4668 80.8154 44.5169 81.1025 44.6172C81.3942 44.7129 81.6426 44.8701 81.8477 45.0889C82.0573 45.3076 82.2168 45.5924 82.3262 45.9434C82.4355 46.2897 82.4902 46.7158 82.4902 47.2217V52H80.8359V47.2148C80.8359 46.8594 80.7835 46.5791 80.6787 46.374C80.5785 46.1644 80.4303 46.0163 80.2344 45.9297C80.043 45.8385 79.8037 45.793 79.5166 45.793C79.234 45.793 78.9811 45.8522 78.7578 45.9707C78.5345 46.0892 78.3454 46.251 78.1904 46.4561C78.04 46.6611 77.9238 46.8981 77.8418 47.167C77.7598 47.4359 77.7188 47.723 77.7188 48.0283ZM83.8574 48.3838V48.2266C83.8574 47.6934 83.9349 47.1989 84.0898 46.7432C84.2448 46.2829 84.4681 45.8841 84.7598 45.5469C85.056 45.2051 85.416 44.9408 85.8398 44.7539C86.2682 44.5625 86.7513 44.4668 87.2891 44.4668C87.8314 44.4668 88.3145 44.5625 88.7383 44.7539C89.1667 44.9408 89.529 45.2051 89.8252 45.5469C90.1214 45.8841 90.347 46.2829 90.502 46.7432C90.6569 47.1989 90.7344 47.6934 90.7344 48.2266V48.3838C90.7344 48.917 90.6569 49.4115 90.502 49.8672C90.347 50.3229 90.1214 50.7217 89.8252 51.0635C89.529 51.4007 89.1689 51.665 88.7451 51.8564C88.3213 52.0433 87.8405 52.1367 87.3027 52.1367C86.7604 52.1367 86.2751 52.0433 85.8467 51.8564C85.4229 51.665 85.0628 51.4007 84.7666 51.0635C84.4704 50.7217 84.2448 50.3229 84.0898 49.8672C83.9349 49.4115 83.8574 48.917 83.8574 48.3838ZM85.5049 48.2266V48.3838C85.5049 48.7165 85.5391 49.0309 85.6074 49.3271C85.6758 49.6234 85.7829 49.8831 85.9287 50.1064C86.0745 50.3298 86.2614 50.5052 86.4893 50.6328C86.7171 50.7604 86.9883 50.8242 87.3027 50.8242C87.6081 50.8242 87.8724 50.7604 88.0957 50.6328C88.3236 50.5052 88.5104 50.3298 88.6562 50.1064C88.8021 49.8831 88.9092 49.6234 88.9775 49.3271C89.0505 49.0309 89.0869 48.7165 89.0869 48.3838V48.2266C89.0869 47.8984 89.0505 47.5885 88.9775 47.2969C88.9092 47.0007 88.7998 46.7386 88.6494 46.5107C88.5036 46.2829 88.3167 46.1051 88.0889 45.9775C87.8656 45.8454 87.599 45.7793 87.2891 45.7793C86.9792 45.7793 86.7103 45.8454 86.4824 45.9775C86.2591 46.1051 86.0745 46.2829 85.9287 46.5107C85.7829 46.7386 85.6758 47.0007 85.6074 47.2969C85.5391 47.5885 85.5049 47.8984 85.5049 48.2266ZM95.5059 44.6035V45.8066H91.3359V44.6035H95.5059ZM92.5391 42.792H94.1865V49.9561C94.1865 50.1839 94.2184 50.3594 94.2822 50.4824C94.3506 50.6009 94.444 50.6807 94.5625 50.7217C94.681 50.7627 94.82 50.7832 94.9795 50.7832C95.0934 50.7832 95.2028 50.7764 95.3076 50.7627C95.4124 50.749 95.4967 50.7354 95.5605 50.7217L95.5674 51.9795C95.4307 52.0205 95.2712 52.057 95.0889 52.0889C94.9111 52.1208 94.7061 52.1367 94.4736 52.1367C94.0954 52.1367 93.7604 52.0706 93.4688 51.9385C93.1771 51.8018 92.9492 51.5807 92.7852 51.2754C92.6211 50.9701 92.5391 50.5645 92.5391 50.0586V42.792ZM104.434 50.5166V46.9893C104.434 46.7249 104.386 46.4971 104.29 46.3057C104.194 46.1143 104.049 45.9661 103.853 45.8613C103.661 45.7565 103.42 45.7041 103.128 45.7041C102.859 45.7041 102.627 45.7497 102.431 45.8408C102.235 45.932 102.082 46.055 101.973 46.21C101.863 46.3649 101.809 46.5404 101.809 46.7363H100.168C100.168 46.4447 100.239 46.1621 100.38 45.8887C100.521 45.6152 100.726 45.3714 100.995 45.1572C101.264 44.943 101.585 44.7744 101.959 44.6514C102.333 44.5283 102.752 44.4668 103.217 44.4668C103.773 44.4668 104.265 44.5602 104.693 44.7471C105.126 44.9339 105.466 45.2165 105.712 45.5947C105.963 45.9684 106.088 46.4378 106.088 47.0029V50.291C106.088 50.6283 106.111 50.9313 106.156 51.2002C106.206 51.4645 106.277 51.6947 106.368 51.8906V52H104.68C104.602 51.8223 104.541 51.5967 104.495 51.3232C104.454 51.0452 104.434 50.7764 104.434 50.5166ZM104.673 47.502L104.687 48.5205H103.504C103.199 48.5205 102.93 48.5501 102.697 48.6094C102.465 48.6641 102.271 48.7461 102.116 48.8555C101.961 48.9648 101.845 49.097 101.768 49.252C101.69 49.4069 101.651 49.5824 101.651 49.7783C101.651 49.9743 101.697 50.1543 101.788 50.3184C101.879 50.4779 102.011 50.6032 102.185 50.6943C102.362 50.7855 102.576 50.8311 102.827 50.8311C103.164 50.8311 103.458 50.7627 103.709 50.626C103.964 50.4847 104.165 50.3138 104.311 50.1133C104.456 49.9082 104.534 49.7145 104.543 49.5322L105.076 50.2637C105.021 50.4505 104.928 50.651 104.796 50.8652C104.664 51.0794 104.491 51.2845 104.276 51.4805C104.067 51.6719 103.814 51.8291 103.518 51.9521C103.226 52.0752 102.889 52.1367 102.506 52.1367C102.023 52.1367 101.592 52.041 101.214 51.8496C100.836 51.6536 100.539 51.3916 100.325 51.0635C100.111 50.7308 100.004 50.3548 100.004 49.9355C100.004 49.5436 100.077 49.1973 100.223 48.8965C100.373 48.5911 100.592 48.3359 100.879 48.1309C101.171 47.9258 101.526 47.7708 101.945 47.666C102.365 47.5566 102.843 47.502 103.381 47.502H104.673ZM112.951 46.0117V52H111.304V44.6035H112.876L112.951 46.0117ZM115.214 44.5557L115.2 46.0869C115.1 46.0687 114.991 46.055 114.872 46.0459C114.758 46.0368 114.644 46.0322 114.53 46.0322C114.248 46.0322 113.999 46.0732 113.785 46.1553C113.571 46.2327 113.391 46.3467 113.245 46.4971C113.104 46.6429 112.994 46.8206 112.917 47.0303C112.84 47.2399 112.794 47.4746 112.78 47.7344L112.404 47.7617C112.404 47.2969 112.45 46.8662 112.541 46.4697C112.632 46.0732 112.769 45.7246 112.951 45.4238C113.138 45.123 113.37 44.8883 113.648 44.7197C113.931 44.5511 114.257 44.4668 114.626 44.4668C114.726 44.4668 114.833 44.4759 114.947 44.4941C115.066 44.5124 115.155 44.5329 115.214 44.5557ZM115.754 48.3838V48.2266C115.754 47.6934 115.831 47.1989 115.986 46.7432C116.141 46.2829 116.365 45.8841 116.656 45.5469C116.952 45.2051 117.312 44.9408 117.736 44.7539C118.165 44.5625 118.648 44.4668 119.186 44.4668C119.728 44.4668 120.211 44.5625 120.635 44.7539C121.063 44.9408 121.425 45.2051 121.722 45.5469C122.018 45.8841 122.243 46.2829 122.398 46.7432C122.553 47.1989 122.631 47.6934 122.631 48.2266V48.3838C122.631 48.917 122.553 49.4115 122.398 49.8672C122.243 50.3229 122.018 50.7217 121.722 51.0635C121.425 51.4007 121.065 51.665 120.642 51.8564C120.218 52.0433 119.737 52.1367 119.199 52.1367C118.657 52.1367 118.172 52.0433 117.743 51.8564C117.319 51.665 116.959 51.4007 116.663 51.0635C116.367 50.7217 116.141 50.3229 115.986 49.8672C115.831 49.4115 115.754 48.917 115.754 48.3838ZM117.401 48.2266V48.3838C117.401 48.7165 117.436 49.0309 117.504 49.3271C117.572 49.6234 117.679 49.8831 117.825 50.1064C117.971 50.3298 118.158 50.5052 118.386 50.6328C118.614 50.7604 118.885 50.8242 119.199 50.8242C119.505 50.8242 119.769 50.7604 119.992 50.6328C120.22 50.5052 120.407 50.3298 120.553 50.1064C120.699 49.8831 120.806 49.6234 120.874 49.3271C120.947 49.0309 120.983 48.7165 120.983 48.3838V48.2266C120.983 47.8984 120.947 47.5885 120.874 47.2969C120.806 47.0007 120.696 46.7386 120.546 46.5107C120.4 46.2829 120.213 46.1051 119.985 45.9775C119.762 45.8454 119.495 45.7793 119.186 45.7793C118.876 45.7793 118.607 45.8454 118.379 45.9775C118.156 46.1051 117.971 46.2829 117.825 46.5107C117.679 46.7386 117.572 47.0007 117.504 47.2969C117.436 47.5885 117.401 47.8984 117.401 48.2266ZM124.019 41.5H125.666V50.4209L125.509 52H124.019V41.5ZM130.492 48.2334V48.377C130.492 48.9238 130.431 49.4274 130.308 49.8877C130.189 50.3434 130.007 50.7399 129.761 51.0771C129.519 51.4144 129.218 51.6764 128.858 51.8633C128.503 52.0456 128.09 52.1367 127.621 52.1367C127.161 52.1367 126.76 52.0501 126.418 51.877C126.076 51.7038 125.789 51.4577 125.557 51.1387C125.329 50.8197 125.144 50.4391 125.003 49.9971C124.862 49.555 124.761 49.0674 124.702 48.5342V48.0762C124.761 47.5384 124.862 47.0508 125.003 46.6133C125.144 46.1712 125.329 45.7907 125.557 45.4717C125.789 45.1481 126.074 44.8997 126.411 44.7266C126.753 44.5534 127.152 44.4668 127.607 44.4668C128.081 44.4668 128.498 44.5579 128.858 44.7402C129.223 44.9225 129.526 45.1823 129.768 45.5195C130.009 45.8522 130.189 46.2487 130.308 46.709C130.431 47.1693 130.492 47.6774 130.492 48.2334ZM128.845 48.377V48.2334C128.845 47.9007 128.817 47.5885 128.763 47.2969C128.708 47.0007 128.617 46.7409 128.489 46.5176C128.366 46.2943 128.198 46.1188 127.983 45.9912C127.774 45.859 127.512 45.793 127.197 45.793C126.906 45.793 126.655 45.8431 126.445 45.9434C126.236 46.0436 126.06 46.1803 125.919 46.3535C125.778 46.5267 125.666 46.7272 125.584 46.9551C125.507 47.1829 125.454 47.429 125.427 47.6934V48.9307C125.468 49.2725 125.554 49.5869 125.687 49.874C125.823 50.1566 126.015 50.3844 126.261 50.5576C126.507 50.7262 126.824 50.8105 127.211 50.8105C127.516 50.8105 127.774 50.749 127.983 50.626C128.193 50.5029 128.359 50.332 128.482 50.1133C128.61 49.89 128.701 49.6302 128.756 49.334C128.815 49.0378 128.845 48.7188 128.845 48.377ZM131.572 48.3838V48.2266C131.572 47.6934 131.65 47.1989 131.805 46.7432C131.96 46.2829 132.183 45.8841 132.475 45.5469C132.771 45.2051 133.131 44.9408 133.555 44.7539C133.983 44.5625 134.466 44.4668 135.004 44.4668C135.546 44.4668 136.029 44.5625 136.453 44.7539C136.882 44.9408 137.244 45.2051 137.54 45.5469C137.836 45.8841 138.062 46.2829 138.217 46.7432C138.372 47.1989 138.449 47.6934 138.449 48.2266V48.3838C138.449 48.917 138.372 49.4115 138.217 49.8672C138.062 50.3229 137.836 50.7217 137.54 51.0635C137.244 51.4007 136.884 51.665 136.46 51.8564C136.036 52.0433 135.555 52.1367 135.018 52.1367C134.475 52.1367 133.99 52.0433 133.562 51.8564C133.138 51.665 132.778 51.4007 132.481 51.0635C132.185 50.7217 131.96 50.3229 131.805 49.8672C131.65 49.4115 131.572 48.917 131.572 48.3838ZM133.22 48.2266V48.3838C133.22 48.7165 133.254 49.0309 133.322 49.3271C133.391 49.6234 133.498 49.8831 133.644 50.1064C133.789 50.3298 133.976 50.5052 134.204 50.6328C134.432 50.7604 134.703 50.8242 135.018 50.8242C135.323 50.8242 135.587 50.7604 135.811 50.6328C136.038 50.5052 136.225 50.3298 136.371 50.1064C136.517 49.8831 136.624 49.6234 136.692 49.3271C136.765 49.0309 136.802 48.7165 136.802 48.3838V48.2266C136.802 47.8984 136.765 47.5885 136.692 47.2969C136.624 47.0007 136.515 46.7386 136.364 46.5107C136.218 46.2829 136.032 46.1051 135.804 45.9775C135.58 45.8454 135.314 45.7793 135.004 45.7793C134.694 45.7793 134.425 45.8454 134.197 45.9775C133.974 46.1051 133.789 46.2829 133.644 46.5107C133.498 46.7386 133.391 47.0007 133.322 47.2969C133.254 47.5885 133.22 47.8984 133.22 48.2266ZM143.221 44.6035V45.8066H139.051V44.6035H143.221ZM140.254 42.792H141.901V49.9561C141.901 50.1839 141.933 50.3594 141.997 50.4824C142.065 50.6009 142.159 50.6807 142.277 50.7217C142.396 50.7627 142.535 50.7832 142.694 50.7832C142.808 50.7832 142.918 50.7764 143.022 50.7627C143.127 50.749 143.212 50.7354 143.275 50.7217L143.282 51.9795C143.146 52.0205 142.986 52.057 142.804 52.0889C142.626 52.1208 142.421 52.1367 142.188 52.1367C141.81 52.1367 141.475 52.0706 141.184 51.9385C140.892 51.8018 140.664 51.5807 140.5 51.2754C140.336 50.9701 140.254 50.5645 140.254 50.0586V42.792Z" fill="black"/>
<g clip-path="url(#clip0_706_248)">
<path d="M282.306 26.2122C282.305 25.9874 282.3 25.7637 282.29 25.5411V12.8512L278.782 16.3594C275.911 12.8448 271.543 10.6 266.65 10.6C261.558 10.6 257.035 13.0303 254.176 16.794L259.926 22.6049C260.49 21.5627 261.29 20.6675 262.256 19.9914C263.26 19.208 264.682 18.5674 266.65 18.5674C266.888 18.5674 267.071 18.5952 267.206 18.6475C269.644 18.8399 271.757 20.1854 273.001 22.1383L268.931 26.2087C274.087 26.1885 279.911 26.1766 282.306 26.2113" fill="#1C3AA9"/>
<path d="M266.559 10.6006C266.334 10.6013 266.11 10.6065 265.887 10.6166H253.197L256.706 14.1248C253.191 16.9961 250.946 21.3641 250.946 26.2567C250.946 31.3482 253.377 35.8715 257.14 38.7308L262.951 32.9804C261.909 32.4168 261.014 31.6163 260.338 30.651C259.554 29.6471 258.914 28.2246 258.914 26.2568C258.914 26.0191 258.941 25.8357 258.994 25.7008C259.186 23.2628 260.532 21.1495 262.485 19.9052L266.555 23.9757C266.535 18.8199 266.523 12.9956 266.558 10.601" fill="#4285F4"/>
<path d="M250.947 26.2563C250.948 26.4812 250.953 26.7048 250.963 26.9274V39.6174L254.471 36.1091C257.342 39.6237 261.71 41.8685 266.603 41.8685C271.694 41.8685 276.218 39.4382 279.077 35.6746L273.327 29.8636C272.763 30.9059 271.963 31.801 270.997 32.4771C269.993 33.2606 268.571 33.9011 266.603 33.9011C266.365 33.9011 266.182 33.8734 266.047 33.821C263.609 33.6286 261.496 32.2831 260.252 30.3303L264.322 26.2598C259.166 26.28 253.342 26.2919 250.947 26.2572" fill="#ABABAB"/>
<path d="M253.589 47.9317C253.207 47.9317 252.865 48.004 252.563 48.1486C252.26 48.29 252.004 48.4922 251.794 48.7552C251.586 49.0182 251.427 49.3371 251.315 49.7119C251.207 50.0833 251.152 50.4992 251.152 50.9595V52.286C251.152 52.7495 251.207 53.1671 251.315 53.5386C251.427 53.9101 251.585 54.2273 251.789 54.4903C251.992 54.7533 252.239 54.9555 252.528 55.0969C252.818 55.2382 253.143 55.3089 253.505 55.3089C253.876 55.3089 254.202 55.2547 254.481 55.1462C254.764 55.0377 255.001 54.8815 255.191 54.6777C255.382 54.4706 255.528 54.2208 255.63 53.9281C255.735 53.6355 255.798 53.3035 255.818 52.932H254.905C254.882 53.218 254.843 53.463 254.787 53.6668C254.731 53.8673 254.649 54.0333 254.54 54.1648C254.435 54.2931 254.297 54.3884 254.126 54.4509C253.958 54.51 253.751 54.5396 253.505 54.5396C253.242 54.5396 253.018 54.4821 252.834 54.367C252.65 54.2487 252.5 54.0876 252.385 53.8837C252.274 53.6799 252.191 53.4416 252.139 53.1687C252.089 52.8958 252.065 52.6016 252.065 52.286V50.9496C252.065 50.611 252.094 50.3036 252.154 50.0274C252.216 49.7513 252.31 49.5162 252.435 49.3222C252.56 49.1283 252.717 48.9787 252.908 48.8735C253.099 48.765 253.326 48.7108 253.589 48.7108C253.809 48.7108 253.998 48.7436 254.156 48.8094C254.313 48.8719 254.445 48.9705 254.55 49.1053C254.655 49.2368 254.736 49.4044 254.792 49.6083C254.848 49.8121 254.885 50.0554 254.905 50.3381H255.818C255.801 49.9502 255.74 49.6066 255.635 49.3074C255.53 49.0083 255.384 48.7568 255.196 48.5529C255.009 48.3491 254.78 48.1946 254.511 48.0894C254.244 47.9842 253.937 47.9316 253.589 47.9316L253.589 47.9317ZM275.859 47.9317C275.477 47.9317 275.135 48.004 274.833 48.1486C274.53 48.29 274.274 48.4922 274.064 48.7552C273.857 49.0182 273.697 49.3371 273.585 49.7119C273.477 50.0833 273.423 50.4992 273.423 50.9595V52.286C273.423 52.7495 273.477 53.1671 273.585 53.5386C273.697 53.9101 273.855 54.2273 274.059 54.4903C274.263 54.7533 274.509 54.9555 274.798 55.0969C275.088 55.2382 275.413 55.3089 275.775 55.3089C276.146 55.3089 276.472 55.2547 276.751 55.1462C277.034 55.0377 277.271 54.8815 277.461 54.6777C277.652 54.4706 277.798 54.2208 277.9 53.9281C278.005 53.6355 278.068 53.3035 278.088 52.932H277.175C277.152 53.218 277.113 53.463 277.057 53.6668C277.001 53.8673 276.919 54.0333 276.81 54.1648C276.705 54.2931 276.567 54.3884 276.396 54.4509C276.229 54.51 276.021 54.5396 275.775 54.5396C275.512 54.5396 275.288 54.4821 275.104 54.367C274.92 54.2487 274.77 54.0876 274.655 53.8837C274.544 53.6799 274.461 53.4416 274.409 53.1687C274.36 52.8958 274.335 52.6016 274.335 52.286V50.9496C274.335 50.611 274.365 50.3036 274.424 50.0274C274.486 49.7513 274.58 49.5162 274.705 49.3222C274.83 49.1283 274.987 48.9787 275.178 48.8735C275.369 48.765 275.596 48.7108 275.859 48.7108C276.079 48.7108 276.268 48.7436 276.426 48.8094C276.584 48.8719 276.715 48.9705 276.82 49.1053C276.925 49.2368 277.006 49.4044 277.062 49.6083C277.118 49.8121 277.156 50.0554 277.175 50.3381H278.088C278.071 49.9502 278.01 49.6066 277.905 49.3074C277.8 49.0083 277.654 48.7568 277.466 48.5529C277.279 48.3491 277.05 48.1946 276.781 48.0894C276.515 47.9842 276.207 47.9316 275.859 47.9316L275.859 47.9317ZM258.787 48.0303L256.474 55.2102H257.401L257.958 53.3363H260.384L260.951 55.2102H261.878L259.561 48.0303H258.787ZM262.855 48.0303V55.2102H263.757V52.3994H265.143C265.488 52.3994 265.794 52.3517 266.06 52.2564C266.326 52.1577 266.55 52.0164 266.731 51.8323C266.915 51.6482 267.053 51.4213 267.145 51.1517C267.24 50.8789 267.288 50.5699 267.288 50.2247C267.288 49.9058 267.24 49.6132 267.145 49.3469C267.053 49.0773 266.916 48.8455 266.736 48.6515C266.555 48.4543 266.33 48.3014 266.06 48.1929C265.794 48.0844 265.488 48.0302 265.143 48.0302L262.855 48.0303ZM267.978 48.0303V48.8094H269.862V55.2102H270.765V48.8094H272.653V48.0303H267.978ZM279.306 48.0303V55.2102H280.208V51.8915H283.098V55.2102H284.005V48.0303H283.098V51.1173H280.208V48.0303H279.306ZM287.428 48.0303L285.115 55.2102H286.042L286.599 53.3363H289.025L289.592 55.2102H290.519L288.202 48.0303H287.428ZM263.757 48.8094H265.143C265.363 48.8094 265.55 48.8489 265.705 48.9278C265.863 49.0067 265.991 49.1119 266.09 49.2434C266.191 49.3749 266.265 49.5278 266.311 49.702C266.361 49.8729 266.385 50.0505 266.385 50.2346C266.385 50.4384 266.361 50.6258 266.311 50.7968C266.265 50.9644 266.191 51.1107 266.09 51.2356C265.991 51.3573 265.863 51.4526 265.705 51.5217C265.55 51.5907 265.363 51.6252 265.143 51.6252H263.757V48.8094ZM259.171 49.2927L260.152 52.5573H258.195L259.171 49.2927ZM287.812 49.2927L288.793 52.5573H286.836L287.812 49.2927ZM245.334 49.776C245.107 49.776 244.912 49.8335 244.747 49.9486C244.586 50.0637 244.451 50.2198 244.343 50.4171L244.328 49.8746H243.48V55.2103H244.353V51.3933C244.435 51.1665 244.552 50.9873 244.703 50.8558C244.858 50.7243 245.053 50.6585 245.29 50.6585C245.365 50.6585 245.433 50.6619 245.492 50.6684C245.551 50.6718 245.615 50.6799 245.684 50.693L245.679 49.8449C245.666 49.8383 245.645 49.8317 245.615 49.8251C245.589 49.8152 245.559 49.807 245.527 49.8005C245.494 49.7939 245.459 49.7889 245.423 49.7857C245.39 49.7791 245.361 49.7758 245.334 49.7758L245.334 49.776ZM248.268 49.776C248.015 49.776 247.77 49.8204 247.534 49.9091C247.297 49.9979 247.086 50.1442 246.902 50.348C246.722 50.5486 246.575 50.8116 246.463 51.137C246.352 51.4592 246.296 51.8554 246.296 52.3255V52.9271C246.296 53.3348 246.343 53.6882 246.439 53.9874C246.534 54.2865 246.671 54.5347 246.848 54.732C247.029 54.926 247.248 55.0706 247.504 55.166C247.76 55.2613 248.048 55.309 248.367 55.309C248.597 55.309 248.803 55.286 248.983 55.24C249.167 55.1939 249.33 55.1347 249.472 55.0624C249.613 54.9868 249.735 54.9013 249.837 54.806C249.938 54.7107 250.026 54.612 250.098 54.5101L249.644 53.9578C249.572 54.0466 249.495 54.1288 249.412 54.2044C249.33 54.2767 249.24 54.3408 249.141 54.3967C249.043 54.4493 248.934 54.4904 248.816 54.52C248.697 54.5495 248.564 54.5644 248.416 54.5644C248.012 54.5644 247.701 54.4345 247.484 54.1748C247.271 53.9151 247.164 53.4992 247.164 52.9271V52.8039H250.142V52.2959C250.142 51.8883 250.108 51.5283 250.039 51.216C249.97 50.9036 249.86 50.6406 249.708 50.427C249.557 50.2133 249.363 50.0522 249.126 49.9437C248.89 49.8319 248.604 49.776 248.268 49.776L248.268 49.776ZM248.268 50.5256C248.459 50.5256 248.617 50.5601 248.742 50.6291C248.867 50.6982 248.965 50.7952 249.038 50.9201C249.113 51.045 249.167 51.1946 249.2 51.3688C249.237 51.5398 249.26 51.7288 249.269 51.9359V52.0543H247.169C247.182 51.7551 247.218 51.5069 247.277 51.3096C247.336 51.1124 247.414 50.9562 247.509 50.8412C247.608 50.7228 247.721 50.6406 247.849 50.5946C247.977 50.5486 248.117 50.5256 248.268 50.5256L248.268 50.5256Z" fill="#A6A6A6"/>
</g>
<path d="M241.98 64.8789H240.5V64.1016H241.98C242.238 64.1016 242.447 64.0599 242.605 63.9766C242.764 63.8932 242.88 63.7786 242.953 63.6328C243.029 63.4844 243.066 63.3151 243.066 63.125C243.066 62.9453 243.029 62.7773 242.953 62.6211C242.88 62.4622 242.764 62.3346 242.605 62.2383C242.447 62.1419 242.238 62.0938 241.98 62.0938H240.801V67H239.82V61.3125H241.98C242.421 61.3125 242.794 61.3906 243.102 61.5469C243.411 61.7005 243.647 61.9141 243.809 62.1875C243.97 62.4583 244.051 62.7682 244.051 63.1172C244.051 63.4844 243.97 63.7995 243.809 64.0625C243.647 64.3255 243.411 64.5273 243.102 64.668C242.794 64.8086 242.421 64.8789 241.98 64.8789ZM245.781 63.5781V67H244.84V62.7734H245.738L245.781 63.5781ZM247.074 62.7461L247.066 63.6211C247.009 63.6107 246.947 63.6029 246.879 63.5977C246.814 63.5924 246.749 63.5898 246.684 63.5898C246.522 63.5898 246.38 63.6133 246.258 63.6602C246.135 63.7044 246.033 63.7695 245.949 63.8555C245.868 63.9388 245.806 64.0404 245.762 64.1602C245.717 64.2799 245.691 64.4141 245.684 64.5625L245.469 64.5781C245.469 64.3125 245.495 64.0664 245.547 63.8398C245.599 63.6133 245.677 63.4141 245.781 63.2422C245.888 63.0703 246.021 62.9362 246.18 62.8398C246.341 62.7435 246.527 62.6953 246.738 62.6953C246.796 62.6953 246.857 62.7005 246.922 62.7109C246.99 62.7214 247.04 62.7331 247.074 62.7461ZM248.672 62.7734V67H247.727V62.7734H248.672ZM247.664 61.6641C247.664 61.5208 247.711 61.4023 247.805 61.3086C247.901 61.2122 248.034 61.1641 248.203 61.1641C248.37 61.1641 248.501 61.2122 248.598 61.3086C248.694 61.4023 248.742 61.5208 248.742 61.6641C248.742 61.8047 248.694 61.9219 248.598 62.0156C248.501 62.1094 248.37 62.1562 248.203 62.1562C248.034 62.1562 247.901 62.1094 247.805 62.0156C247.711 61.9219 247.664 61.8047 247.664 61.6641ZM251.078 66.2539L252.113 62.7734H253.09L251.621 67H251.012L251.078 66.2539ZM250.285 62.7734L251.34 66.2695L251.391 67H250.781L249.305 62.7734H250.285ZM255.992 66.1523V64.1367C255.992 63.9857 255.965 63.8555 255.91 63.7461C255.855 63.6367 255.772 63.5521 255.66 63.4922C255.551 63.4323 255.413 63.4023 255.246 63.4023C255.092 63.4023 254.96 63.4284 254.848 63.4805C254.736 63.5326 254.648 63.6029 254.586 63.6914C254.523 63.7799 254.492 63.8802 254.492 63.9922H253.555C253.555 63.8255 253.595 63.6641 253.676 63.5078C253.757 63.3516 253.874 63.2122 254.027 63.0898C254.181 62.9674 254.365 62.8711 254.578 62.8008C254.792 62.7305 255.031 62.6953 255.297 62.6953C255.615 62.6953 255.896 62.7487 256.141 62.8555C256.388 62.9622 256.582 63.1237 256.723 63.3398C256.866 63.5534 256.938 63.8216 256.938 64.1445V66.0234C256.938 66.2161 256.951 66.3893 256.977 66.543C257.005 66.694 257.046 66.8255 257.098 66.9375V67H256.133C256.089 66.8984 256.053 66.7695 256.027 66.6133C256.004 66.4544 255.992 66.3008 255.992 66.1523ZM256.129 64.4297L256.137 65.0117H255.461C255.286 65.0117 255.133 65.0286 255 65.0625C254.867 65.0938 254.757 65.1406 254.668 65.2031C254.579 65.2656 254.513 65.3411 254.469 65.4297C254.424 65.5182 254.402 65.6185 254.402 65.7305C254.402 65.8424 254.428 65.9453 254.48 66.0391C254.533 66.1302 254.608 66.2018 254.707 66.2539C254.809 66.306 254.931 66.332 255.074 66.332C255.267 66.332 255.435 66.293 255.578 66.2148C255.724 66.1341 255.839 66.0365 255.922 65.9219C256.005 65.8047 256.049 65.694 256.055 65.5898L256.359 66.0078C256.328 66.1146 256.275 66.2292 256.199 66.3516C256.124 66.474 256.025 66.5911 255.902 66.7031C255.783 66.8125 255.638 66.9023 255.469 66.9727C255.302 67.043 255.109 67.0781 254.891 67.0781C254.615 67.0781 254.368 67.0234 254.152 66.9141C253.936 66.8021 253.767 66.6523 253.645 66.4648C253.522 66.2747 253.461 66.0599 253.461 65.8203C253.461 65.5964 253.503 65.3984 253.586 65.2266C253.672 65.0521 253.797 64.9062 253.961 64.7891C254.128 64.6719 254.331 64.5833 254.57 64.5234C254.81 64.4609 255.083 64.4297 255.391 64.4297H256.129ZM259.648 66.3281C259.802 66.3281 259.94 66.2982 260.062 66.2383C260.188 66.1758 260.288 66.0898 260.363 65.9805C260.441 65.8711 260.484 65.7448 260.492 65.6016H261.379C261.374 65.875 261.293 66.1237 261.137 66.3477C260.98 66.5716 260.773 66.75 260.516 66.8828C260.258 67.013 259.973 67.0781 259.66 67.0781C259.337 67.0781 259.056 67.0234 258.816 66.9141C258.577 66.8021 258.378 66.6484 258.219 66.4531C258.06 66.2578 257.94 66.0326 257.859 65.7773C257.781 65.5221 257.742 65.2487 257.742 64.957V64.8203C257.742 64.5286 257.781 64.2552 257.859 64C257.94 63.7422 258.06 63.5156 258.219 63.3203C258.378 63.125 258.577 62.9727 258.816 62.8633C259.056 62.7513 259.336 62.6953 259.656 62.6953C259.995 62.6953 260.292 62.763 260.547 62.8984C260.802 63.0312 261.003 63.2174 261.148 63.457C261.297 63.694 261.374 63.9701 261.379 64.2852H260.492C260.484 64.1289 260.445 63.9883 260.375 63.8633C260.307 63.7357 260.211 63.6341 260.086 63.5586C259.964 63.4831 259.816 63.4453 259.645 63.4453C259.454 63.4453 259.297 63.4844 259.172 63.5625C259.047 63.638 258.949 63.7422 258.879 63.875C258.809 64.0052 258.758 64.1523 258.727 64.3164C258.698 64.4779 258.684 64.6458 258.684 64.8203V64.957C258.684 65.1315 258.698 65.3008 258.727 65.4648C258.755 65.6289 258.805 65.776 258.875 65.9062C258.948 66.0339 259.047 66.1367 259.172 66.2148C259.297 66.2904 259.456 66.3281 259.648 66.3281ZM263.328 66.5391L264.477 62.7734H265.484L263.789 67.6445C263.75 67.7487 263.699 67.862 263.637 67.9844C263.574 68.1068 263.492 68.2227 263.391 68.332C263.292 68.444 263.168 68.5339 263.02 68.6016C262.871 68.6719 262.691 68.707 262.48 68.707C262.397 68.707 262.316 68.6992 262.238 68.6836C262.163 68.6706 262.091 68.6562 262.023 68.6406L262.02 67.9219C262.046 67.9245 262.077 67.9271 262.113 67.9297C262.152 67.9323 262.184 67.9336 262.207 67.9336C262.363 67.9336 262.493 67.9141 262.598 67.875C262.702 67.8385 262.786 67.7786 262.852 67.6953C262.919 67.612 262.977 67.5 263.023 67.3594L263.328 66.5391ZM262.68 62.7734L263.684 65.9375L263.852 66.9297L263.199 67.0977L261.664 62.7734H262.68ZM269.91 64.1953V64.9453H267.844V64.1953H269.91ZM274.973 61.3125V67H274V61.3125H274.973ZM276.758 61.3125V62.0938H272.23V61.3125H276.758ZM278.902 67.0781C278.59 67.0781 278.307 67.0273 278.055 66.9258C277.805 66.8216 277.591 66.6771 277.414 66.4922C277.24 66.3073 277.105 66.0898 277.012 65.8398C276.918 65.5898 276.871 65.3203 276.871 65.0312V64.875C276.871 64.5443 276.919 64.2448 277.016 63.9766C277.112 63.7083 277.246 63.4792 277.418 63.2891C277.59 63.0964 277.793 62.9492 278.027 62.8477C278.262 62.7461 278.516 62.6953 278.789 62.6953C279.091 62.6953 279.355 62.7461 279.582 62.8477C279.809 62.9492 279.996 63.0924 280.145 63.2773C280.296 63.4596 280.408 63.6771 280.48 63.9297C280.556 64.1823 280.594 64.4609 280.594 64.7656V65.168H277.328V64.4922H279.664V64.418C279.659 64.2487 279.625 64.0898 279.562 63.9414C279.503 63.793 279.41 63.6732 279.285 63.582C279.16 63.4909 278.993 63.4453 278.785 63.4453C278.629 63.4453 278.49 63.4792 278.367 63.5469C278.247 63.612 278.147 63.707 278.066 63.832C277.986 63.957 277.923 64.1081 277.879 64.2852C277.837 64.4596 277.816 64.6562 277.816 64.875V65.0312C277.816 65.2161 277.841 65.388 277.891 65.5469C277.943 65.7031 278.018 65.8398 278.117 65.957C278.216 66.0742 278.336 66.1667 278.477 66.2344C278.617 66.2995 278.777 66.332 278.957 66.332C279.184 66.332 279.385 66.2865 279.562 66.1953C279.74 66.1042 279.893 65.9753 280.023 65.8086L280.52 66.2891C280.428 66.4219 280.31 66.5495 280.164 66.6719C280.018 66.7917 279.84 66.8893 279.629 66.9648C279.421 67.0404 279.178 67.0781 278.902 67.0781ZM282.273 63.5781V67H281.332V62.7734H282.23L282.273 63.5781ZM283.566 62.7461L283.559 63.6211C283.501 63.6107 283.439 63.6029 283.371 63.5977C283.306 63.5924 283.241 63.5898 283.176 63.5898C283.014 63.5898 282.872 63.6133 282.75 63.6602C282.628 63.7044 282.525 63.7695 282.441 63.8555C282.361 63.9388 282.298 64.0404 282.254 64.1602C282.21 64.2799 282.184 64.4141 282.176 64.5625L281.961 64.5781C281.961 64.3125 281.987 64.0664 282.039 63.8398C282.091 63.6133 282.169 63.4141 282.273 63.2422C282.38 63.0703 282.513 62.9362 282.672 62.8398C282.833 62.7435 283.02 62.6953 283.23 62.6953C283.288 62.6953 283.349 62.7005 283.414 62.7109C283.482 62.7214 283.533 62.7331 283.566 62.7461ZM285.098 63.6328V67H284.156V62.7734H285.043L285.098 63.6328ZM284.945 64.7305L284.625 64.7266C284.625 64.4349 284.661 64.1654 284.734 63.918C284.807 63.6706 284.914 63.4557 285.055 63.2734C285.195 63.0885 285.37 62.9466 285.578 62.8477C285.789 62.7461 286.033 62.6953 286.309 62.6953C286.501 62.6953 286.677 62.724 286.836 62.7812C286.997 62.8359 287.137 62.9232 287.254 63.043C287.374 63.1628 287.465 63.3164 287.527 63.5039C287.592 63.6914 287.625 63.918 287.625 64.1836V67H286.684V64.2656C286.684 64.0599 286.652 63.8984 286.59 63.7812C286.53 63.6641 286.443 63.5807 286.328 63.5312C286.216 63.4792 286.082 63.4531 285.926 63.4531C285.749 63.4531 285.598 63.487 285.473 63.5547C285.35 63.6224 285.25 63.7148 285.172 63.832C285.094 63.9492 285.036 64.0846 285 64.2383C284.964 64.3919 284.945 64.556 284.945 64.7305ZM287.566 64.4805L287.125 64.5781C287.125 64.3229 287.16 64.082 287.23 63.8555C287.303 63.6263 287.409 63.4258 287.547 63.2539C287.688 63.0794 287.861 62.9427 288.066 62.8438C288.272 62.7448 288.508 62.6953 288.773 62.6953C288.99 62.6953 289.182 62.7253 289.352 62.7852C289.523 62.8424 289.669 62.9336 289.789 63.0586C289.909 63.1836 290 63.3464 290.062 63.5469C290.125 63.7448 290.156 63.9844 290.156 64.2656V67H289.211V64.2617C289.211 64.0482 289.18 63.8828 289.117 63.7656C289.057 63.6484 288.971 63.5677 288.859 63.5234C288.747 63.4766 288.613 63.4531 288.457 63.4531C288.311 63.4531 288.182 63.4805 288.07 63.5352C287.961 63.5872 287.868 63.6615 287.793 63.7578C287.717 63.8516 287.66 63.9596 287.621 64.082C287.585 64.2044 287.566 64.3372 287.566 64.4805ZM293.496 65.8555C293.496 65.7617 293.473 65.6771 293.426 65.6016C293.379 65.5234 293.289 65.4531 293.156 65.3906C293.026 65.3281 292.833 65.2708 292.578 65.2188C292.354 65.1693 292.148 65.1107 291.961 65.043C291.776 64.9727 291.617 64.888 291.484 64.7891C291.352 64.6901 291.249 64.5729 291.176 64.4375C291.103 64.3021 291.066 64.1458 291.066 63.9688C291.066 63.7969 291.104 63.6341 291.18 63.4805C291.255 63.3268 291.363 63.1914 291.504 63.0742C291.645 62.957 291.815 62.8646 292.016 62.7969C292.219 62.7292 292.445 62.6953 292.695 62.6953C293.049 62.6953 293.353 62.7552 293.605 62.875C293.861 62.9922 294.056 63.1523 294.191 63.3555C294.327 63.556 294.395 63.7826 294.395 64.0352H293.453C293.453 63.9232 293.424 63.819 293.367 63.7227C293.312 63.6237 293.229 63.5443 293.117 63.4844C293.005 63.4219 292.865 63.3906 292.695 63.3906C292.534 63.3906 292.4 63.4167 292.293 63.4688C292.189 63.5182 292.111 63.5833 292.059 63.6641C292.009 63.7448 291.984 63.8333 291.984 63.9297C291.984 64 291.997 64.0638 292.023 64.1211C292.052 64.1758 292.099 64.2266 292.164 64.2734C292.229 64.3177 292.318 64.3594 292.43 64.3984C292.544 64.4375 292.688 64.4753 292.859 64.5117C293.182 64.5794 293.46 64.6667 293.691 64.7734C293.926 64.8776 294.105 65.013 294.23 65.1797C294.355 65.3438 294.418 65.5521 294.418 65.8047C294.418 65.9922 294.378 66.1641 294.297 66.3203C294.219 66.474 294.104 66.6081 293.953 66.7227C293.802 66.8346 293.621 66.9219 293.41 66.9844C293.202 67.0469 292.967 67.0781 292.707 67.0781C292.324 67.0781 292 67.0104 291.734 66.875C291.469 66.737 291.267 66.5612 291.129 66.3477C290.993 66.1315 290.926 65.9076 290.926 65.6758H291.836C291.846 65.8503 291.895 65.9896 291.98 66.0938C292.069 66.1953 292.178 66.2695 292.309 66.3164C292.441 66.3607 292.578 66.3828 292.719 66.3828C292.888 66.3828 293.03 66.3607 293.145 66.3164C293.259 66.2695 293.346 66.207 293.406 66.1289C293.466 66.0482 293.496 65.957 293.496 65.8555Z" fill="#A6A6A6"/>
<path d="M16.7441 17.7051L19.2578 10.4688H20.4824L17.3242 19H16.4512L16.7441 17.7051ZM14.3945 10.4688L16.8848 17.7051L17.1953 19H16.3223L13.1699 10.4688H14.3945ZM23.3398 19.1172C22.8984 19.1172 22.498 19.043 22.1387 18.8945C21.7832 18.7422 21.4766 18.5293 21.2188 18.2559C20.9648 17.9824 20.7695 17.6582 20.6328 17.2832C20.4961 16.9082 20.4277 16.498 20.4277 16.0527V15.8066C20.4277 15.291 20.5039 14.832 20.6562 14.4297C20.8086 14.0234 21.0156 13.6797 21.2773 13.3984C21.5391 13.1172 21.8359 12.9043 22.168 12.7598C22.5 12.6152 22.8438 12.543 23.1992 12.543C23.6523 12.543 24.043 12.6211 24.3711 12.7773C24.7031 12.9336 24.9746 13.1523 25.1855 13.4336C25.3965 13.7109 25.5527 14.0391 25.6543 14.418C25.7559 14.793 25.8066 15.2031 25.8066 15.6484V16.1348H21.0723V15.25H24.7227V15.168C24.707 14.8867 24.6484 14.6133 24.5469 14.3477C24.4492 14.082 24.293 13.8633 24.0781 13.6914C23.8633 13.5195 23.5703 13.4336 23.1992 13.4336C22.9531 13.4336 22.7266 13.4863 22.5195 13.5918C22.3125 13.6934 22.1348 13.8457 21.9863 14.0488C21.8379 14.252 21.7227 14.5 21.6406 14.793C21.5586 15.0859 21.5176 15.4238 21.5176 15.8066V16.0527C21.5176 16.3535 21.5586 16.6367 21.6406 16.9023C21.7266 17.1641 21.8496 17.3945 22.0098 17.5938C22.1738 17.793 22.3711 17.9492 22.6016 18.0625C22.8359 18.1758 23.1016 18.2324 23.3984 18.2324C23.7812 18.2324 24.1055 18.1543 24.3711 17.998C24.6367 17.8418 24.8691 17.6328 25.0684 17.3711L25.7246 17.8926C25.5879 18.0996 25.4141 18.2969 25.2031 18.4844C24.9922 18.6719 24.7324 18.8242 24.4238 18.9414C24.1191 19.0586 23.7578 19.1172 23.3398 19.1172ZM27.6562 13.6562V19H26.5723V12.6602H27.627L27.6562 13.6562ZM29.6367 12.625L29.6309 13.6328C29.541 13.6133 29.4551 13.6016 29.373 13.5977C29.2949 13.5898 29.2051 13.5859 29.1035 13.5859C28.8535 13.5859 28.6328 13.625 28.4414 13.7031C28.25 13.7812 28.0879 13.8906 27.9551 14.0312C27.8223 14.1719 27.7168 14.3398 27.6387 14.5352C27.5645 14.7266 27.5156 14.9375 27.4922 15.168L27.1875 15.3438C27.1875 14.9609 27.2246 14.6016 27.2988 14.2656C27.377 13.9297 27.4961 13.6328 27.6562 13.375C27.8164 13.1133 28.0195 12.9102 28.2656 12.7656C28.5156 12.6172 28.8125 12.543 29.1562 12.543C29.2344 12.543 29.3242 12.5527 29.4258 12.5723C29.5273 12.5879 29.5977 12.6055 29.6367 12.625ZM31.3164 12.6602V19H30.2266V12.6602H31.3164ZM30.1445 10.9785C30.1445 10.8027 30.1973 10.6543 30.3027 10.5332C30.4121 10.4121 30.5723 10.3516 30.7832 10.3516C30.9902 10.3516 31.1484 10.4121 31.2578 10.5332C31.3711 10.6543 31.4277 10.8027 31.4277 10.9785C31.4277 11.1465 31.3711 11.291 31.2578 11.4121C31.1484 11.5293 30.9902 11.5879 30.7832 11.5879C30.5723 11.5879 30.4121 11.5293 30.3027 11.4121C30.1973 11.291 30.1445 11.1465 30.1445 10.9785ZM34.1738 19H33.0898V11.9922C33.0898 11.5352 33.1719 11.1504 33.3359 10.8379C33.5039 10.5215 33.7441 10.2832 34.0566 10.123C34.3691 9.95898 34.7402 9.87695 35.1699 9.87695C35.2949 9.87695 35.4199 9.88477 35.5449 9.90039C35.6738 9.91602 35.7988 9.93945 35.9199 9.9707L35.8613 10.8555C35.7793 10.8359 35.6855 10.8223 35.5801 10.8145C35.4785 10.8066 35.377 10.8027 35.2754 10.8027C35.0449 10.8027 34.8457 10.8496 34.6777 10.9434C34.5137 11.0332 34.3887 11.166 34.3027 11.3418C34.2168 11.5176 34.1738 11.7344 34.1738 11.9922V19ZM35.5215 12.6602V13.4922H32.0879V12.6602H35.5215ZM37.4062 12.6602V19H36.3164V12.6602H37.4062ZM36.2344 10.9785C36.2344 10.8027 36.2871 10.6543 36.3926 10.5332C36.502 10.4121 36.6621 10.3516 36.873 10.3516C37.0801 10.3516 37.2383 10.4121 37.3477 10.5332C37.4609 10.6543 37.5176 10.8027 37.5176 10.9785C37.5176 11.1465 37.4609 11.291 37.3477 11.4121C37.2383 11.5293 37.0801 11.5879 36.873 11.5879C36.6621 11.5879 36.502 11.5293 36.3926 11.4121C36.2871 11.291 36.2344 11.1465 36.2344 10.9785ZM41.1836 18.2266C41.4414 18.2266 41.6797 18.1738 41.8984 18.0684C42.1172 17.9629 42.2969 17.8184 42.4375 17.6348C42.5781 17.4473 42.6582 17.2344 42.6777 16.9961H43.709C43.6895 17.3711 43.5625 17.7207 43.3281 18.0449C43.0977 18.3652 42.7949 18.625 42.4199 18.8242C42.0449 19.0195 41.6328 19.1172 41.1836 19.1172C40.707 19.1172 40.291 19.0332 39.9355 18.8652C39.584 18.6973 39.291 18.4668 39.0566 18.1738C38.8262 17.8809 38.6523 17.5449 38.5352 17.166C38.4219 16.7832 38.3652 16.3789 38.3652 15.9531V15.707C38.3652 15.2812 38.4219 14.8789 38.5352 14.5C38.6523 14.1172 38.8262 13.7793 39.0566 13.4863C39.291 13.1934 39.584 12.9629 39.9355 12.7949C40.291 12.627 40.707 12.543 41.1836 12.543C41.6797 12.543 42.1133 12.6445 42.4844 12.8477C42.8555 13.0469 43.1465 13.3203 43.3574 13.668C43.5723 14.0117 43.6895 14.4023 43.709 14.8398H42.6777C42.6582 14.5781 42.584 14.3418 42.4551 14.1309C42.3301 13.9199 42.1582 13.752 41.9395 13.627C41.7246 13.498 41.4727 13.4336 41.1836 13.4336C40.8516 13.4336 40.5723 13.5 40.3457 13.6328C40.123 13.7617 39.9453 13.9375 39.8125 14.1602C39.6836 14.3789 39.5898 14.623 39.5312 14.8926C39.4766 15.1582 39.4492 15.4297 39.4492 15.707V15.9531C39.4492 16.2305 39.4766 16.5039 39.5312 16.7734C39.5859 17.043 39.6777 17.2871 39.8066 17.5059C39.9395 17.7246 40.1172 17.9004 40.3398 18.0332C40.5664 18.1621 40.8477 18.2266 41.1836 18.2266ZM48.166 17.916V14.6523C48.166 14.4023 48.1152 14.1855 48.0137 14.002C47.916 13.8145 47.7676 13.6699 47.5684 13.5684C47.3691 13.4668 47.123 13.416 46.8301 13.416C46.5566 13.416 46.3164 13.4629 46.1094 13.5566C45.9062 13.6504 45.7461 13.7734 45.6289 13.9258C45.5156 14.0781 45.459 14.2422 45.459 14.418H44.375C44.375 14.1914 44.4336 13.9668 44.5508 13.7441C44.668 13.5215 44.8359 13.3203 45.0547 13.1406C45.2773 12.957 45.543 12.8125 45.8516 12.707C46.1641 12.5977 46.5117 12.543 46.8945 12.543C47.3555 12.543 47.7617 12.6211 48.1133 12.7773C48.4688 12.9336 48.7461 13.1699 48.9453 13.4863C49.1484 13.7988 49.25 14.1914 49.25 14.6641V17.6172C49.25 17.8281 49.2676 18.0527 49.3027 18.291C49.3418 18.5293 49.3984 18.7344 49.4727 18.9062V19H48.3418C48.2871 18.875 48.2441 18.709 48.2129 18.502C48.1816 18.291 48.166 18.0957 48.166 17.916ZM48.3535 15.1562L48.3652 15.918H47.2695C46.9609 15.918 46.6855 15.9434 46.4434 15.9941C46.2012 16.041 45.998 16.1133 45.834 16.2109C45.6699 16.3086 45.5449 16.4316 45.459 16.5801C45.373 16.7246 45.3301 16.8945 45.3301 17.0898C45.3301 17.2891 45.375 17.4707 45.4648 17.6348C45.5547 17.7988 45.6895 17.9297 45.8691 18.0273C46.0527 18.1211 46.2773 18.168 46.543 18.168C46.875 18.168 47.168 18.0977 47.4219 17.957C47.6758 17.8164 47.877 17.6445 48.0254 17.4414C48.1777 17.2383 48.2598 17.041 48.2715 16.8496L48.7344 17.3711C48.707 17.5352 48.6328 17.7168 48.5117 17.916C48.3906 18.1152 48.2285 18.3066 48.0254 18.4902C47.8262 18.6699 47.5879 18.8203 47.3105 18.9414C47.0371 19.0586 46.7285 19.1172 46.3848 19.1172C45.9551 19.1172 45.5781 19.0332 45.2539 18.8652C44.9336 18.6973 44.6836 18.4727 44.5039 18.1914C44.3281 17.9062 44.2402 17.5879 44.2402 17.2363C44.2402 16.8965 44.3066 16.5977 44.4395 16.3398C44.5723 16.0781 44.7637 15.8613 45.0137 15.6895C45.2637 15.5137 45.5645 15.3809 45.916 15.291C46.2676 15.2012 46.6602 15.1562 47.0938 15.1562H48.3535ZM53.1094 12.6602V13.4922H49.6816V12.6602H53.1094ZM50.8418 11.1191H51.9258V17.4297C51.9258 17.6445 51.959 17.8066 52.0254 17.916C52.0918 18.0254 52.1777 18.0977 52.2832 18.1328C52.3887 18.168 52.502 18.1855 52.623 18.1855C52.7129 18.1855 52.8066 18.1777 52.9043 18.1621C53.0059 18.1426 53.082 18.127 53.1328 18.1152L53.1387 19C53.0527 19.0273 52.9395 19.0527 52.7988 19.0762C52.6621 19.1035 52.4961 19.1172 52.3008 19.1172C52.0352 19.1172 51.791 19.0645 51.5684 18.959C51.3457 18.8535 51.168 18.6777 51.0352 18.4316C50.9062 18.1816 50.8418 17.8457 50.8418 17.4238V11.1191ZM55.0586 12.6602V19H53.9688V12.6602H55.0586ZM53.8867 10.9785C53.8867 10.8027 53.9395 10.6543 54.0449 10.5332C54.1543 10.4121 54.3145 10.3516 54.5254 10.3516C54.7324 10.3516 54.8906 10.4121 55 10.5332C55.1133 10.6543 55.1699 10.8027 55.1699 10.9785C55.1699 11.1465 55.1133 11.291 55 11.4121C54.8906 11.5293 54.7324 11.5879 54.5254 11.5879C54.3145 11.5879 54.1543 11.5293 54.0449 11.4121C53.9395 11.291 53.8867 11.1465 53.8867 10.9785ZM56.0117 15.9004V15.7656C56.0117 15.3086 56.0781 14.8848 56.2109 14.4941C56.3438 14.0996 56.5352 13.7578 56.7852 13.4688C57.0352 13.1758 57.3379 12.9492 57.6934 12.7891C58.0488 12.625 58.4473 12.543 58.8887 12.543C59.334 12.543 59.7344 12.625 60.0898 12.7891C60.4492 12.9492 60.7539 13.1758 61.0039 13.4688C61.2578 13.7578 61.4512 14.0996 61.584 14.4941C61.7168 14.8848 61.7832 15.3086 61.7832 15.7656V15.9004C61.7832 16.3574 61.7168 16.7812 61.584 17.1719C61.4512 17.5625 61.2578 17.9043 61.0039 18.1973C60.7539 18.4863 60.4512 18.7129 60.0957 18.877C59.7441 19.0371 59.3457 19.1172 58.9004 19.1172C58.4551 19.1172 58.0547 19.0371 57.6992 18.877C57.3438 18.7129 57.0391 18.4863 56.7852 18.1973C56.5352 17.9043 56.3438 17.5625 56.2109 17.1719C56.0781 16.7812 56.0117 16.3574 56.0117 15.9004ZM57.0957 15.7656V15.9004C57.0957 16.2168 57.1328 16.5156 57.207 16.7969C57.2812 17.0742 57.3926 17.3203 57.541 17.5352C57.6934 17.75 57.8828 17.9199 58.1094 18.0449C58.3359 18.166 58.5996 18.2266 58.9004 18.2266C59.1973 18.2266 59.457 18.166 59.6797 18.0449C59.9062 17.9199 60.0938 17.75 60.2422 17.5352C60.3906 17.3203 60.502 17.0742 60.5762 16.7969C60.6543 16.5156 60.6934 16.2168 60.6934 15.9004V15.7656C60.6934 15.4531 60.6543 15.1582 60.5762 14.8809C60.502 14.5996 60.3887 14.3516 60.2363 14.1367C60.0879 13.918 59.9004 13.7461 59.6738 13.6211C59.4512 13.4961 59.1895 13.4336 58.8887 13.4336C58.5918 13.4336 58.3301 13.4961 58.1035 13.6211C57.8809 13.7461 57.6934 13.918 57.541 14.1367C57.3926 14.3516 57.2812 14.5996 57.207 14.8809C57.1328 15.1582 57.0957 15.4531 57.0957 15.7656ZM63.7266 14.0137V19H62.6426V12.6602H63.668L63.7266 14.0137ZM63.4688 15.5898L63.0176 15.5723C63.0215 15.1387 63.0859 14.7383 63.2109 14.3711C63.3359 14 63.5117 13.6777 63.7383 13.4043C63.9648 13.1309 64.2344 12.9199 64.5469 12.7715C64.8633 12.6191 65.2129 12.543 65.5957 12.543C65.9082 12.543 66.1895 12.5859 66.4395 12.6719C66.6895 12.7539 66.9023 12.8867 67.0781 13.0703C67.2578 13.2539 67.3945 13.4922 67.4883 13.7852C67.582 14.0742 67.6289 14.4277 67.6289 14.8457V19H66.5391V14.834C66.5391 14.502 66.4902 14.2363 66.3926 14.0371C66.2949 13.834 66.1523 13.6875 65.9648 13.5977C65.7773 13.5039 65.5469 13.457 65.2734 13.457C65.0039 13.457 64.7578 13.5137 64.5352 13.627C64.3164 13.7402 64.127 13.8965 63.9668 14.0957C63.8105 14.2949 63.6875 14.5234 63.5977 14.7812C63.5117 15.0352 63.4688 15.3047 63.4688 15.5898ZM73.8828 19.1172C73.4414 19.1172 73.041 19.043 72.6816 18.8945C72.3262 18.7422 72.0195 18.5293 71.7617 18.2559C71.5078 17.9824 71.3125 17.6582 71.1758 17.2832C71.0391 16.9082 70.9707 16.498 70.9707 16.0527V15.8066C70.9707 15.291 71.0469 14.832 71.1992 14.4297C71.3516 14.0234 71.5586 13.6797 71.8203 13.3984C72.082 13.1172 72.3789 12.9043 72.7109 12.7598C73.043 12.6152 73.3867 12.543 73.7422 12.543C74.1953 12.543 74.5859 12.6211 74.9141 12.7773C75.2461 12.9336 75.5176 13.1523 75.7285 13.4336C75.9395 13.7109 76.0957 14.0391 76.1973 14.418C76.2988 14.793 76.3496 15.2031 76.3496 15.6484V16.1348H71.6152V15.25H75.2656V15.168C75.25 14.8867 75.1914 14.6133 75.0898 14.3477C74.9922 14.082 74.8359 13.8633 74.6211 13.6914C74.4062 13.5195 74.1133 13.4336 73.7422 13.4336C73.4961 13.4336 73.2695 13.4863 73.0625 13.5918C72.8555 13.6934 72.6777 13.8457 72.5293 14.0488C72.3809 14.252 72.2656 14.5 72.1836 14.793C72.1016 15.0859 72.0605 15.4238 72.0605 15.8066V16.0527C72.0605 16.3535 72.1016 16.6367 72.1836 16.9023C72.2695 17.1641 72.3926 17.3945 72.5527 17.5938C72.7168 17.793 72.9141 17.9492 73.1445 18.0625C73.3789 18.1758 73.6445 18.2324 73.9414 18.2324C74.3242 18.2324 74.6484 18.1543 74.9141 17.998C75.1797 17.8418 75.4121 17.6328 75.6113 17.3711L76.2676 17.8926C76.1309 18.0996 75.957 18.2969 75.7461 18.4844C75.5352 18.6719 75.2754 18.8242 74.9668 18.9414C74.6621 19.0586 74.3008 19.1172 73.8828 19.1172ZM77.8477 12.6602L79.2363 14.9688L80.6426 12.6602H81.9141L79.8398 15.7891L81.9785 19H80.7246L79.2598 16.6211L77.7949 19H76.5352L78.668 15.7891L76.5996 12.6602H77.8477ZM83.6523 13.8789V21.4375H82.5625V12.6602H83.5586L83.6523 13.8789ZM87.9238 15.7773V15.9004C87.9238 16.3613 87.8691 16.7891 87.7598 17.1836C87.6504 17.5742 87.4902 17.9141 87.2793 18.2031C87.0723 18.4922 86.8164 18.7168 86.5117 18.877C86.207 19.0371 85.8574 19.1172 85.4629 19.1172C85.0605 19.1172 84.7051 19.0508 84.3965 18.918C84.0879 18.7852 83.8262 18.5918 83.6113 18.3379C83.3965 18.084 83.2246 17.7793 83.0957 17.4238C82.9707 17.0684 82.8848 16.668 82.8379 16.2227V15.5664C82.8848 15.0977 82.9727 14.6777 83.1016 14.3066C83.2305 13.9355 83.4004 13.6191 83.6113 13.3574C83.8262 13.0918 84.0859 12.8906 84.3906 12.7539C84.6953 12.6133 85.0469 12.543 85.4453 12.543C85.8438 12.543 86.1973 12.6211 86.5059 12.7773C86.8145 12.9297 87.0742 13.1484 87.2852 13.4336C87.4961 13.7188 87.6543 14.0605 87.7598 14.459C87.8691 14.8535 87.9238 15.293 87.9238 15.7773ZM86.834 15.9004V15.7773C86.834 15.4609 86.8008 15.1641 86.7344 14.8867C86.668 14.6055 86.5645 14.3594 86.4238 14.1484C86.2871 13.9336 86.1113 13.7656 85.8965 13.6445C85.6816 13.5195 85.4258 13.457 85.1289 13.457C84.8555 13.457 84.6172 13.5039 84.4141 13.5977C84.2148 13.6914 84.0449 13.8184 83.9043 13.9785C83.7637 14.1348 83.6484 14.3145 83.5586 14.5176C83.4727 14.7168 83.4082 14.9238 83.3652 15.1387V16.6562C83.4434 16.9297 83.5527 17.1875 83.6934 17.4297C83.834 17.668 84.0215 17.8613 84.2559 18.0098C84.4902 18.1543 84.7852 18.2266 85.1406 18.2266C85.4336 18.2266 85.6855 18.166 85.8965 18.0449C86.1113 17.9199 86.2871 17.75 86.4238 17.5352C86.5645 17.3203 86.668 17.0742 86.7344 16.7969C86.8008 16.5156 86.834 16.2168 86.834 15.9004ZM89.9844 12.6602V19H88.8945V12.6602H89.9844ZM88.8125 10.9785C88.8125 10.8027 88.8652 10.6543 88.9707 10.5332C89.0801 10.4121 89.2402 10.3516 89.4512 10.3516C89.6582 10.3516 89.8164 10.4121 89.9258 10.5332C90.0391 10.6543 90.0957 10.8027 90.0957 10.9785C90.0957 11.1465 90.0391 11.291 89.9258 11.4121C89.8164 11.5293 89.6582 11.5879 89.4512 11.5879C89.2402 11.5879 89.0801 11.5293 88.9707 11.4121C88.8652 11.291 88.8125 11.1465 88.8125 10.9785ZM92.3086 13.6562V19H91.2246V12.6602H92.2793L92.3086 13.6562ZM94.2891 12.625L94.2832 13.6328C94.1934 13.6133 94.1074 13.6016 94.0254 13.5977C93.9473 13.5898 93.8574 13.5859 93.7559 13.5859C93.5059 13.5859 93.2852 13.625 93.0938 13.7031C92.9023 13.7812 92.7402 13.8906 92.6074 14.0312C92.4746 14.1719 92.3691 14.3398 92.291 14.5352C92.2168 14.7266 92.168 14.9375 92.1445 15.168L91.8398 15.3438C91.8398 14.9609 91.877 14.6016 91.9512 14.2656C92.0293 13.9297 92.1484 13.6328 92.3086 13.375C92.4688 13.1133 92.6719 12.9102 92.918 12.7656C93.168 12.6172 93.4648 12.543 93.8086 12.543C93.8867 12.543 93.9766 12.5527 94.0781 12.5723C94.1797 12.5879 94.25 12.6055 94.2891 12.625ZM97.3047 19.1172C96.8633 19.1172 96.4629 19.043 96.1035 18.8945C95.748 18.7422 95.4414 18.5293 95.1836 18.2559C94.9297 17.9824 94.7344 17.6582 94.5977 17.2832C94.4609 16.9082 94.3926 16.498 94.3926 16.0527V15.8066C94.3926 15.291 94.4688 14.832 94.6211 14.4297C94.7734 14.0234 94.9805 13.6797 95.2422 13.3984C95.5039 13.1172 95.8008 12.9043 96.1328 12.7598C96.4648 12.6152 96.8086 12.543 97.1641 12.543C97.6172 12.543 98.0078 12.6211 98.3359 12.7773C98.668 12.9336 98.9395 13.1523 99.1504 13.4336C99.3613 13.7109 99.5176 14.0391 99.6191 14.418C99.7207 14.793 99.7715 15.2031 99.7715 15.6484V16.1348H95.0371V15.25H98.6875V15.168C98.6719 14.8867 98.6133 14.6133 98.5117 14.3477C98.4141 14.082 98.2578 13.8633 98.043 13.6914C97.8281 13.5195 97.5352 13.4336 97.1641 13.4336C96.918 13.4336 96.6914 13.4863 96.4844 13.5918C96.2773 13.6934 96.0996 13.8457 95.9512 14.0488C95.8027 14.252 95.6875 14.5 95.6055 14.793C95.5234 15.0859 95.4824 15.4238 95.4824 15.8066V16.0527C95.4824 16.3535 95.5234 16.6367 95.6055 16.9023C95.6914 17.1641 95.8145 17.3945 95.9746 17.5938C96.1387 17.793 96.3359 17.9492 96.5664 18.0625C96.8008 18.1758 97.0664 18.2324 97.3633 18.2324C97.7461 18.2324 98.0703 18.1543 98.3359 17.998C98.6016 17.8418 98.834 17.6328 99.0332 17.3711L99.6895 17.8926C99.5527 18.0996 99.3789 18.2969 99.168 18.4844C98.957 18.6719 98.6973 18.8242 98.3887 18.9414C98.084 19.0586 97.7227 19.1172 97.3047 19.1172ZM104.533 17.7695V10H105.623V19H104.627L104.533 17.7695ZM100.268 15.9004V15.7773C100.268 15.293 100.326 14.8535 100.443 14.459C100.564 14.0605 100.734 13.7188 100.953 13.4336C101.176 13.1484 101.439 12.9297 101.744 12.7773C102.053 12.6211 102.396 12.543 102.775 12.543C103.174 12.543 103.521 12.6133 103.818 12.7539C104.119 12.8906 104.373 13.0918 104.58 13.3574C104.791 13.6191 104.957 13.9355 105.078 14.3066C105.199 14.6777 105.283 15.0977 105.33 15.5664V16.1055C105.287 16.5703 105.203 16.9883 105.078 17.3594C104.957 17.7305 104.791 18.0469 104.58 18.3086C104.373 18.5703 104.119 18.7715 103.818 18.9121C103.518 19.0488 103.166 19.1172 102.764 19.1172C102.393 19.1172 102.053 19.0371 101.744 18.877C101.439 18.7168 101.176 18.4922 100.953 18.2031C100.734 17.9141 100.564 17.5742 100.443 17.1836C100.326 16.7891 100.268 16.3613 100.268 15.9004ZM101.357 15.7773V15.9004C101.357 16.2168 101.389 16.5137 101.451 16.791C101.518 17.0684 101.619 17.3125 101.756 17.5234C101.893 17.7344 102.066 17.9004 102.277 18.0215C102.488 18.1387 102.74 18.1973 103.033 18.1973C103.393 18.1973 103.688 18.1211 103.918 17.9688C104.152 17.8164 104.34 17.6152 104.48 17.3652C104.621 17.1152 104.73 16.8438 104.809 16.5508V15.1387C104.762 14.9238 104.693 14.7168 104.604 14.5176C104.518 14.3145 104.404 14.1348 104.264 13.9785C104.127 13.8184 103.957 13.6914 103.754 13.5977C103.555 13.5039 103.318 13.457 103.045 13.457C102.748 13.457 102.492 13.5195 102.277 13.6445C102.066 13.7656 101.893 13.9336 101.756 14.1484C101.619 14.3594 101.518 14.6055 101.451 14.8867C101.389 15.1641 101.357 15.4609 101.357 15.7773ZM106.828 18.4258C106.828 18.2422 106.885 18.0879 106.998 17.9629C107.115 17.834 107.283 17.7695 107.502 17.7695C107.721 17.7695 107.887 17.834 108 17.9629C108.117 18.0879 108.176 18.2422 108.176 18.4258C108.176 18.6055 108.117 18.7578 108 18.8828C107.887 19.0078 107.721 19.0703 107.502 19.0703C107.283 19.0703 107.115 19.0078 106.998 18.8828C106.885 18.7578 106.828 18.6055 106.828 18.4258ZM117.266 16.2871H118.391C118.332 16.8262 118.178 17.3086 117.928 17.7344C117.678 18.1602 117.324 18.498 116.867 18.748C116.41 18.9941 115.84 19.1172 115.156 19.1172C114.656 19.1172 114.201 19.0234 113.791 18.8359C113.385 18.6484 113.035 18.3828 112.742 18.0391C112.449 17.6914 112.223 17.2754 112.062 16.791C111.906 16.3027 111.828 15.7598 111.828 15.1621V14.3125C111.828 13.7148 111.906 13.1738 112.062 12.6895C112.223 12.2012 112.451 11.7832 112.748 11.4355C113.049 11.0879 113.41 10.8203 113.832 10.6328C114.254 10.4453 114.729 10.3516 115.256 10.3516C115.9 10.3516 116.445 10.4727 116.891 10.7148C117.336 10.957 117.682 11.293 117.928 11.7227C118.178 12.1484 118.332 12.6426 118.391 13.2051H117.266C117.211 12.8066 117.109 12.4648 116.961 12.1797C116.812 11.8906 116.602 11.668 116.328 11.5117C116.055 11.3555 115.697 11.2773 115.256 11.2773C114.877 11.2773 114.543 11.3496 114.254 11.4941C113.969 11.6387 113.729 11.8438 113.533 12.1094C113.342 12.375 113.197 12.6934 113.1 13.0645C113.002 13.4355 112.953 13.8477 112.953 14.3008V15.1621C112.953 15.5801 112.996 15.9727 113.082 16.3398C113.172 16.707 113.307 17.0293 113.486 17.3066C113.666 17.584 113.895 17.8027 114.172 17.9629C114.449 18.1191 114.777 18.1973 115.156 18.1973C115.637 18.1973 116.02 18.1211 116.305 17.9688C116.59 17.8164 116.805 17.5977 116.949 17.3125C117.098 17.0273 117.203 16.6855 117.266 16.2871ZM120.352 10V19H119.268V10H120.352ZM120.094 15.5898L119.643 15.5723C119.646 15.1387 119.711 14.7383 119.836 14.3711C119.961 14 120.137 13.6777 120.363 13.4043C120.59 13.1309 120.859 12.9199 121.172 12.7715C121.488 12.6191 121.838 12.543 122.221 12.543C122.533 12.543 122.814 12.5859 123.064 12.6719C123.314 12.7539 123.527 12.8867 123.703 13.0703C123.883 13.2539 124.02 13.4922 124.113 13.7852C124.207 14.0742 124.254 14.4277 124.254 14.8457V19H123.164V14.834C123.164 14.502 123.115 14.2363 123.018 14.0371C122.92 13.834 122.777 13.6875 122.59 13.5977C122.402 13.5039 122.172 13.457 121.898 13.457C121.629 13.457 121.383 13.5137 121.16 13.627C120.941 13.7402 120.752 13.8965 120.592 14.0957C120.436 14.2949 120.312 14.5234 120.223 14.7812C120.137 15.0352 120.094 15.3047 120.094 15.5898ZM128.008 19.1172C127.566 19.1172 127.166 19.043 126.807 18.8945C126.451 18.7422 126.145 18.5293 125.887 18.2559C125.633 17.9824 125.438 17.6582 125.301 17.2832C125.164 16.9082 125.096 16.498 125.096 16.0527V15.8066C125.096 15.291 125.172 14.832 125.324 14.4297C125.477 14.0234 125.684 13.6797 125.945 13.3984C126.207 13.1172 126.504 12.9043 126.836 12.7598C127.168 12.6152 127.512 12.543 127.867 12.543C128.32 12.543 128.711 12.6211 129.039 12.7773C129.371 12.9336 129.643 13.1523 129.854 13.4336C130.064 13.7109 130.221 14.0391 130.322 14.418C130.424 14.793 130.475 15.2031 130.475 15.6484V16.1348H125.74V15.25H129.391V15.168C129.375 14.8867 129.316 14.6133 129.215 14.3477C129.117 14.082 128.961 13.8633 128.746 13.6914C128.531 13.5195 128.238 13.4336 127.867 13.4336C127.621 13.4336 127.395 13.4863 127.188 13.5918C126.98 13.6934 126.803 13.8457 126.654 14.0488C126.506 14.252 126.391 14.5 126.309 14.793C126.227 15.0859 126.186 15.4238 126.186 15.8066V16.0527C126.186 16.3535 126.227 16.6367 126.309 16.9023C126.395 17.1641 126.518 17.3945 126.678 17.5938C126.842 17.793 127.039 17.9492 127.27 18.0625C127.504 18.1758 127.77 18.2324 128.066 18.2324C128.449 18.2324 128.773 18.1543 129.039 17.998C129.305 17.8418 129.537 17.6328 129.736 17.3711L130.393 17.8926C130.256 18.0996 130.082 18.2969 129.871 18.4844C129.66 18.6719 129.4 18.8242 129.092 18.9414C128.787 19.0586 128.426 19.1172 128.008 19.1172ZM133.777 18.2266C134.035 18.2266 134.273 18.1738 134.492 18.0684C134.711 17.9629 134.891 17.8184 135.031 17.6348C135.172 17.4473 135.252 17.2344 135.271 16.9961H136.303C136.283 17.3711 136.156 17.7207 135.922 18.0449C135.691 18.3652 135.389 18.625 135.014 18.8242C134.639 19.0195 134.227 19.1172 133.777 19.1172C133.301 19.1172 132.885 19.0332 132.529 18.8652C132.178 18.6973 131.885 18.4668 131.65 18.1738C131.42 17.8809 131.246 17.5449 131.129 17.166C131.016 16.7832 130.959 16.3789 130.959 15.9531V15.707C130.959 15.2812 131.016 14.8789 131.129 14.5C131.246 14.1172 131.42 13.7793 131.65 13.4863C131.885 13.1934 132.178 12.9629 132.529 12.7949C132.885 12.627 133.301 12.543 133.777 12.543C134.273 12.543 134.707 12.6445 135.078 12.8477C135.449 13.0469 135.74 13.3203 135.951 13.668C136.166 14.0117 136.283 14.4023 136.303 14.8398H135.271C135.252 14.5781 135.178 14.3418 135.049 14.1309C134.924 13.9199 134.752 13.752 134.533 13.627C134.318 13.498 134.066 13.4336 133.777 13.4336C133.445 13.4336 133.166 13.5 132.939 13.6328C132.717 13.7617 132.539 13.9375 132.406 14.1602C132.277 14.3789 132.184 14.623 132.125 14.8926C132.07 15.1582 132.043 15.4297 132.043 15.707V15.9531C132.043 16.2305 132.07 16.5039 132.125 16.7734C132.18 17.043 132.271 17.2871 132.4 17.5059C132.533 17.7246 132.711 17.9004 132.934 18.0332C133.16 18.1621 133.441 18.2266 133.777 18.2266ZM138.111 10V19H137.021V10H138.111ZM141.984 12.6602L139.219 15.6191L137.672 17.2246L137.584 16.0703L138.691 14.7461L140.66 12.6602H141.984ZM140.994 19L138.732 15.9766L139.295 15.0098L142.271 19H140.994ZM147.734 12.6602V13.4922H144.307V12.6602H147.734ZM145.467 11.1191H146.551V17.4297C146.551 17.6445 146.584 17.8066 146.65 17.916C146.717 18.0254 146.803 18.0977 146.908 18.1328C147.014 18.168 147.127 18.1855 147.248 18.1855C147.338 18.1855 147.432 18.1777 147.529 18.1621C147.631 18.1426 147.707 18.127 147.758 18.1152L147.764 19C147.678 19.0273 147.564 19.0527 147.424 19.0762C147.287 19.1035 147.121 19.1172 146.926 19.1172C146.66 19.1172 146.416 19.0645 146.193 18.959C145.971 18.8535 145.793 18.6777 145.66 18.4316C145.531 18.1816 145.467 17.8457 145.467 17.4238V11.1191ZM149.59 10V19H148.506V10H149.59ZM149.332 15.5898L148.881 15.5723C148.885 15.1387 148.949 14.7383 149.074 14.3711C149.199 14 149.375 13.6777 149.602 13.4043C149.828 13.1309 150.098 12.9199 150.41 12.7715C150.727 12.6191 151.076 12.543 151.459 12.543C151.771 12.543 152.053 12.5859 152.303 12.6719C152.553 12.7539 152.766 12.8867 152.941 13.0703C153.121 13.2539 153.258 13.4922 153.352 13.7852C153.445 14.0742 153.492 14.4277 153.492 14.8457V19H152.402V14.834C152.402 14.502 152.354 14.2363 152.256 14.0371C152.158 13.834 152.016 13.6875 151.828 13.5977C151.641 13.5039 151.41 13.457 151.137 13.457C150.867 13.457 150.621 13.5137 150.398 13.627C150.18 13.7402 149.99 13.8965 149.83 14.0957C149.674 14.2949 149.551 14.5234 149.461 14.7812C149.375 15.0352 149.332 15.3047 149.332 15.5898ZM157.246 19.1172C156.805 19.1172 156.404 19.043 156.045 18.8945C155.689 18.7422 155.383 18.5293 155.125 18.2559C154.871 17.9824 154.676 17.6582 154.539 17.2832C154.402 16.9082 154.334 16.498 154.334 16.0527V15.8066C154.334 15.291 154.41 14.832 154.562 14.4297C154.715 14.0234 154.922 13.6797 155.184 13.3984C155.445 13.1172 155.742 12.9043 156.074 12.7598C156.406 12.6152 156.75 12.543 157.105 12.543C157.559 12.543 157.949 12.6211 158.277 12.7773C158.609 12.9336 158.881 13.1523 159.092 13.4336C159.303 13.7109 159.459 14.0391 159.561 14.418C159.662 14.793 159.713 15.2031 159.713 15.6484V16.1348H154.979V15.25H158.629V15.168C158.613 14.8867 158.555 14.6133 158.453 14.3477C158.355 14.082 158.199 13.8633 157.984 13.6914C157.77 13.5195 157.477 13.4336 157.105 13.4336C156.859 13.4336 156.633 13.4863 156.426 13.5918C156.219 13.6934 156.041 13.8457 155.893 14.0488C155.744 14.252 155.629 14.5 155.547 14.793C155.465 15.0859 155.424 15.4238 155.424 15.8066V16.0527C155.424 16.3535 155.465 16.6367 155.547 16.9023C155.633 17.1641 155.756 17.3945 155.916 17.5938C156.08 17.793 156.277 17.9492 156.508 18.0625C156.742 18.1758 157.008 18.2324 157.305 18.2324C157.688 18.2324 158.012 18.1543 158.277 17.998C158.543 17.8418 158.775 17.6328 158.975 17.3711L159.631 17.8926C159.494 18.0996 159.32 18.2969 159.109 18.4844C158.898 18.6719 158.639 18.8242 158.33 18.9414C158.025 19.0586 157.664 19.1172 157.246 19.1172ZM165.492 18.2266C165.75 18.2266 165.988 18.1738 166.207 18.0684C166.426 17.9629 166.605 17.8184 166.746 17.6348C166.887 17.4473 166.967 17.2344 166.986 16.9961H168.018C167.998 17.3711 167.871 17.7207 167.637 18.0449C167.406 18.3652 167.104 18.625 166.729 18.8242C166.354 19.0195 165.941 19.1172 165.492 19.1172C165.016 19.1172 164.6 19.0332 164.244 18.8652C163.893 18.6973 163.6 18.4668 163.365 18.1738C163.135 17.8809 162.961 17.5449 162.844 17.166C162.73 16.7832 162.674 16.3789 162.674 15.9531V15.707C162.674 15.2812 162.73 14.8789 162.844 14.5C162.961 14.1172 163.135 13.7793 163.365 13.4863C163.6 13.1934 163.893 12.9629 164.244 12.7949C164.6 12.627 165.016 12.543 165.492 12.543C165.988 12.543 166.422 12.6445 166.793 12.8477C167.164 13.0469 167.455 13.3203 167.666 13.668C167.881 14.0117 167.998 14.4023 168.018 14.8398H166.986C166.967 14.5781 166.893 14.3418 166.764 14.1309C166.639 13.9199 166.467 13.752 166.248 13.627C166.033 13.498 165.781 13.4336 165.492 13.4336C165.16 13.4336 164.881 13.5 164.654 13.6328C164.432 13.7617 164.254 13.9375 164.121 14.1602C163.992 14.3789 163.898 14.623 163.84 14.8926C163.785 15.1582 163.758 15.4297 163.758 15.707V15.9531C163.758 16.2305 163.785 16.5039 163.84 16.7734C163.895 17.043 163.986 17.2871 164.115 17.5059C164.248 17.7246 164.426 17.9004 164.648 18.0332C164.875 18.1621 165.156 18.2266 165.492 18.2266ZM169.82 10V19H168.736V10H169.82ZM169.562 15.5898L169.111 15.5723C169.115 15.1387 169.18 14.7383 169.305 14.3711C169.43 14 169.605 13.6777 169.832 13.4043C170.059 13.1309 170.328 12.9199 170.641 12.7715C170.957 12.6191 171.307 12.543 171.689 12.543C172.002 12.543 172.283 12.5859 172.533 12.6719C172.783 12.7539 172.996 12.8867 173.172 13.0703C173.352 13.2539 173.488 13.4922 173.582 13.7852C173.676 14.0742 173.723 14.4277 173.723 14.8457V19H172.633V14.834C172.633 14.502 172.584 14.2363 172.486 14.0371C172.389 13.834 172.246 13.6875 172.059 13.5977C171.871 13.5039 171.641 13.457 171.367 13.457C171.098 13.457 170.852 13.5137 170.629 13.627C170.41 13.7402 170.221 13.8965 170.061 14.0957C169.904 14.2949 169.781 14.5234 169.691 14.7812C169.605 15.0352 169.562 15.3047 169.562 15.5898ZM177.477 19.1172C177.035 19.1172 176.635 19.043 176.275 18.8945C175.92 18.7422 175.613 18.5293 175.355 18.2559C175.102 17.9824 174.906 17.6582 174.77 17.2832C174.633 16.9082 174.564 16.498 174.564 16.0527V15.8066C174.564 15.291 174.641 14.832 174.793 14.4297C174.945 14.0234 175.152 13.6797 175.414 13.3984C175.676 13.1172 175.973 12.9043 176.305 12.7598C176.637 12.6152 176.98 12.543 177.336 12.543C177.789 12.543 178.18 12.6211 178.508 12.7773C178.84 12.9336 179.111 13.1523 179.322 13.4336C179.533 13.7109 179.689 14.0391 179.791 14.418C179.893 14.793 179.943 15.2031 179.943 15.6484V16.1348H175.209V15.25H178.859V15.168C178.844 14.8867 178.785 14.6133 178.684 14.3477C178.586 14.082 178.43 13.8633 178.215 13.6914C178 13.5195 177.707 13.4336 177.336 13.4336C177.09 13.4336 176.863 13.4863 176.656 13.5918C176.449 13.6934 176.271 13.8457 176.123 14.0488C175.975 14.252 175.859 14.5 175.777 14.793C175.695 15.0859 175.654 15.4238 175.654 15.8066V16.0527C175.654 16.3535 175.695 16.6367 175.777 16.9023C175.863 17.1641 175.986 17.3945 176.146 17.5938C176.311 17.793 176.508 17.9492 176.738 18.0625C176.973 18.1758 177.238 18.2324 177.535 18.2324C177.918 18.2324 178.242 18.1543 178.508 17.998C178.773 17.8418 179.006 17.6328 179.205 17.3711L179.861 17.8926C179.725 18.0996 179.551 18.2969 179.34 18.4844C179.129 18.6719 178.869 18.8242 178.561 18.9414C178.256 19.0586 177.895 19.1172 177.477 19.1172ZM183.246 18.2266C183.504 18.2266 183.742 18.1738 183.961 18.0684C184.18 17.9629 184.359 17.8184 184.5 17.6348C184.641 17.4473 184.721 17.2344 184.74 16.9961H185.771C185.752 17.3711 185.625 17.7207 185.391 18.0449C185.16 18.3652 184.857 18.625 184.482 18.8242C184.107 19.0195 183.695 19.1172 183.246 19.1172C182.77 19.1172 182.354 19.0332 181.998 18.8652C181.646 18.6973 181.354 18.4668 181.119 18.1738C180.889 17.8809 180.715 17.5449 180.598 17.166C180.484 16.7832 180.428 16.3789 180.428 15.9531V15.707C180.428 15.2812 180.484 14.8789 180.598 14.5C180.715 14.1172 180.889 13.7793 181.119 13.4863C181.354 13.1934 181.646 12.9629 181.998 12.7949C182.354 12.627 182.77 12.543 183.246 12.543C183.742 12.543 184.176 12.6445 184.547 12.8477C184.918 13.0469 185.209 13.3203 185.42 13.668C185.635 14.0117 185.752 14.4023 185.771 14.8398H184.74C184.721 14.5781 184.646 14.3418 184.518 14.1309C184.393 13.9199 184.221 13.752 184.002 13.627C183.787 13.498 183.535 13.4336 183.246 13.4336C182.914 13.4336 182.635 13.5 182.408 13.6328C182.186 13.7617 182.008 13.9375 181.875 14.1602C181.746 14.3789 181.652 14.623 181.594 14.8926C181.539 15.1582 181.512 15.4297 181.512 15.707V15.9531C181.512 16.2305 181.539 16.5039 181.594 16.7734C181.648 17.043 181.74 17.2871 181.869 17.5059C182.002 17.7246 182.18 17.9004 182.402 18.0332C182.629 18.1621 182.91 18.2266 183.246 18.2266ZM187.58 10V19H186.49V10H187.58ZM191.453 12.6602L188.688 15.6191L187.141 17.2246L187.053 16.0703L188.16 14.7461L190.129 12.6602H191.453ZM190.463 19L188.201 15.9766L188.764 15.0098L191.74 19H190.463ZM192.066 10H193.156V17.7695L193.062 19H192.066V10ZM197.439 15.7773V15.9004C197.439 16.3613 197.385 16.7891 197.275 17.1836C197.166 17.5742 197.006 17.9141 196.795 18.2031C196.584 18.4922 196.326 18.7168 196.021 18.877C195.717 19.0371 195.367 19.1172 194.973 19.1172C194.57 19.1172 194.217 19.0488 193.912 18.9121C193.611 18.7715 193.357 18.5703 193.15 18.3086C192.943 18.0469 192.777 17.7305 192.652 17.3594C192.531 16.9883 192.447 16.5703 192.4 16.1055V15.5664C192.447 15.0977 192.531 14.6777 192.652 14.3066C192.777 13.9355 192.943 13.6191 193.15 13.3574C193.357 13.0918 193.611 12.8906 193.912 12.7539C194.213 12.6133 194.562 12.543 194.961 12.543C195.359 12.543 195.713 12.6211 196.021 12.7773C196.33 12.9297 196.588 13.1484 196.795 13.4336C197.006 13.7188 197.166 14.0605 197.275 14.459C197.385 14.8535 197.439 15.293 197.439 15.7773ZM196.35 15.9004V15.7773C196.35 15.4609 196.32 15.1641 196.262 14.8867C196.203 14.6055 196.109 14.3594 195.98 14.1484C195.852 13.9336 195.682 13.7656 195.471 13.6445C195.26 13.5195 195 13.457 194.691 13.457C194.418 13.457 194.18 13.5039 193.977 13.5977C193.777 13.6914 193.607 13.8184 193.467 13.9785C193.326 14.1348 193.211 14.3145 193.121 14.5176C193.035 14.7168 192.971 14.9238 192.928 15.1387V16.5508C192.99 16.8242 193.092 17.0879 193.232 17.3418C193.377 17.5918 193.568 17.7969 193.807 17.957C194.049 18.1172 194.348 18.1973 194.703 18.1973C194.996 18.1973 195.246 18.1387 195.453 18.0215C195.664 17.9004 195.834 17.7344 195.963 17.5234C196.096 17.3125 196.193 17.0684 196.256 16.791C196.318 16.5137 196.35 16.2168 196.35 15.9004ZM198.023 15.9004V15.7656C198.023 15.3086 198.09 14.8848 198.223 14.4941C198.355 14.0996 198.547 13.7578 198.797 13.4688C199.047 13.1758 199.35 12.9492 199.705 12.7891C200.061 12.625 200.459 12.543 200.9 12.543C201.346 12.543 201.746 12.625 202.102 12.7891C202.461 12.9492 202.766 13.1758 203.016 13.4688C203.27 13.7578 203.463 14.0996 203.596 14.4941C203.729 14.8848 203.795 15.3086 203.795 15.7656V15.9004C203.795 16.3574 203.729 16.7812 203.596 17.1719C203.463 17.5625 203.27 17.9043 203.016 18.1973C202.766 18.4863 202.463 18.7129 202.107 18.877C201.756 19.0371 201.357 19.1172 200.912 19.1172C200.467 19.1172 200.066 19.0371 199.711 18.877C199.355 18.7129 199.051 18.4863 198.797 18.1973C198.547 17.9043 198.355 17.5625 198.223 17.1719C198.09 16.7812 198.023 16.3574 198.023 15.9004ZM199.107 15.7656V15.9004C199.107 16.2168 199.145 16.5156 199.219 16.7969C199.293 17.0742 199.404 17.3203 199.553 17.5352C199.705 17.75 199.895 17.9199 200.121 18.0449C200.348 18.166 200.611 18.2266 200.912 18.2266C201.209 18.2266 201.469 18.166 201.691 18.0449C201.918 17.9199 202.105 17.75 202.254 17.5352C202.402 17.3203 202.514 17.0742 202.588 16.7969C202.666 16.5156 202.705 16.2168 202.705 15.9004V15.7656C202.705 15.4531 202.666 15.1582 202.588 14.8809C202.514 14.5996 202.4 14.3516 202.248 14.1367C202.1 13.918 201.912 13.7461 201.686 13.6211C201.463 13.4961 201.201 13.4336 200.9 13.4336C200.604 13.4336 200.342 13.4961 200.115 13.6211C199.893 13.7461 199.705 13.918 199.553 14.1367C199.404 14.3516 199.293 14.5996 199.219 14.8809C199.145 15.1582 199.107 15.4531 199.107 15.7656ZM205.258 12.6602L206.646 14.9688L208.053 12.6602H209.324L207.25 15.7891L209.389 19H208.135L206.67 16.6211L205.205 19H203.945L206.078 15.7891L204.01 12.6602H205.258ZM216.193 17.916V14.6523C216.193 14.4023 216.143 14.1855 216.041 14.002C215.943 13.8145 215.795 13.6699 215.596 13.5684C215.396 13.4668 215.15 13.416 214.857 13.416C214.584 13.416 214.344 13.4629 214.137 13.5566C213.934 13.6504 213.773 13.7734 213.656 13.9258C213.543 14.0781 213.486 14.2422 213.486 14.418H212.402C212.402 14.1914 212.461 13.9668 212.578 13.7441C212.695 13.5215 212.863 13.3203 213.082 13.1406C213.305 12.957 213.57 12.8125 213.879 12.707C214.191 12.5977 214.539 12.543 214.922 12.543C215.383 12.543 215.789 12.6211 216.141 12.7773C216.496 12.9336 216.773 13.1699 216.973 13.4863C217.176 13.7988 217.277 14.1914 217.277 14.6641V17.6172C217.277 17.8281 217.295 18.0527 217.33 18.291C217.369 18.5293 217.426 18.7344 217.5 18.9062V19H216.369C216.314 18.875 216.271 18.709 216.24 18.502C216.209 18.291 216.193 18.0957 216.193 17.916ZM216.381 15.1562L216.393 15.918H215.297C214.988 15.918 214.713 15.9434 214.471 15.9941C214.229 16.041 214.025 16.1133 213.861 16.2109C213.697 16.3086 213.572 16.4316 213.486 16.5801C213.4 16.7246 213.357 16.8945 213.357 17.0898C213.357 17.2891 213.402 17.4707 213.492 17.6348C213.582 17.7988 213.717 17.9297 213.896 18.0273C214.08 18.1211 214.305 18.168 214.57 18.168C214.902 18.168 215.195 18.0977 215.449 17.957C215.703 17.8164 215.904 17.6445 216.053 17.4414C216.205 17.2383 216.287 17.041 216.299 16.8496L216.762 17.3711C216.734 17.5352 216.66 17.7168 216.539 17.916C216.418 18.1152 216.256 18.3066 216.053 18.4902C215.854 18.6699 215.615 18.8203 215.338 18.9414C215.064 19.0586 214.756 19.1172 214.412 19.1172C213.982 19.1172 213.605 19.0332 213.281 18.8652C212.961 18.6973 212.711 18.4727 212.531 18.1914C212.355 17.9062 212.268 17.5879 212.268 17.2363C212.268 16.8965 212.334 16.5977 212.467 16.3398C212.6 16.0781 212.791 15.8613 213.041 15.6895C213.291 15.5137 213.592 15.3809 213.943 15.291C214.295 15.2012 214.688 15.1562 215.121 15.1562H216.381ZM222.59 12.6602H223.574V18.8652C223.574 19.4238 223.461 19.9004 223.234 20.2949C223.008 20.6895 222.691 20.9883 222.285 21.1914C221.883 21.3984 221.418 21.502 220.891 21.502C220.672 21.502 220.414 21.4668 220.117 21.3965C219.824 21.3301 219.535 21.2148 219.25 21.0508C218.969 20.8906 218.732 20.6738 218.541 20.4004L219.109 19.7559C219.375 20.0762 219.652 20.2988 219.941 20.4238C220.234 20.5488 220.523 20.6113 220.809 20.6113C221.152 20.6113 221.449 20.5469 221.699 20.418C221.949 20.2891 222.143 20.0977 222.279 19.8438C222.42 19.5938 222.49 19.2852 222.49 18.918V14.0547L222.59 12.6602ZM218.225 15.9004V15.7773C218.225 15.293 218.281 14.8535 218.395 14.459C218.512 14.0605 218.678 13.7188 218.893 13.4336C219.111 13.1484 219.375 12.9297 219.684 12.7773C219.992 12.6211 220.34 12.543 220.727 12.543C221.125 12.543 221.473 12.6133 221.77 12.7539C222.07 12.8906 222.324 13.0918 222.531 13.3574C222.742 13.6191 222.908 13.9355 223.029 14.3066C223.15 14.6777 223.234 15.0977 223.281 15.5664V16.1055C223.238 16.5703 223.154 16.9883 223.029 17.3594C222.908 17.7305 222.742 18.0469 222.531 18.3086C222.324 18.5703 222.07 18.7715 221.77 18.9121C221.469 19.0488 221.117 19.1172 220.715 19.1172C220.336 19.1172 219.992 19.0371 219.684 18.877C219.379 18.7168 219.117 18.4922 218.898 18.2031C218.68 17.9141 218.512 17.5742 218.395 17.1836C218.281 16.7891 218.225 16.3613 218.225 15.9004ZM219.309 15.7773V15.9004C219.309 16.2168 219.34 16.5137 219.402 16.791C219.469 17.0684 219.568 17.3125 219.701 17.5234C219.838 17.7344 220.012 17.9004 220.223 18.0215C220.434 18.1387 220.686 18.1973 220.979 18.1973C221.338 18.1973 221.635 18.1211 221.869 17.9688C222.104 17.8164 222.289 17.6152 222.426 17.3652C222.566 17.1152 222.676 16.8438 222.754 16.5508V15.1387C222.711 14.9238 222.645 14.7168 222.555 14.5176C222.469 14.3145 222.355 14.1348 222.215 13.9785C222.078 13.8184 221.908 13.6914 221.705 13.5977C221.502 13.5039 221.264 13.457 220.99 13.457C220.693 13.457 220.438 13.5195 220.223 13.6445C220.012 13.7656 219.838 13.9336 219.701 14.1484C219.568 14.3594 219.469 14.6055 219.402 14.8867C219.34 15.1641 219.309 15.4609 219.309 15.7773ZM228.459 17.916V14.6523C228.459 14.4023 228.408 14.1855 228.307 14.002C228.209 13.8145 228.061 13.6699 227.861 13.5684C227.662 13.4668 227.416 13.416 227.123 13.416C226.85 13.416 226.609 13.4629 226.402 13.5566C226.199 13.6504 226.039 13.7734 225.922 13.9258C225.809 14.0781 225.752 14.2422 225.752 14.418H224.668C224.668 14.1914 224.727 13.9668 224.844 13.7441C224.961 13.5215 225.129 13.3203 225.348 13.1406C225.57 12.957 225.836 12.8125 226.145 12.707C226.457 12.5977 226.805 12.543 227.188 12.543C227.648 12.543 228.055 12.6211 228.406 12.7773C228.762 12.9336 229.039 13.1699 229.238 13.4863C229.441 13.7988 229.543 14.1914 229.543 14.6641V17.6172C229.543 17.8281 229.561 18.0527 229.596 18.291C229.635 18.5293 229.691 18.7344 229.766 18.9062V19H228.635C228.58 18.875 228.537 18.709 228.506 18.502C228.475 18.291 228.459 18.0957 228.459 17.916ZM228.646 15.1562L228.658 15.918H227.562C227.254 15.918 226.979 15.9434 226.736 15.9941C226.494 16.041 226.291 16.1133 226.127 16.2109C225.963 16.3086 225.838 16.4316 225.752 16.5801C225.666 16.7246 225.623 16.8945 225.623 17.0898C225.623 17.2891 225.668 17.4707 225.758 17.6348C225.848 17.7988 225.982 17.9297 226.162 18.0273C226.346 18.1211 226.57 18.168 226.836 18.168C227.168 18.168 227.461 18.0977 227.715 17.957C227.969 17.8164 228.17 17.6445 228.318 17.4414C228.471 17.2383 228.553 17.041 228.564 16.8496L229.027 17.3711C229 17.5352 228.926 17.7168 228.805 17.916C228.684 18.1152 228.521 18.3066 228.318 18.4902C228.119 18.6699 227.881 18.8203 227.604 18.9414C227.33 19.0586 227.021 19.1172 226.678 19.1172C226.248 19.1172 225.871 19.0332 225.547 18.8652C225.227 18.6973 224.977 18.4727 224.797 18.1914C224.621 17.9062 224.533 17.5879 224.533 17.2363C224.533 16.8965 224.6 16.5977 224.732 16.3398C224.865 16.0781 225.057 15.8613 225.307 15.6895C225.557 15.5137 225.857 15.3809 226.209 15.291C226.561 15.2012 226.953 15.1562 227.387 15.1562H228.646ZM231.926 12.6602V19H230.836V12.6602H231.926ZM230.754 10.9785C230.754 10.8027 230.807 10.6543 230.912 10.5332C231.021 10.4121 231.182 10.3516 231.393 10.3516C231.6 10.3516 231.758 10.4121 231.867 10.5332C231.98 10.6543 232.037 10.8027 232.037 10.9785C232.037 11.1465 231.98 11.291 231.867 11.4121C231.758 11.5293 231.6 11.5879 231.393 11.5879C231.182 11.5879 231.021 11.5293 230.912 11.4121C230.807 11.291 230.754 11.1465 230.754 10.9785ZM234.25 14.0137V19H233.166V12.6602H234.191L234.25 14.0137ZM233.992 15.5898L233.541 15.5723C233.545 15.1387 233.609 14.7383 233.734 14.3711C233.859 14 234.035 13.6777 234.262 13.4043C234.488 13.1309 234.758 12.9199 235.07 12.7715C235.387 12.6191 235.736 12.543 236.119 12.543C236.432 12.543 236.713 12.5859 236.963 12.6719C237.213 12.7539 237.426 12.8867 237.602 13.0703C237.781 13.2539 237.918 13.4922 238.012 13.7852C238.105 14.0742 238.152 14.4277 238.152 14.8457V19H237.062V14.834C237.062 14.502 237.014 14.2363 236.916 14.0371C236.818 13.834 236.676 13.6875 236.488 13.5977C236.301 13.5039 236.07 13.457 235.797 13.457C235.527 13.457 235.281 13.5137 235.059 13.627C234.84 13.7402 234.65 13.8965 234.49 14.0957C234.334 14.2949 234.211 14.5234 234.121 14.7812C234.035 15.0352 233.992 15.3047 233.992 15.5898ZM239.316 18.4258C239.316 18.2422 239.373 18.0879 239.486 17.9629C239.604 17.834 239.771 17.7695 239.99 17.7695C240.209 17.7695 240.375 17.834 240.488 17.9629C240.605 18.0879 240.664 18.2422 240.664 18.4258C240.664 18.6055 240.605 18.7578 240.488 18.8828C240.375 19.0078 240.209 19.0703 239.99 19.0703C239.771 19.0703 239.604 19.0078 239.486 18.8828C239.373 18.7578 239.316 18.6055 239.316 18.4258Z" fill="#FF0101"/>
</g>
<defs>
<filter id="filter0_d_706_248" x="0" y="0" width="308" height="80" filterUnits="userSpaceOnUse" color-interpolation-filters="sRGB">
<feFlood flood-opacity="0" result="BackgroundImageFix"/>
<feColorMatrix in="SourceAlpha" type="matrix" values="0 0 0 0 0 0 0 0 0 0 0 0 0 0 0 0 0 0 127 0" result="hardAlpha"/>
<feOffset dy="1"/>
<feGaussianBlur stdDeviation="1"/>
<feColorMatrix type="matrix" values="0 0 0 0 0 0 0 0 0 0 0 0 0 0 0 0 0 0 0.1 0"/>
<feBlend mode="normal" in2="BackgroundImageFix" result="effect1_dropShadow_706_248"/>
<feBlend mode="normal" in="SourceGraphic" in2="effect1_dropShadow_706_248" result="shape"/>
</filter>
<clipPath id="clip0_706_248">
<rect width="48" height="46" fill="white" transform="translate(243 10)"/>
</clipPath>
</defs>
</svg>
