<svg width="320" height="120" viewBox="0 0 320 120" fill="none" xmlns="http://www.w3.org/2000/svg">
<rect x="0.5" y="0.5" width="319" height="119" rx="0.5" stroke="#FF0101"/>
<path d="M13.1367 101.654H10.8574V100.734H13.1367C13.5781 100.734 13.9355 100.664 14.209 100.523C14.4824 100.383 14.6816 100.188 14.8066 99.9375C14.9355 99.6875 15 99.4023 15 99.082C15 98.7891 14.9355 98.5137 14.8066 98.2559C14.6816 97.998 14.4824 97.791 14.209 97.6348C13.9355 97.4746 13.5781 97.3945 13.1367 97.3945H11.1211V105H9.99023V96.4688H13.1367C13.7812 96.4688 14.3262 96.5801 14.7715 96.8027C15.2168 97.0254 15.5547 97.334 15.7852 97.7285C16.0156 98.1191 16.1309 98.5664 16.1309 99.0703C16.1309 99.6172 16.0156 100.084 15.7852 100.471C15.5547 100.857 15.2168 101.152 14.7715 101.355C14.3262 101.555 13.7812 101.654 13.1367 101.654ZM18.0742 96V105H16.9844V96H18.0742ZM21.9453 105.117C21.5039 105.117 21.1035 105.043 20.7441 104.895C20.3887 104.742 20.082 104.529 19.8242 104.256C19.5703 103.982 19.375 103.658 19.2383 103.283C19.1016 102.908 19.0332 102.498 19.0332 102.053V101.807C19.0332 101.291 19.1094 100.832 19.2617 100.43C19.4141 100.023 19.6211 99.6797 19.8828 99.3984C20.1445 99.1172 20.4414 98.9043 20.7734 98.7598C21.1055 98.6152 21.4492 98.543 21.8047 98.543C22.2578 98.543 22.6484 98.6211 22.9766 98.7773C23.3086 98.9336 23.5801 99.1523 23.791 99.4336C24.002 99.7109 24.1582 100.039 24.2598 100.418C24.3613 100.793 24.4121 101.203 24.4121 101.648V102.135H19.6777V101.25H23.3281V101.168C23.3125 100.887 23.2539 100.613 23.1523 100.348C23.0547 100.082 22.8984 99.8633 22.6836 99.6914C22.4688 99.5195 22.1758 99.4336 21.8047 99.4336C21.5586 99.4336 21.332 99.4863 21.125 99.5918C20.918 99.6934 20.7402 99.8457 20.5918 100.049C20.4434 100.252 20.3281 100.5 20.2461 100.793C20.1641 101.086 20.123 101.424 20.123 101.807V102.053C20.123 102.354 20.1641 102.637 20.2461 102.902C20.332 103.164 20.4551 103.395 20.6152 103.594C20.7793 103.793 20.9766 103.949 21.207 104.062C21.4414 104.176 21.707 104.232 22.0039 104.232C22.3867 104.232 22.7109 104.154 22.9766 103.998C23.2422 103.842 23.4746 103.633 23.6738 103.371L24.3301 103.893C24.1934 104.1 24.0195 104.297 23.8086 104.484C23.5977 104.672 23.3379 104.824 23.0293 104.941C22.7246 105.059 22.3633 105.117 21.9453 105.117ZM28.916 103.916V100.652C28.916 100.402 28.8652 100.186 28.7637 100.002C28.666 99.8145 28.5176 99.6699 28.3184 99.5684C28.1191 99.4668 27.873 99.416 27.5801 99.416C27.3066 99.416 27.0664 99.4629 26.8594 99.5566C26.6562 99.6504 26.4961 99.7734 26.3789 99.9258C26.2656 100.078 26.209 100.242 26.209 100.418H25.125C25.125 100.191 25.1836 99.9668 25.3008 99.7441C25.418 99.5215 25.5859 99.3203 25.8047 99.1406C26.0273 98.957 26.293 98.8125 26.6016 98.707C26.9141 98.5977 27.2617 98.543 27.6445 98.543C28.1055 98.543 28.5117 98.6211 28.8633 98.7773C29.2188 98.9336 29.4961 99.1699 29.6953 99.4863C29.8984 99.7988 30 100.191 30 100.664V103.617C30 103.828 30.0176 104.053 30.0527 104.291C30.0918 104.529 30.1484 104.734 30.2227 104.906V105H29.0918C29.0371 104.875 28.9941 104.709 28.9629 104.502C28.9316 104.291 28.916 104.096 28.916 103.916ZM29.1035 101.156L29.1152 101.918H28.0195C27.7109 101.918 27.4355 101.943 27.1934 101.994C26.9512 102.041 26.748 102.113 26.584 102.211C26.4199 102.309 26.2949 102.432 26.209 102.58C26.123 102.725 26.0801 102.895 26.0801 103.09C26.0801 103.289 26.125 103.471 26.2148 103.635C26.3047 103.799 26.4395 103.93 26.6191 104.027C26.8027 104.121 27.0273 104.168 27.293 104.168C27.625 104.168 27.918 104.098 28.1719 103.957C28.4258 103.816 28.627 103.645 28.7754 103.441C28.9277 103.238 29.0098 103.041 29.0215 102.85L29.4844 103.371C29.457 103.535 29.3828 103.717 29.2617 103.916C29.1406 104.115 28.9785 104.307 28.7754 104.49C28.5762 104.67 28.3379 104.82 28.0605 104.941C27.7871 105.059 27.4785 105.117 27.1348 105.117C26.7051 105.117 26.3281 105.033 26.0039 104.865C25.6836 104.697 25.4336 104.473 25.2539 104.191C25.0781 103.906 24.9902 103.588 24.9902 103.236C24.9902 102.896 25.0566 102.598 25.1895 102.34C25.3223 102.078 25.5137 101.861 25.7637 101.689C26.0137 101.514 26.3145 101.381 26.666 101.291C27.0176 101.201 27.4102 101.156 27.8438 101.156H29.1035ZM34.8965 103.318C34.8965 103.162 34.8613 103.018 34.791 102.885C34.7246 102.748 34.5859 102.625 34.375 102.516C34.168 102.402 33.8555 102.305 33.4375 102.223C33.0859 102.148 32.7676 102.061 32.4824 101.959C32.2012 101.857 31.9609 101.734 31.7617 101.59C31.5664 101.445 31.416 101.275 31.3105 101.08C31.2051 100.885 31.1523 100.656 31.1523 100.395C31.1523 100.145 31.207 99.9082 31.3164 99.6855C31.4297 99.4629 31.5879 99.2656 31.791 99.0938C31.998 98.9219 32.2461 98.7871 32.5352 98.6895C32.8242 98.5918 33.1465 98.543 33.502 98.543C34.0098 98.543 34.4434 98.6328 34.8027 98.8125C35.1621 98.9922 35.4375 99.2324 35.6289 99.5332C35.8203 99.8301 35.916 100.16 35.916 100.523H34.832C34.832 100.348 34.7793 100.178 34.6738 100.014C34.5723 99.8457 34.4219 99.707 34.2227 99.5977C34.0273 99.4883 33.7871 99.4336 33.502 99.4336C33.2012 99.4336 32.957 99.4805 32.7695 99.5742C32.5859 99.6641 32.4512 99.7793 32.3652 99.9199C32.2832 100.061 32.2422 100.209 32.2422 100.365C32.2422 100.482 32.2617 100.588 32.3008 100.682C32.3438 100.771 32.418 100.855 32.5234 100.934C32.6289 101.008 32.7773 101.078 32.9688 101.145C33.1602 101.211 33.4043 101.277 33.7012 101.344C34.2207 101.461 34.6484 101.602 34.9844 101.766C35.3203 101.93 35.5703 102.131 35.7344 102.369C35.8984 102.607 35.9805 102.896 35.9805 103.236C35.9805 103.514 35.9219 103.768 35.8047 103.998C35.6914 104.229 35.5254 104.428 35.3066 104.596C35.0918 104.76 34.834 104.889 34.5332 104.982C34.2363 105.072 33.9023 105.117 33.5312 105.117C32.9727 105.117 32.5 105.018 32.1133 104.818C31.7266 104.619 31.4336 104.361 31.2344 104.045C31.0352 103.729 30.9355 103.395 30.9355 103.043H32.0254C32.041 103.34 32.127 103.576 32.2832 103.752C32.4395 103.924 32.6309 104.047 32.8574 104.121C33.084 104.191 33.3086 104.227 33.5312 104.227C33.8281 104.227 34.0762 104.188 34.2754 104.109C34.4785 104.031 34.6328 103.924 34.7383 103.787C34.8438 103.65 34.8965 103.494 34.8965 103.318ZM39.5352 105.117C39.0938 105.117 38.6934 105.043 38.334 104.895C37.9785 104.742 37.6719 104.529 37.4141 104.256C37.1602 103.982 36.9648 103.658 36.8281 103.283C36.6914 102.908 36.623 102.498 36.623 102.053V101.807C36.623 101.291 36.6992 100.832 36.8516 100.43C37.0039 100.023 37.2109 99.6797 37.4727 99.3984C37.7344 99.1172 38.0312 98.9043 38.3633 98.7598C38.6953 98.6152 39.0391 98.543 39.3945 98.543C39.8477 98.543 40.2383 98.6211 40.5664 98.7773C40.8984 98.9336 41.1699 99.1523 41.3809 99.4336C41.5918 99.7109 41.748 100.039 41.8496 100.418C41.9512 100.793 42.002 101.203 42.002 101.648V102.135H37.2676V101.25H40.918V101.168C40.9023 100.887 40.8438 100.613 40.7422 100.348C40.6445 100.082 40.4883 99.8633 40.2734 99.6914C40.0586 99.5195 39.7656 99.4336 39.3945 99.4336C39.1484 99.4336 38.9219 99.4863 38.7148 99.5918C38.5078 99.6934 38.3301 99.8457 38.1816 100.049C38.0332 100.252 37.918 100.5 37.8359 100.793C37.7539 101.086 37.7129 101.424 37.7129 101.807V102.053C37.7129 102.354 37.7539 102.637 37.8359 102.902C37.9219 103.164 38.0449 103.395 38.2051 103.594C38.3691 103.793 38.5664 103.949 38.7969 104.062C39.0312 104.176 39.2969 104.232 39.5938 104.232C39.9766 104.232 40.3008 104.154 40.5664 103.998C40.832 103.842 41.0645 103.633 41.2637 103.371L41.9199 103.893C41.7832 104.1 41.6094 104.297 41.3984 104.484C41.1875 104.672 40.9277 104.824 40.6191 104.941C40.3145 105.059 39.9531 105.117 39.5352 105.117ZM47.1719 104.021L48.9062 98.6602H50.0137L47.7344 105H47.0078L47.1719 104.021ZM45.7246 98.6602L47.5117 104.051L47.6348 105H46.9082L44.6113 98.6602H45.7246ZM53.1055 105.117C52.6641 105.117 52.2637 105.043 51.9043 104.895C51.5488 104.742 51.2422 104.529 50.9844 104.256C50.7305 103.982 50.5352 103.658 50.3984 103.283C50.2617 102.908 50.1934 102.498 50.1934 102.053V101.807C50.1934 101.291 50.2695 100.832 50.4219 100.43C50.5742 100.023 50.7812 99.6797 51.043 99.3984C51.3047 99.1172 51.6016 98.9043 51.9336 98.7598C52.2656 98.6152 52.6094 98.543 52.9648 98.543C53.418 98.543 53.8086 98.6211 54.1367 98.7773C54.4688 98.9336 54.7402 99.1523 54.9512 99.4336C55.1621 99.7109 55.3184 100.039 55.4199 100.418C55.5215 100.793 55.5723 101.203 55.5723 101.648V102.135H50.8379V101.25H54.4883V101.168C54.4727 100.887 54.4141 100.613 54.3125 100.348C54.2148 100.082 54.0586 99.8633 53.8438 99.6914C53.6289 99.5195 53.3359 99.4336 52.9648 99.4336C52.7188 99.4336 52.4922 99.4863 52.2852 99.5918C52.0781 99.6934 51.9004 99.8457 51.752 100.049C51.6035 100.252 51.4883 100.5 51.4062 100.793C51.3242 101.086 51.2832 101.424 51.2832 101.807V102.053C51.2832 102.354 51.3242 102.637 51.4062 102.902C51.4922 103.164 51.6152 103.395 51.7754 103.594C51.9395 103.793 52.1367 103.949 52.3672 104.062C52.6016 104.176 52.8672 104.232 53.1641 104.232C53.5469 104.232 53.8711 104.154 54.1367 103.998C54.4023 103.842 54.6348 103.633 54.834 103.371L55.4902 103.893C55.3535 104.1 55.1797 104.297 54.9688 104.484C54.7578 104.672 54.498 104.824 54.1895 104.941C53.8848 105.059 53.5234 105.117 53.1055 105.117ZM57.4219 99.6562V105H56.3379V98.6602H57.3926L57.4219 99.6562ZM59.4023 98.625L59.3965 99.6328C59.3066 99.6133 59.2207 99.6016 59.1387 99.5977C59.0605 99.5898 58.9707 99.5859 58.8691 99.5859C58.6191 99.5859 58.3984 99.625 58.207 99.7031C58.0156 99.7812 57.8535 99.8906 57.7207 100.031C57.5879 100.172 57.4824 100.34 57.4043 100.535C57.3301 100.727 57.2812 100.938 57.2578 101.168L56.9531 101.344C56.9531 100.961 56.9902 100.602 57.0645 100.266C57.1426 99.9297 57.2617 99.6328 57.4219 99.375C57.582 99.1133 57.7852 98.9102 58.0312 98.7656C58.2812 98.6172 58.5781 98.543 58.9219 98.543C59 98.543 59.0898 98.5527 59.1914 98.5723C59.293 98.5879 59.3633 98.6055 59.4023 98.625ZM61.082 98.6602V105H59.9922V98.6602H61.082ZM59.9102 96.9785C59.9102 96.8027 59.9629 96.6543 60.0684 96.5332C60.1777 96.4121 60.3379 96.3516 60.5488 96.3516C60.7559 96.3516 60.9141 96.4121 61.0234 96.5332C61.1367 96.6543 61.1934 96.8027 61.1934 96.9785C61.1934 97.1465 61.1367 97.291 61.0234 97.4121C60.9141 97.5293 60.7559 97.5879 60.5488 97.5879C60.3379 97.5879 60.1777 97.5293 60.0684 97.4121C59.9629 97.291 59.9102 97.1465 59.9102 96.9785ZM63.9395 105H62.8555V97.9922C62.8555 97.5352 62.9375 97.1504 63.1016 96.8379C63.2695 96.5215 63.5098 96.2832 63.8223 96.123C64.1348 95.959 64.5059 95.877 64.9355 95.877C65.0605 95.877 65.1855 95.8848 65.3105 95.9004C65.4395 95.916 65.5645 95.9395 65.6855 95.9707L65.627 96.8555C65.5449 96.8359 65.4512 96.8223 65.3457 96.8145C65.2441 96.8066 65.1426 96.8027 65.041 96.8027C64.8105 96.8027 64.6113 96.8496 64.4434 96.9434C64.2793 97.0332 64.1543 97.166 64.0684 97.3418C63.9824 97.5176 63.9395 97.7344 63.9395 97.9922V105ZM65.2871 98.6602V99.4922H61.8535V98.6602H65.2871ZM67.7754 104.344L69.5391 98.6602H70.6992L68.1562 105.979C68.0977 106.135 68.0195 106.303 67.9219 106.482C67.8281 106.666 67.707 106.84 67.5586 107.004C67.4102 107.168 67.2305 107.301 67.0195 107.402C66.8125 107.508 66.5645 107.561 66.2754 107.561C66.1895 107.561 66.0801 107.549 65.9473 107.525C65.8145 107.502 65.7207 107.482 65.666 107.467L65.6602 106.588C65.6914 106.592 65.7402 106.596 65.8066 106.6C65.877 106.607 65.9258 106.611 65.9531 106.611C66.1992 106.611 66.4082 106.578 66.5801 106.512C66.752 106.449 66.8965 106.342 67.0137 106.189C67.1348 106.041 67.2383 105.836 67.3242 105.574L67.7754 104.344ZM66.4805 98.6602L68.127 103.582L68.4082 104.725L67.6289 105.123L65.2969 98.6602H66.4805ZM76.3086 98.6602V99.4922H72.8809V98.6602H76.3086ZM74.041 97.1191H75.125V103.43C75.125 103.645 75.1582 103.807 75.2246 103.916C75.291 104.025 75.377 104.098 75.4824 104.133C75.5879 104.168 75.7012 104.186 75.8223 104.186C75.9121 104.186 76.0059 104.178 76.1035 104.162C76.2051 104.143 76.2812 104.127 76.332 104.115L76.3379 105C76.252 105.027 76.1387 105.053 75.998 105.076C75.8613 105.104 75.6953 105.117 75.5 105.117C75.2344 105.117 74.9902 105.064 74.7676 104.959C74.5449 104.854 74.3672 104.678 74.2344 104.432C74.1055 104.182 74.041 103.846 74.041 103.424V97.1191ZM78.1641 96V105H77.0801V96H78.1641ZM77.9062 101.59L77.4551 101.572C77.459 101.139 77.5234 100.738 77.6484 100.371C77.7734 100 77.9492 99.6777 78.1758 99.4043C78.4023 99.1309 78.6719 98.9199 78.9844 98.7715C79.3008 98.6191 79.6504 98.543 80.0332 98.543C80.3457 98.543 80.627 98.5859 80.877 98.6719C81.127 98.7539 81.3398 98.8867 81.5156 99.0703C81.6953 99.2539 81.832 99.4922 81.9258 99.7852C82.0195 100.074 82.0664 100.428 82.0664 100.846V105H80.9766V100.834C80.9766 100.502 80.9277 100.236 80.8301 100.037C80.7324 99.834 80.5898 99.6875 80.4023 99.5977C80.2148 99.5039 79.9844 99.457 79.7109 99.457C79.4414 99.457 79.1953 99.5137 78.9727 99.627C78.7539 99.7402 78.5645 99.8965 78.4043 100.096C78.248 100.295 78.125 100.523 78.0352 100.781C77.9492 101.035 77.9062 101.305 77.9062 101.59ZM86.9277 103.916V100.652C86.9277 100.402 86.877 100.186 86.7754 100.002C86.6777 99.8145 86.5293 99.6699 86.3301 99.5684C86.1309 99.4668 85.8848 99.416 85.5918 99.416C85.3184 99.416 85.0781 99.4629 84.8711 99.5566C84.668 99.6504 84.5078 99.7734 84.3906 99.9258C84.2773 100.078 84.2207 100.242 84.2207 100.418H83.1367C83.1367 100.191 83.1953 99.9668 83.3125 99.7441C83.4297 99.5215 83.5977 99.3203 83.8164 99.1406C84.0391 98.957 84.3047 98.8125 84.6133 98.707C84.9258 98.5977 85.2734 98.543 85.6562 98.543C86.1172 98.543 86.5234 98.6211 86.875 98.7773C87.2305 98.9336 87.5078 99.1699 87.707 99.4863C87.9102 99.7988 88.0117 100.191 88.0117 100.664V103.617C88.0117 103.828 88.0293 104.053 88.0645 104.291C88.1035 104.529 88.1602 104.734 88.2344 104.906V105H87.1035C87.0488 104.875 87.0059 104.709 86.9746 104.502C86.9434 104.291 86.9277 104.096 86.9277 103.916ZM87.1152 101.156L87.127 101.918H86.0312C85.7227 101.918 85.4473 101.943 85.2051 101.994C84.9629 102.041 84.7598 102.113 84.5957 102.211C84.4316 102.309 84.3066 102.432 84.2207 102.58C84.1348 102.725 84.0918 102.895 84.0918 103.09C84.0918 103.289 84.1367 103.471 84.2266 103.635C84.3164 103.799 84.4512 103.93 84.6309 104.027C84.8145 104.121 85.0391 104.168 85.3047 104.168C85.6367 104.168 85.9297 104.098 86.1836 103.957C86.4375 103.816 86.6387 103.645 86.7871 103.441C86.9395 103.238 87.0215 103.041 87.0332 102.85L87.4961 103.371C87.4688 103.535 87.3945 103.717 87.2734 103.916C87.1523 104.115 86.9902 104.307 86.7871 104.49C86.5879 104.67 86.3496 104.82 86.0723 104.941C85.7988 105.059 85.4902 105.117 85.1465 105.117C84.7168 105.117 84.3398 105.033 84.0156 104.865C83.6953 104.697 83.4453 104.473 83.2656 104.191C83.0898 103.906 83.002 103.588 83.002 103.236C83.002 102.896 83.0684 102.598 83.2012 102.34C83.334 102.078 83.5254 101.861 83.7754 101.689C84.0254 101.514 84.3262 101.381 84.6777 101.291C85.0293 101.201 85.4219 101.156 85.8555 101.156H87.1152ZM91.8711 98.6602V99.4922H88.4434V98.6602H91.8711ZM89.6035 97.1191H90.6875V103.43C90.6875 103.645 90.7207 103.807 90.7871 103.916C90.8535 104.025 90.9395 104.098 91.0449 104.133C91.1504 104.168 91.2637 104.186 91.3848 104.186C91.4746 104.186 91.5684 104.178 91.666 104.162C91.7676 104.143 91.8438 104.127 91.8945 104.115L91.9004 105C91.8145 105.027 91.7012 105.053 91.5605 105.076C91.4238 105.104 91.2578 105.117 91.0625 105.117C90.7969 105.117 90.5527 105.064 90.3301 104.959C90.1074 104.854 89.9297 104.678 89.7969 104.432C89.668 104.182 89.6035 103.846 89.6035 103.424V97.1191ZM96.9004 104.344L98.6641 98.6602H99.8242L97.2812 105.979C97.2227 106.135 97.1445 106.303 97.0469 106.482C96.9531 106.666 96.832 106.84 96.6836 107.004C96.5352 107.168 96.3555 107.301 96.1445 107.402C95.9375 107.508 95.6895 107.561 95.4004 107.561C95.3145 107.561 95.2051 107.549 95.0723 107.525C94.9395 107.502 94.8457 107.482 94.791 107.467L94.7852 106.588C94.8164 106.592 94.8652 106.596 94.9316 106.6C95.002 106.607 95.0508 106.611 95.0781 106.611C95.3242 106.611 95.5332 106.578 95.7051 106.512C95.877 106.449 96.0215 106.342 96.1387 106.189C96.2598 106.041 96.3633 105.836 96.4492 105.574L96.9004 104.344ZM95.6055 98.6602L97.252 103.582L97.5332 104.725L96.7539 105.123L94.4219 98.6602H95.6055ZM99.9219 101.9V101.766C99.9219 101.309 99.9883 100.885 100.121 100.494C100.254 100.1 100.445 99.7578 100.695 99.4688C100.945 99.1758 101.248 98.9492 101.604 98.7891C101.959 98.625 102.357 98.543 102.799 98.543C103.244 98.543 103.645 98.625 104 98.7891C104.359 98.9492 104.664 99.1758 104.914 99.4688C105.168 99.7578 105.361 100.1 105.494 100.494C105.627 100.885 105.693 101.309 105.693 101.766V101.9C105.693 102.357 105.627 102.781 105.494 103.172C105.361 103.562 105.168 103.904 104.914 104.197C104.664 104.486 104.361 104.713 104.006 104.877C103.654 105.037 103.256 105.117 102.811 105.117C102.365 105.117 101.965 105.037 101.609 104.877C101.254 104.713 100.949 104.486 100.695 104.197C100.445 103.904 100.254 103.562 100.121 103.172C99.9883 102.781 99.9219 102.357 99.9219 101.9ZM101.006 101.766V101.9C101.006 102.217 101.043 102.516 101.117 102.797C101.191 103.074 101.303 103.32 101.451 103.535C101.604 103.75 101.793 103.92 102.02 104.045C102.246 104.166 102.51 104.227 102.811 104.227C103.107 104.227 103.367 104.166 103.59 104.045C103.816 103.92 104.004 103.75 104.152 103.535C104.301 103.32 104.412 103.074 104.486 102.797C104.564 102.516 104.604 102.217 104.604 101.9V101.766C104.604 101.453 104.564 101.158 104.486 100.881C104.412 100.6 104.299 100.352 104.146 100.137C103.998 99.918 103.811 99.7461 103.584 99.6211C103.361 99.4961 103.1 99.4336 102.799 99.4336C102.502 99.4336 102.24 99.4961 102.014 99.6211C101.791 99.7461 101.604 99.918 101.451 100.137C101.303 100.352 101.191 100.6 101.117 100.881C101.043 101.158 101.006 101.453 101.006 101.766ZM110.432 103.535V98.6602H111.521V105H110.484L110.432 103.535ZM110.637 102.199L111.088 102.188C111.088 102.609 111.043 103 110.953 103.359C110.867 103.715 110.727 104.023 110.531 104.285C110.336 104.547 110.08 104.752 109.764 104.9C109.447 105.045 109.062 105.117 108.609 105.117C108.301 105.117 108.018 105.072 107.76 104.982C107.506 104.893 107.287 104.754 107.104 104.566C106.92 104.379 106.777 104.135 106.676 103.834C106.578 103.533 106.529 103.172 106.529 102.75V98.6602H107.613V102.762C107.613 103.047 107.645 103.283 107.707 103.471C107.773 103.654 107.861 103.801 107.971 103.91C108.084 104.016 108.209 104.09 108.346 104.133C108.486 104.176 108.631 104.197 108.779 104.197C109.24 104.197 109.605 104.109 109.875 103.934C110.145 103.754 110.338 103.514 110.455 103.213C110.576 102.908 110.637 102.57 110.637 102.199ZM118.889 103.916V100.652C118.889 100.402 118.838 100.186 118.736 100.002C118.639 99.8145 118.49 99.6699 118.291 99.5684C118.092 99.4668 117.846 99.416 117.553 99.416C117.279 99.416 117.039 99.4629 116.832 99.5566C116.629 99.6504 116.469 99.7734 116.352 99.9258C116.238 100.078 116.182 100.242 116.182 100.418H115.098C115.098 100.191 115.156 99.9668 115.273 99.7441C115.391 99.5215 115.559 99.3203 115.777 99.1406C116 98.957 116.266 98.8125 116.574 98.707C116.887 98.5977 117.234 98.543 117.617 98.543C118.078 98.543 118.484 98.6211 118.836 98.7773C119.191 98.9336 119.469 99.1699 119.668 99.4863C119.871 99.7988 119.973 100.191 119.973 100.664V103.617C119.973 103.828 119.99 104.053 120.025 104.291C120.064 104.529 120.121 104.734 120.195 104.906V105H119.064C119.01 104.875 118.967 104.709 118.936 104.502C118.904 104.291 118.889 104.096 118.889 103.916ZM119.076 101.156L119.088 101.918H117.992C117.684 101.918 117.408 101.943 117.166 101.994C116.924 102.041 116.721 102.113 116.557 102.211C116.393 102.309 116.268 102.432 116.182 102.58C116.096 102.725 116.053 102.895 116.053 103.09C116.053 103.289 116.098 103.471 116.188 103.635C116.277 103.799 116.412 103.93 116.592 104.027C116.775 104.121 117 104.168 117.266 104.168C117.598 104.168 117.891 104.098 118.145 103.957C118.398 103.816 118.6 103.645 118.748 103.441C118.9 103.238 118.982 103.041 118.994 102.85L119.457 103.371C119.43 103.535 119.355 103.717 119.234 103.916C119.113 104.115 118.951 104.307 118.748 104.49C118.549 104.67 118.311 104.82 118.033 104.941C117.76 105.059 117.451 105.117 117.107 105.117C116.678 105.117 116.301 105.033 115.977 104.865C115.656 104.697 115.406 104.473 115.227 104.191C115.051 103.906 114.963 103.588 114.963 103.236C114.963 102.896 115.029 102.598 115.162 102.34C115.295 102.078 115.486 101.861 115.736 101.689C115.986 101.514 116.287 101.381 116.639 101.291C116.99 101.201 117.383 101.156 117.816 101.156H119.076ZM122.262 99.6562V105H121.178V98.6602H122.232L122.262 99.6562ZM124.242 98.625L124.236 99.6328C124.146 99.6133 124.061 99.6016 123.979 99.5977C123.9 99.5898 123.811 99.5859 123.709 99.5859C123.459 99.5859 123.238 99.625 123.047 99.7031C122.855 99.7812 122.693 99.8906 122.561 100.031C122.428 100.172 122.322 100.34 122.244 100.535C122.17 100.727 122.121 100.938 122.098 101.168L121.793 101.344C121.793 100.961 121.83 100.602 121.904 100.266C121.982 99.9297 122.102 99.6328 122.262 99.375C122.422 99.1133 122.625 98.9102 122.871 98.7656C123.121 98.6172 123.418 98.543 123.762 98.543C123.84 98.543 123.93 98.5527 124.031 98.5723C124.133 98.5879 124.203 98.6055 124.242 98.625ZM127.258 105.117C126.816 105.117 126.416 105.043 126.057 104.895C125.701 104.742 125.395 104.529 125.137 104.256C124.883 103.982 124.688 103.658 124.551 103.283C124.414 102.908 124.346 102.498 124.346 102.053V101.807C124.346 101.291 124.422 100.832 124.574 100.43C124.727 100.023 124.934 99.6797 125.195 99.3984C125.457 99.1172 125.754 98.9043 126.086 98.7598C126.418 98.6152 126.762 98.543 127.117 98.543C127.57 98.543 127.961 98.6211 128.289 98.7773C128.621 98.9336 128.893 99.1523 129.104 99.4336C129.314 99.7109 129.471 100.039 129.572 100.418C129.674 100.793 129.725 101.203 129.725 101.648V102.135H124.99V101.25H128.641V101.168C128.625 100.887 128.566 100.613 128.465 100.348C128.367 100.082 128.211 99.8633 127.996 99.6914C127.781 99.5195 127.488 99.4336 127.117 99.4336C126.871 99.4336 126.645 99.4863 126.438 99.5918C126.23 99.6934 126.053 99.8457 125.904 100.049C125.756 100.252 125.641 100.5 125.559 100.793C125.477 101.086 125.436 101.424 125.436 101.807V102.053C125.436 102.354 125.477 102.637 125.559 102.902C125.645 103.164 125.768 103.395 125.928 103.594C126.092 103.793 126.289 103.949 126.52 104.062C126.754 104.176 127.02 104.232 127.316 104.232C127.699 104.232 128.023 104.154 128.289 103.998C128.555 103.842 128.787 103.633 128.986 103.371L129.643 103.893C129.506 104.1 129.332 104.297 129.121 104.484C128.91 104.672 128.65 104.824 128.342 104.941C128.037 105.059 127.676 105.117 127.258 105.117ZM134.051 100.014V105H132.967V98.6602H133.992L134.051 100.014ZM133.793 101.59L133.342 101.572C133.346 101.139 133.41 100.738 133.535 100.371C133.66 100 133.836 99.6777 134.062 99.4043C134.289 99.1309 134.559 98.9199 134.871 98.7715C135.188 98.6191 135.537 98.543 135.92 98.543C136.232 98.543 136.514 98.5859 136.764 98.6719C137.014 98.7539 137.227 98.8867 137.402 99.0703C137.582 99.2539 137.719 99.4922 137.812 99.7852C137.906 100.074 137.953 100.428 137.953 100.846V105H136.863V100.834C136.863 100.502 136.814 100.236 136.717 100.037C136.619 99.834 136.477 99.6875 136.289 99.5977C136.102 99.5039 135.871 99.457 135.598 99.457C135.328 99.457 135.082 99.5137 134.859 99.627C134.641 99.7402 134.451 99.8965 134.291 100.096C134.135 100.295 134.012 100.523 133.922 100.781C133.836 101.035 133.793 101.305 133.793 101.59ZM138.812 101.9V101.766C138.812 101.309 138.879 100.885 139.012 100.494C139.145 100.1 139.336 99.7578 139.586 99.4688C139.836 99.1758 140.139 98.9492 140.494 98.7891C140.85 98.625 141.248 98.543 141.689 98.543C142.135 98.543 142.535 98.625 142.891 98.7891C143.25 98.9492 143.555 99.1758 143.805 99.4688C144.059 99.7578 144.252 100.1 144.385 100.494C144.518 100.885 144.584 101.309 144.584 101.766V101.9C144.584 102.357 144.518 102.781 144.385 103.172C144.252 103.562 144.059 103.904 143.805 104.197C143.555 104.486 143.252 104.713 142.896 104.877C142.545 105.037 142.146 105.117 141.701 105.117C141.256 105.117 140.855 105.037 140.5 104.877C140.145 104.713 139.84 104.486 139.586 104.197C139.336 103.904 139.145 103.562 139.012 103.172C138.879 102.781 138.812 102.357 138.812 101.9ZM139.896 101.766V101.9C139.896 102.217 139.934 102.516 140.008 102.797C140.082 103.074 140.193 103.32 140.342 103.535C140.494 103.75 140.684 103.92 140.91 104.045C141.137 104.166 141.4 104.227 141.701 104.227C141.998 104.227 142.258 104.166 142.48 104.045C142.707 103.92 142.895 103.75 143.043 103.535C143.191 103.32 143.303 103.074 143.377 102.797C143.455 102.516 143.494 102.217 143.494 101.9V101.766C143.494 101.453 143.455 101.158 143.377 100.881C143.303 100.6 143.189 100.352 143.037 100.137C142.889 99.918 142.701 99.7461 142.475 99.6211C142.252 99.4961 141.99 99.4336 141.689 99.4336C141.393 99.4336 141.131 99.4961 140.904 99.6211C140.682 99.7461 140.494 99.918 140.342 100.137C140.193 100.352 140.082 100.6 140.008 100.881C139.934 101.158 139.896 101.453 139.896 101.766ZM148.098 98.6602V99.4922H144.67V98.6602H148.098ZM145.83 97.1191H146.914V103.43C146.914 103.645 146.947 103.807 147.014 103.916C147.08 104.025 147.166 104.098 147.271 104.133C147.377 104.168 147.49 104.186 147.611 104.186C147.701 104.186 147.795 104.178 147.893 104.162C147.994 104.143 148.07 104.127 148.121 104.115L148.127 105C148.041 105.027 147.928 105.053 147.787 105.076C147.65 105.104 147.484 105.117 147.289 105.117C147.023 105.117 146.779 105.064 146.557 104.959C146.334 104.854 146.156 104.678 146.023 104.432C145.895 104.182 145.83 103.846 145.83 103.424V97.1191ZM155.084 103.916V100.652C155.084 100.402 155.033 100.186 154.932 100.002C154.834 99.8145 154.686 99.6699 154.486 99.5684C154.287 99.4668 154.041 99.416 153.748 99.416C153.475 99.416 153.234 99.4629 153.027 99.5566C152.824 99.6504 152.664 99.7734 152.547 99.9258C152.434 100.078 152.377 100.242 152.377 100.418H151.293C151.293 100.191 151.352 99.9668 151.469 99.7441C151.586 99.5215 151.754 99.3203 151.973 99.1406C152.195 98.957 152.461 98.8125 152.77 98.707C153.082 98.5977 153.43 98.543 153.812 98.543C154.273 98.543 154.68 98.6211 155.031 98.7773C155.387 98.9336 155.664 99.1699 155.863 99.4863C156.066 99.7988 156.168 100.191 156.168 100.664V103.617C156.168 103.828 156.186 104.053 156.221 104.291C156.26 104.529 156.316 104.734 156.391 104.906V105H155.26C155.205 104.875 155.162 104.709 155.131 104.502C155.1 104.291 155.084 104.096 155.084 103.916ZM155.271 101.156L155.283 101.918H154.188C153.879 101.918 153.604 101.943 153.361 101.994C153.119 102.041 152.916 102.113 152.752 102.211C152.588 102.309 152.463 102.432 152.377 102.58C152.291 102.725 152.248 102.895 152.248 103.09C152.248 103.289 152.293 103.471 152.383 103.635C152.473 103.799 152.607 103.93 152.787 104.027C152.971 104.121 153.195 104.168 153.461 104.168C153.793 104.168 154.086 104.098 154.34 103.957C154.594 103.816 154.795 103.645 154.943 103.441C155.096 103.238 155.178 103.041 155.189 102.85L155.652 103.371C155.625 103.535 155.551 103.717 155.43 103.916C155.309 104.115 155.146 104.307 154.943 104.49C154.744 104.67 154.506 104.82 154.229 104.941C153.955 105.059 153.646 105.117 153.303 105.117C152.873 105.117 152.496 105.033 152.172 104.865C151.852 104.697 151.602 104.473 151.422 104.191C151.246 103.906 151.158 103.588 151.158 103.236C151.158 102.896 151.225 102.598 151.357 102.34C151.49 102.078 151.682 101.861 151.932 101.689C152.182 101.514 152.482 101.381 152.834 101.291C153.186 101.201 153.578 101.156 154.012 101.156H155.271ZM160.934 99.6562V105H159.85V98.6602H160.904L160.934 99.6562ZM162.914 98.625L162.908 99.6328C162.818 99.6133 162.732 99.6016 162.65 99.5977C162.572 99.5898 162.482 99.5859 162.381 99.5859C162.131 99.5859 161.91 99.625 161.719 99.7031C161.527 99.7812 161.365 99.8906 161.232 100.031C161.1 100.172 160.994 100.34 160.916 100.535C160.842 100.727 160.793 100.938 160.77 101.168L160.465 101.344C160.465 100.961 160.502 100.602 160.576 100.266C160.654 99.9297 160.773 99.6328 160.934 99.375C161.094 99.1133 161.297 98.9102 161.543 98.7656C161.793 98.6172 162.09 98.543 162.434 98.543C162.512 98.543 162.602 98.5527 162.703 98.5723C162.805 98.5879 162.875 98.6055 162.914 98.625ZM163.012 101.9V101.766C163.012 101.309 163.078 100.885 163.211 100.494C163.344 100.1 163.535 99.7578 163.785 99.4688C164.035 99.1758 164.338 98.9492 164.693 98.7891C165.049 98.625 165.447 98.543 165.889 98.543C166.334 98.543 166.734 98.625 167.09 98.7891C167.449 98.9492 167.754 99.1758 168.004 99.4688C168.258 99.7578 168.451 100.1 168.584 100.494C168.717 100.885 168.783 101.309 168.783 101.766V101.9C168.783 102.357 168.717 102.781 168.584 103.172C168.451 103.562 168.258 103.904 168.004 104.197C167.754 104.486 167.451 104.713 167.096 104.877C166.744 105.037 166.346 105.117 165.9 105.117C165.455 105.117 165.055 105.037 164.699 104.877C164.344 104.713 164.039 104.486 163.785 104.197C163.535 103.904 163.344 103.562 163.211 103.172C163.078 102.781 163.012 102.357 163.012 101.9ZM164.096 101.766V101.9C164.096 102.217 164.133 102.516 164.207 102.797C164.281 103.074 164.393 103.32 164.541 103.535C164.693 103.75 164.883 103.92 165.109 104.045C165.336 104.166 165.6 104.227 165.9 104.227C166.197 104.227 166.457 104.166 166.68 104.045C166.906 103.92 167.094 103.75 167.242 103.535C167.391 103.32 167.502 103.074 167.576 102.797C167.654 102.516 167.693 102.217 167.693 101.9V101.766C167.693 101.453 167.654 101.158 167.576 100.881C167.502 100.6 167.389 100.352 167.236 100.137C167.088 99.918 166.9 99.7461 166.674 99.6211C166.451 99.4961 166.189 99.4336 165.889 99.4336C165.592 99.4336 165.33 99.4961 165.104 99.6211C164.881 99.7461 164.693 99.918 164.541 100.137C164.393 100.352 164.281 100.6 164.207 100.881C164.133 101.158 164.096 101.453 164.096 101.766ZM169.637 96H170.727V103.77L170.633 105H169.637V96ZM175.01 101.777V101.9C175.01 102.361 174.955 102.789 174.846 103.184C174.736 103.574 174.576 103.914 174.365 104.203C174.154 104.492 173.896 104.717 173.592 104.877C173.287 105.037 172.938 105.117 172.543 105.117C172.141 105.117 171.787 105.049 171.482 104.912C171.182 104.771 170.928 104.57 170.721 104.309C170.514 104.047 170.348 103.73 170.223 103.359C170.102 102.988 170.018 102.57 169.971 102.105V101.566C170.018 101.098 170.102 100.678 170.223 100.307C170.348 99.9355 170.514 99.6191 170.721 99.3574C170.928 99.0918 171.182 98.8906 171.482 98.7539C171.783 98.6133 172.133 98.543 172.531 98.543C172.93 98.543 173.283 98.6211 173.592 98.7773C173.9 98.9297 174.158 99.1484 174.365 99.4336C174.576 99.7188 174.736 100.061 174.846 100.459C174.955 100.854 175.01 101.293 175.01 101.777ZM173.92 101.9V101.777C173.92 101.461 173.891 101.164 173.832 100.887C173.773 100.605 173.68 100.359 173.551 100.148C173.422 99.9336 173.252 99.7656 173.041 99.6445C172.83 99.5195 172.57 99.457 172.262 99.457C171.988 99.457 171.75 99.5039 171.547 99.5977C171.348 99.6914 171.178 99.8184 171.037 99.9785C170.896 100.135 170.781 100.314 170.691 100.518C170.605 100.717 170.541 100.924 170.498 101.139V102.551C170.561 102.824 170.662 103.088 170.803 103.342C170.947 103.592 171.139 103.797 171.377 103.957C171.619 104.117 171.918 104.197 172.273 104.197C172.566 104.197 172.816 104.139 173.023 104.021C173.234 103.9 173.404 103.734 173.533 103.523C173.666 103.312 173.764 103.068 173.826 102.791C173.889 102.514 173.92 102.217 173.92 101.9ZM175.594 101.9V101.766C175.594 101.309 175.66 100.885 175.793 100.494C175.926 100.1 176.117 99.7578 176.367 99.4688C176.617 99.1758 176.92 98.9492 177.275 98.7891C177.631 98.625 178.029 98.543 178.471 98.543C178.916 98.543 179.316 98.625 179.672 98.7891C180.031 98.9492 180.336 99.1758 180.586 99.4688C180.84 99.7578 181.033 100.1 181.166 100.494C181.299 100.885 181.365 101.309 181.365 101.766V101.9C181.365 102.357 181.299 102.781 181.166 103.172C181.033 103.562 180.84 103.904 180.586 104.197C180.336 104.486 180.033 104.713 179.678 104.877C179.326 105.037 178.928 105.117 178.482 105.117C178.037 105.117 177.637 105.037 177.281 104.877C176.926 104.713 176.621 104.486 176.367 104.197C176.117 103.904 175.926 103.562 175.793 103.172C175.66 102.781 175.594 102.357 175.594 101.9ZM176.678 101.766V101.9C176.678 102.217 176.715 102.516 176.789 102.797C176.863 103.074 176.975 103.32 177.123 103.535C177.275 103.75 177.465 103.92 177.691 104.045C177.918 104.166 178.182 104.227 178.482 104.227C178.779 104.227 179.039 104.166 179.262 104.045C179.488 103.92 179.676 103.75 179.824 103.535C179.973 103.32 180.084 103.074 180.158 102.797C180.236 102.516 180.275 102.217 180.275 101.9V101.766C180.275 101.453 180.236 101.158 180.158 100.881C180.084 100.6 179.971 100.352 179.818 100.137C179.67 99.918 179.482 99.7461 179.256 99.6211C179.033 99.4961 178.771 99.4336 178.471 99.4336C178.174 99.4336 177.912 99.4961 177.686 99.6211C177.463 99.7461 177.275 99.918 177.123 100.137C176.975 100.352 176.863 100.6 176.789 100.881C176.715 101.158 176.678 101.453 176.678 101.766ZM184.879 98.6602V99.4922H181.451V98.6602H184.879ZM182.611 97.1191H183.695V103.43C183.695 103.645 183.729 103.807 183.795 103.916C183.861 104.025 183.947 104.098 184.053 104.133C184.158 104.168 184.271 104.186 184.393 104.186C184.482 104.186 184.576 104.178 184.674 104.162C184.775 104.143 184.852 104.127 184.902 104.115L184.908 105C184.822 105.027 184.709 105.053 184.568 105.076C184.432 105.104 184.266 105.117 184.07 105.117C183.805 105.117 183.561 105.064 183.338 104.959C183.115 104.854 182.938 104.678 182.805 104.432C182.676 104.182 182.611 103.846 182.611 103.424V97.1191Z" fill="#FF0101"/>
<g filter="url(#filter0_d_706_261)">
<rect x="9" y="9" width="302" height="74" rx="2" fill="#FAFAFA"/>
<rect x="8.5" y="8.5" width="303" height="75" rx="2.5" stroke="#D6D6D6"/>
<rect x="20" y="33" width="26" height="26" rx="2" fill="white"/>
<rect x="20" y="33" width="26" height="26" rx="2" stroke="#C1C1C1" stroke-width="2"/>
<path d="M61.8438 41.0469V51H60.1279V41.0469H61.8438ZM65.3779 40.5V41.4639C65.3779 41.751 65.3255 42.0495 65.2207 42.3594C65.1204 42.6647 64.9792 42.9587 64.7969 43.2412C64.6146 43.5192 64.4049 43.7607 64.168 43.9658L63.3408 43.4463C63.5277 43.1637 63.6781 42.8652 63.792 42.5508C63.9105 42.2318 63.9697 41.874 63.9697 41.4775V40.5H65.3779ZM68.3447 45.1074V51H66.6973V43.6035H68.249L68.3447 45.1074ZM68.0781 47.0283L67.5176 47.0215C67.5176 46.5111 67.5814 46.0394 67.709 45.6064C67.8366 45.1735 68.0234 44.7975 68.2695 44.4785C68.5156 44.1549 68.821 43.9066 69.1855 43.7334C69.5547 43.5557 69.9808 43.4668 70.4639 43.4668C70.8011 43.4668 71.1087 43.5169 71.3867 43.6172C71.6693 43.7129 71.9131 43.8656 72.1182 44.0752C72.3278 44.2848 72.4873 44.5537 72.5967 44.8818C72.7106 45.21 72.7676 45.6064 72.7676 46.0713V51H71.1201V46.2148C71.1201 45.8548 71.0654 45.5723 70.9561 45.3672C70.8512 45.1621 70.6986 45.0163 70.498 44.9297C70.3021 44.8385 70.0674 44.793 69.7939 44.793C69.484 44.793 69.2197 44.8522 69.001 44.9707C68.7868 45.0892 68.6113 45.251 68.4746 45.4561C68.3379 45.6611 68.2376 45.8981 68.1738 46.167C68.11 46.4359 68.0781 46.723 68.0781 47.0283ZM72.665 46.5908L71.8926 46.7617C71.8926 46.3151 71.9541 45.8936 72.0771 45.4971C72.2048 45.096 72.3893 44.7451 72.6309 44.4443C72.877 44.139 73.18 43.8997 73.54 43.7266C73.9001 43.5534 74.3125 43.4668 74.7773 43.4668C75.1556 43.4668 75.4928 43.5192 75.7891 43.624C76.0898 43.7243 76.3451 43.8838 76.5547 44.1025C76.7643 44.3213 76.9238 44.6061 77.0332 44.957C77.1426 45.3034 77.1973 45.7227 77.1973 46.2148V51H75.543V46.208C75.543 45.8343 75.4883 45.5449 75.3789 45.3398C75.2741 45.1348 75.1237 44.9935 74.9277 44.916C74.7318 44.834 74.4971 44.793 74.2236 44.793C73.9684 44.793 73.7428 44.8408 73.5469 44.9365C73.3555 45.0277 73.1937 45.1576 73.0615 45.3262C72.9294 45.4902 72.8291 45.6794 72.7607 45.8936C72.6969 46.1077 72.665 46.3402 72.665 46.5908ZM84.0127 45.1826V51H82.3652V43.6035H83.917L84.0127 45.1826ZM83.7188 47.0283L83.1855 47.0215C83.1901 46.4974 83.263 46.0166 83.4043 45.5791C83.5501 45.1416 83.7507 44.7656 84.0059 44.4512C84.2656 44.1367 84.5755 43.8952 84.9355 43.7266C85.2956 43.5534 85.6966 43.4668 86.1387 43.4668C86.4941 43.4668 86.8154 43.5169 87.1025 43.6172C87.3942 43.7129 87.6426 43.8701 87.8477 44.0889C88.0573 44.3076 88.2168 44.5924 88.3262 44.9434C88.4355 45.2897 88.4902 45.7158 88.4902 46.2217V51H86.8359V46.2148C86.8359 45.8594 86.7835 45.5791 86.6787 45.374C86.5785 45.1644 86.4303 45.0163 86.2344 44.9297C86.043 44.8385 85.8037 44.793 85.5166 44.793C85.234 44.793 84.9811 44.8522 84.7578 44.9707C84.5345 45.0892 84.3454 45.251 84.1904 45.4561C84.04 45.6611 83.9238 45.8981 83.8418 46.167C83.7598 46.4359 83.7188 46.723 83.7188 47.0283ZM89.8574 47.3838V47.2266C89.8574 46.6934 89.9349 46.1989 90.0898 45.7432C90.2448 45.2829 90.4681 44.8841 90.7598 44.5469C91.056 44.2051 91.416 43.9408 91.8398 43.7539C92.2682 43.5625 92.7513 43.4668 93.2891 43.4668C93.8314 43.4668 94.3145 43.5625 94.7383 43.7539C95.1667 43.9408 95.529 44.2051 95.8252 44.5469C96.1214 44.8841 96.347 45.2829 96.502 45.7432C96.6569 46.1989 96.7344 46.6934 96.7344 47.2266V47.3838C96.7344 47.917 96.6569 48.4115 96.502 48.8672C96.347 49.3229 96.1214 49.7217 95.8252 50.0635C95.529 50.4007 95.1689 50.665 94.7451 50.8564C94.3213 51.0433 93.8405 51.1367 93.3027 51.1367C92.7604 51.1367 92.2751 51.0433 91.8467 50.8564C91.4229 50.665 91.0628 50.4007 90.7666 50.0635C90.4704 49.7217 90.2448 49.3229 90.0898 48.8672C89.9349 48.4115 89.8574 47.917 89.8574 47.3838ZM91.5049 47.2266V47.3838C91.5049 47.7165 91.5391 48.0309 91.6074 48.3271C91.6758 48.6234 91.7829 48.8831 91.9287 49.1064C92.0745 49.3298 92.2614 49.5052 92.4893 49.6328C92.7171 49.7604 92.9883 49.8242 93.3027 49.8242C93.6081 49.8242 93.8724 49.7604 94.0957 49.6328C94.3236 49.5052 94.5104 49.3298 94.6562 49.1064C94.8021 48.8831 94.9092 48.6234 94.9775 48.3271C95.0505 48.0309 95.0869 47.7165 95.0869 47.3838V47.2266C95.0869 46.8984 95.0505 46.5885 94.9775 46.2969C94.9092 46.0007 94.7998 45.7386 94.6494 45.5107C94.5036 45.2829 94.3167 45.1051 94.0889 44.9775C93.8656 44.8454 93.599 44.7793 93.2891 44.7793C92.9792 44.7793 92.7103 44.8454 92.4824 44.9775C92.2591 45.1051 92.0745 45.2829 91.9287 45.5107C91.7829 45.7386 91.6758 46.0007 91.6074 46.2969C91.5391 46.5885 91.5049 46.8984 91.5049 47.2266ZM101.506 43.6035V44.8066H97.3359V43.6035H101.506ZM98.5391 41.792H100.187V48.9561C100.187 49.1839 100.218 49.3594 100.282 49.4824C100.351 49.6009 100.444 49.6807 100.562 49.7217C100.681 49.7627 100.82 49.7832 100.979 49.7832C101.093 49.7832 101.203 49.7764 101.308 49.7627C101.412 49.749 101.497 49.7354 101.561 49.7217L101.567 50.9795C101.431 51.0205 101.271 51.057 101.089 51.0889C100.911 51.1208 100.706 51.1367 100.474 51.1367C100.095 51.1367 99.7604 51.0706 99.4688 50.9385C99.1771 50.8018 98.9492 50.5807 98.7852 50.2754C98.6211 49.9701 98.5391 49.5645 98.5391 49.0586V41.792ZM110.434 49.5166V45.9893C110.434 45.7249 110.386 45.4971 110.29 45.3057C110.194 45.1143 110.049 44.9661 109.853 44.8613C109.661 44.7565 109.42 44.7041 109.128 44.7041C108.859 44.7041 108.627 44.7497 108.431 44.8408C108.235 44.932 108.082 45.055 107.973 45.21C107.863 45.3649 107.809 45.5404 107.809 45.7363H106.168C106.168 45.4447 106.239 45.1621 106.38 44.8887C106.521 44.6152 106.726 44.3714 106.995 44.1572C107.264 43.943 107.585 43.7744 107.959 43.6514C108.333 43.5283 108.752 43.4668 109.217 43.4668C109.773 43.4668 110.265 43.5602 110.693 43.7471C111.126 43.9339 111.466 44.2165 111.712 44.5947C111.963 44.9684 112.088 45.4378 112.088 46.0029V49.291C112.088 49.6283 112.111 49.9313 112.156 50.2002C112.206 50.4645 112.277 50.6947 112.368 50.8906V51H110.68C110.602 50.8223 110.541 50.5967 110.495 50.3232C110.454 50.0452 110.434 49.7764 110.434 49.5166ZM110.673 46.502L110.687 47.5205H109.504C109.199 47.5205 108.93 47.5501 108.697 47.6094C108.465 47.6641 108.271 47.7461 108.116 47.8555C107.961 47.9648 107.845 48.097 107.768 48.252C107.69 48.4069 107.651 48.5824 107.651 48.7783C107.651 48.9743 107.697 49.1543 107.788 49.3184C107.879 49.4779 108.011 49.6032 108.185 49.6943C108.362 49.7855 108.576 49.8311 108.827 49.8311C109.164 49.8311 109.458 49.7627 109.709 49.626C109.964 49.4847 110.165 49.3138 110.311 49.1133C110.456 48.9082 110.534 48.7145 110.543 48.5322L111.076 49.2637C111.021 49.4505 110.928 49.651 110.796 49.8652C110.664 50.0794 110.491 50.2845 110.276 50.4805C110.067 50.6719 109.814 50.8291 109.518 50.9521C109.226 51.0752 108.889 51.1367 108.506 51.1367C108.023 51.1367 107.592 51.041 107.214 50.8496C106.836 50.6536 106.539 50.3916 106.325 50.0635C106.111 49.7308 106.004 49.3548 106.004 48.9355C106.004 48.5436 106.077 48.1973 106.223 47.8965C106.373 47.5911 106.592 47.3359 106.879 47.1309C107.171 46.9258 107.526 46.7708 107.945 46.666C108.365 46.5566 108.843 46.502 109.381 46.502H110.673ZM118.951 45.0117V51H117.304V43.6035H118.876L118.951 45.0117ZM121.214 43.5557L121.2 45.0869C121.1 45.0687 120.991 45.055 120.872 45.0459C120.758 45.0368 120.644 45.0322 120.53 45.0322C120.248 45.0322 119.999 45.0732 119.785 45.1553C119.571 45.2327 119.391 45.3467 119.245 45.4971C119.104 45.6429 118.994 45.8206 118.917 46.0303C118.84 46.2399 118.794 46.4746 118.78 46.7344L118.404 46.7617C118.404 46.2969 118.45 45.8662 118.541 45.4697C118.632 45.0732 118.769 44.7246 118.951 44.4238C119.138 44.123 119.37 43.8883 119.648 43.7197C119.931 43.5511 120.257 43.4668 120.626 43.4668C120.726 43.4668 120.833 43.4759 120.947 43.4941C121.066 43.5124 121.155 43.5329 121.214 43.5557ZM121.754 47.3838V47.2266C121.754 46.6934 121.831 46.1989 121.986 45.7432C122.141 45.2829 122.365 44.8841 122.656 44.5469C122.952 44.2051 123.312 43.9408 123.736 43.7539C124.165 43.5625 124.648 43.4668 125.186 43.4668C125.728 43.4668 126.211 43.5625 126.635 43.7539C127.063 43.9408 127.425 44.2051 127.722 44.5469C128.018 44.8841 128.243 45.2829 128.398 45.7432C128.553 46.1989 128.631 46.6934 128.631 47.2266V47.3838C128.631 47.917 128.553 48.4115 128.398 48.8672C128.243 49.3229 128.018 49.7217 127.722 50.0635C127.425 50.4007 127.065 50.665 126.642 50.8564C126.218 51.0433 125.737 51.1367 125.199 51.1367C124.657 51.1367 124.172 51.0433 123.743 50.8564C123.319 50.665 122.959 50.4007 122.663 50.0635C122.367 49.7217 122.141 49.3229 121.986 48.8672C121.831 48.4115 121.754 47.917 121.754 47.3838ZM123.401 47.2266V47.3838C123.401 47.7165 123.436 48.0309 123.504 48.3271C123.572 48.6234 123.679 48.8831 123.825 49.1064C123.971 49.3298 124.158 49.5052 124.386 49.6328C124.614 49.7604 124.885 49.8242 125.199 49.8242C125.505 49.8242 125.769 49.7604 125.992 49.6328C126.22 49.5052 126.407 49.3298 126.553 49.1064C126.699 48.8831 126.806 48.6234 126.874 48.3271C126.947 48.0309 126.983 47.7165 126.983 47.3838V47.2266C126.983 46.8984 126.947 46.5885 126.874 46.2969C126.806 46.0007 126.696 45.7386 126.546 45.5107C126.4 45.2829 126.213 45.1051 125.985 44.9775C125.762 44.8454 125.495 44.7793 125.186 44.7793C124.876 44.7793 124.607 44.8454 124.379 44.9775C124.156 45.1051 123.971 45.2829 123.825 45.5107C123.679 45.7386 123.572 46.0007 123.504 46.2969C123.436 46.5885 123.401 46.8984 123.401 47.2266ZM130.019 40.5H131.666V49.4209L131.509 51H130.019V40.5ZM136.492 47.2334V47.377C136.492 47.9238 136.431 48.4274 136.308 48.8877C136.189 49.3434 136.007 49.7399 135.761 50.0771C135.519 50.4144 135.218 50.6764 134.858 50.8633C134.503 51.0456 134.09 51.1367 133.621 51.1367C133.161 51.1367 132.76 51.0501 132.418 50.877C132.076 50.7038 131.789 50.4577 131.557 50.1387C131.329 49.8197 131.144 49.4391 131.003 48.9971C130.862 48.555 130.761 48.0674 130.702 47.5342V47.0762C130.761 46.5384 130.862 46.0508 131.003 45.6133C131.144 45.1712 131.329 44.7907 131.557 44.4717C131.789 44.1481 132.074 43.8997 132.411 43.7266C132.753 43.5534 133.152 43.4668 133.607 43.4668C134.081 43.4668 134.498 43.5579 134.858 43.7402C135.223 43.9225 135.526 44.1823 135.768 44.5195C136.009 44.8522 136.189 45.2487 136.308 45.709C136.431 46.1693 136.492 46.6774 136.492 47.2334ZM134.845 47.377V47.2334C134.845 46.9007 134.817 46.5885 134.763 46.2969C134.708 46.0007 134.617 45.7409 134.489 45.5176C134.366 45.2943 134.198 45.1188 133.983 44.9912C133.774 44.859 133.512 44.793 133.197 44.793C132.906 44.793 132.655 44.8431 132.445 44.9434C132.236 45.0436 132.06 45.1803 131.919 45.3535C131.778 45.5267 131.666 45.7272 131.584 45.9551C131.507 46.1829 131.454 46.429 131.427 46.6934V47.9307C131.468 48.2725 131.554 48.5869 131.687 48.874C131.823 49.1566 132.015 49.3844 132.261 49.5576C132.507 49.7262 132.824 49.8105 133.211 49.8105C133.516 49.8105 133.774 49.749 133.983 49.626C134.193 49.5029 134.359 49.332 134.482 49.1133C134.61 48.89 134.701 48.6302 134.756 48.334C134.815 48.0378 134.845 47.7188 134.845 47.377ZM137.572 47.3838V47.2266C137.572 46.6934 137.65 46.1989 137.805 45.7432C137.96 45.2829 138.183 44.8841 138.475 44.5469C138.771 44.2051 139.131 43.9408 139.555 43.7539C139.983 43.5625 140.466 43.4668 141.004 43.4668C141.546 43.4668 142.029 43.5625 142.453 43.7539C142.882 43.9408 143.244 44.2051 143.54 44.5469C143.836 44.8841 144.062 45.2829 144.217 45.7432C144.372 46.1989 144.449 46.6934 144.449 47.2266V47.3838C144.449 47.917 144.372 48.4115 144.217 48.8672C144.062 49.3229 143.836 49.7217 143.54 50.0635C143.244 50.4007 142.884 50.665 142.46 50.8564C142.036 51.0433 141.555 51.1367 141.018 51.1367C140.475 51.1367 139.99 51.0433 139.562 50.8564C139.138 50.665 138.778 50.4007 138.481 50.0635C138.185 49.7217 137.96 49.3229 137.805 48.8672C137.65 48.4115 137.572 47.917 137.572 47.3838ZM139.22 47.2266V47.3838C139.22 47.7165 139.254 48.0309 139.322 48.3271C139.391 48.6234 139.498 48.8831 139.644 49.1064C139.789 49.3298 139.976 49.5052 140.204 49.6328C140.432 49.7604 140.703 49.8242 141.018 49.8242C141.323 49.8242 141.587 49.7604 141.811 49.6328C142.038 49.5052 142.225 49.3298 142.371 49.1064C142.517 48.8831 142.624 48.6234 142.692 48.3271C142.765 48.0309 142.802 47.7165 142.802 47.3838V47.2266C142.802 46.8984 142.765 46.5885 142.692 46.2969C142.624 46.0007 142.515 45.7386 142.364 45.5107C142.218 45.2829 142.032 45.1051 141.804 44.9775C141.58 44.8454 141.314 44.7793 141.004 44.7793C140.694 44.7793 140.425 44.8454 140.197 44.9775C139.974 45.1051 139.789 45.2829 139.644 45.5107C139.498 45.7386 139.391 46.0007 139.322 46.2969C139.254 46.5885 139.22 46.8984 139.22 47.2266ZM149.221 43.6035V44.8066H145.051V43.6035H149.221ZM146.254 41.792H147.901V48.9561C147.901 49.1839 147.933 49.3594 147.997 49.4824C148.065 49.6009 148.159 49.6807 148.277 49.7217C148.396 49.7627 148.535 49.7832 148.694 49.7832C148.808 49.7832 148.918 49.7764 149.022 49.7627C149.127 49.749 149.212 49.7354 149.275 49.7217L149.282 50.9795C149.146 51.0205 148.986 51.057 148.804 51.0889C148.626 51.1208 148.421 51.1367 148.188 51.1367C147.81 51.1367 147.475 51.0706 147.184 50.9385C146.892 50.8018 146.664 50.5807 146.5 50.2754C146.336 49.9701 146.254 49.5645 146.254 49.0586V41.792Z" fill="black"/>
<g clip-path="url(#clip0_706_261)">
<path d="M288.306 33.2122C288.305 32.9873 288.3 32.7637 288.29 32.5411V19.8511L284.782 23.3594C281.911 19.8448 277.543 17.6 272.65 17.6C267.558 17.6 263.035 20.0303 260.176 23.7939L265.926 29.6049C266.49 28.5626 267.29 27.6675 268.256 26.9914C269.26 26.2079 270.682 25.5674 272.65 25.5674C272.888 25.5674 273.071 25.5951 273.206 25.6475C275.644 25.8399 277.757 27.1854 279.001 29.1382L274.931 33.2087C280.087 33.1885 285.911 33.1766 288.306 33.2113" fill="#1C3AA9"/>
<path d="M272.559 17.6005C272.334 17.6013 272.11 17.6065 271.887 17.6165H259.197L262.706 21.1248C259.191 23.9961 256.946 28.3641 256.946 33.2566C256.946 38.3482 259.377 42.8715 263.14 45.7308L268.951 39.9804C267.909 39.4168 267.014 38.6162 266.338 37.651C265.554 36.647 264.914 35.2245 264.914 33.2568C264.914 33.0191 264.941 32.8356 264.994 32.7008C265.186 30.2628 266.532 28.1495 268.485 26.9052L272.555 30.9756C272.535 25.8199 272.523 19.9955 272.558 17.601" fill="#4285F4"/>
<path d="M256.947 33.2563C256.948 33.4812 256.953 33.7048 256.963 33.9274V46.6174L260.471 43.1091C263.342 46.6237 267.71 48.8685 272.603 48.8685C277.694 48.8685 282.218 46.4382 285.077 42.6746L279.327 36.8636C278.763 37.9059 277.963 38.801 276.997 39.4771C275.993 40.2606 274.571 40.9011 272.603 40.9011C272.365 40.9011 272.182 40.8734 272.047 40.821C269.609 40.6286 267.496 39.2831 266.252 37.3303L270.322 33.2598C265.166 33.28 259.342 33.2919 256.947 33.2572" fill="#ABABAB"/>
<path d="M259.589 54.9316C259.207 54.9316 258.865 55.0039 258.563 55.1486C258.26 55.2899 258.004 55.4921 257.794 55.7551C257.586 56.0181 257.427 56.337 257.315 56.7118C257.207 57.0833 257.152 57.4992 257.152 57.9594V59.2859C257.152 59.7495 257.207 60.167 257.315 60.5385C257.427 60.91 257.585 61.2272 257.789 61.4902C257.992 61.7533 258.239 61.9554 258.528 62.0968C258.818 62.2382 259.143 62.3089 259.505 62.3089C259.876 62.3089 260.202 62.2546 260.481 62.1461C260.764 62.0376 261.001 61.8815 261.191 61.6777C261.382 61.4705 261.528 61.2207 261.63 60.9281C261.735 60.6355 261.798 60.3035 261.818 59.9319H260.905C260.882 60.218 260.843 60.4629 260.787 60.6667C260.731 60.8672 260.649 61.0333 260.54 61.1648C260.435 61.293 260.297 61.3883 260.126 61.4508C259.958 61.51 259.751 61.5396 259.505 61.5396C259.242 61.5396 259.018 61.482 258.834 61.367C258.65 61.2486 258.5 61.0875 258.385 60.8837C258.274 60.6798 258.191 60.4415 258.139 60.1686C258.089 59.8958 258.065 59.6015 258.065 59.2859V57.9495C258.065 57.6109 258.094 57.3035 258.154 57.0274C258.216 56.7512 258.31 56.5162 258.435 56.3222C258.56 56.1282 258.717 55.9786 258.908 55.8734C259.099 55.7649 259.326 55.7107 259.589 55.7107C259.809 55.7107 259.998 55.7435 260.156 55.8093C260.313 55.8718 260.445 55.9704 260.55 56.1052C260.655 56.2367 260.736 56.4044 260.792 56.6082C260.848 56.812 260.885 57.0553 260.905 57.338H261.818C261.801 56.9501 261.74 56.6065 261.635 56.3074C261.53 56.0082 261.384 55.7567 261.196 55.5529C261.009 55.349 260.78 55.1945 260.511 55.0893C260.244 54.9841 259.937 54.9315 259.589 54.9315L259.589 54.9316ZM281.859 54.9316C281.477 54.9316 281.135 55.0039 280.833 55.1486C280.53 55.2899 280.274 55.4921 280.064 55.7551C279.857 56.0181 279.697 56.337 279.585 56.7118C279.477 57.0833 279.423 57.4992 279.423 57.9594V59.2859C279.423 59.7495 279.477 60.167 279.585 60.5385C279.697 60.91 279.855 61.2272 280.059 61.4902C280.263 61.7533 280.509 61.9554 280.798 62.0968C281.088 62.2382 281.413 62.3089 281.775 62.3089C282.146 62.3089 282.472 62.2546 282.751 62.1461C283.034 62.0376 283.271 61.8815 283.461 61.6777C283.652 61.4705 283.798 61.2207 283.9 60.9281C284.005 60.6355 284.068 60.3035 284.088 59.9319H283.175C283.152 60.218 283.113 60.4629 283.057 60.6667C283.001 60.8672 282.919 61.0333 282.81 61.1648C282.705 61.293 282.567 61.3883 282.396 61.4508C282.229 61.51 282.021 61.5396 281.775 61.5396C281.512 61.5396 281.288 61.482 281.104 61.367C280.92 61.2486 280.77 61.0875 280.655 60.8837C280.544 60.6798 280.461 60.4415 280.409 60.1686C280.36 59.8958 280.335 59.6015 280.335 59.2859V57.9495C280.335 57.6109 280.365 57.3035 280.424 57.0274C280.486 56.7512 280.58 56.5162 280.705 56.3222C280.83 56.1282 280.987 55.9786 281.178 55.8734C281.369 55.7649 281.596 55.7107 281.859 55.7107C282.079 55.7107 282.268 55.7435 282.426 55.8093C282.584 55.8718 282.715 55.9704 282.82 56.1052C282.925 56.2367 283.006 56.4044 283.062 56.6082C283.118 56.812 283.156 57.0553 283.175 57.338H284.088C284.071 56.9501 284.01 56.6065 283.905 56.3074C283.8 56.0082 283.654 55.7567 283.466 55.5529C283.279 55.349 283.05 55.1945 282.781 55.0893C282.515 54.9841 282.207 54.9315 281.859 54.9315L281.859 54.9316ZM264.787 55.0302L262.474 62.2102H263.401L263.958 60.3363H266.384L266.951 62.2102H267.878L265.561 55.0302H264.787ZM268.855 55.0302V62.2102H269.757V59.3993H271.143C271.488 59.3993 271.794 59.3516 272.06 59.2563C272.326 59.1577 272.55 59.0163 272.731 58.8322C272.915 58.6481 273.053 58.4213 273.145 58.1517C273.24 57.8788 273.288 57.5698 273.288 57.2246C273.288 56.9057 273.24 56.6131 273.145 56.3468C273.053 56.0772 272.916 55.8455 272.736 55.6515C272.555 55.4542 272.33 55.3014 272.06 55.1929C271.794 55.0844 271.488 55.0301 271.143 55.0301L268.855 55.0302ZM273.978 55.0302V55.8094H275.862V62.2102H276.765V55.8094H278.653V55.0302H273.978ZM285.306 55.0302V62.2102H286.208V58.8914H289.098V62.2102H290.005V55.0302H289.098V58.1173H286.208V55.0302H285.306ZM293.428 55.0302L291.115 62.2102H292.042L292.599 60.3363H295.025L295.592 62.2102H296.519L294.202 55.0302H293.428ZM269.757 55.8094H271.143C271.363 55.8094 271.55 55.8488 271.705 55.9277C271.863 56.0066 271.991 56.1118 272.09 56.2433C272.191 56.3748 272.265 56.5277 272.311 56.7019C272.361 56.8729 272.385 57.0504 272.385 57.2345C272.385 57.4384 272.361 57.6257 272.311 57.7967C272.265 57.9644 272.191 58.1107 272.09 58.2356C271.991 58.3572 271.863 58.4526 271.705 58.5216C271.55 58.5906 271.363 58.6252 271.143 58.6252H269.757V55.8094ZM265.171 56.2927L266.152 59.5572H264.195L265.171 56.2927ZM293.812 56.2927L294.793 59.5572H292.836L293.812 56.2927ZM251.334 56.7759C251.107 56.7759 250.912 56.8335 250.747 56.9485C250.586 57.0636 250.451 57.2198 250.343 57.417L250.328 56.8745H249.48V62.2102H250.353V58.3933C250.435 58.1664 250.552 57.9873 250.703 57.8557C250.858 57.7242 251.053 57.6585 251.29 57.6585C251.365 57.6585 251.433 57.6618 251.492 57.6683C251.551 57.6717 251.615 57.6798 251.684 57.693L251.679 56.8448C251.666 56.8382 251.645 56.8316 251.615 56.8251C251.589 56.8152 251.559 56.8069 251.527 56.8004C251.494 56.7938 251.459 56.7889 251.423 56.7856C251.39 56.779 251.361 56.7757 251.334 56.7757L251.334 56.7759ZM254.268 56.7759C254.015 56.7759 253.77 56.8203 253.534 56.9091C253.297 56.9978 253.086 57.1441 252.902 57.348C252.722 57.5485 252.575 57.8115 252.463 58.137C252.352 58.4592 252.296 58.8553 252.296 59.3254V59.9271C252.296 60.3347 252.343 60.6882 252.439 60.9873C252.534 61.2865 252.671 61.5347 252.848 61.732C253.029 61.9259 253.248 62.0706 253.504 62.1659C253.76 62.2613 254.048 62.3089 254.367 62.3089C254.597 62.3089 254.803 62.2859 254.983 62.2399C255.167 62.1939 255.33 62.1347 255.472 62.0624C255.613 61.9867 255.735 61.9013 255.837 61.8059C255.938 61.7106 256.026 61.612 256.098 61.51L255.644 60.9577C255.572 61.0465 255.495 61.1287 255.412 61.2043C255.33 61.2766 255.24 61.3407 255.141 61.3966C255.043 61.4492 254.934 61.4903 254.816 61.5199C254.697 61.5495 254.564 61.5643 254.416 61.5643C254.012 61.5643 253.701 61.4344 253.484 61.1747C253.271 60.915 253.164 60.4991 253.164 59.9271V59.8038H256.142V59.2959C256.142 58.8882 256.108 58.5282 256.039 58.2159C255.97 57.9036 255.86 57.6406 255.708 57.4269C255.557 57.2132 255.363 57.0521 255.126 56.9436C254.89 56.8318 254.604 56.7759 254.268 56.7759L254.268 56.7759ZM254.268 57.5255C254.459 57.5255 254.617 57.56 254.742 57.6291C254.867 57.6981 254.965 57.7951 255.038 57.92C255.113 58.0449 255.167 58.1945 255.2 58.3688C255.237 58.5397 255.26 58.7288 255.269 58.9359V59.0542H253.169C253.182 58.755 253.218 58.5068 253.277 58.3096C253.336 58.1123 253.414 57.9561 253.509 57.8411C253.608 57.7228 253.721 57.6406 253.849 57.5945C253.977 57.5485 254.117 57.5255 254.268 57.5255L254.268 57.5255Z" fill="#A6A6A6"/>
</g>
<path d="M247.98 71.8789H246.5V71.1016H247.98C248.238 71.1016 248.447 71.0599 248.605 70.9766C248.764 70.8932 248.88 70.7786 248.953 70.6328C249.029 70.4844 249.066 70.3151 249.066 70.125C249.066 69.9453 249.029 69.7773 248.953 69.6211C248.88 69.4622 248.764 69.3346 248.605 69.2383C248.447 69.1419 248.238 69.0938 247.98 69.0938H246.801V74H245.82V68.3125H247.98C248.421 68.3125 248.794 68.3906 249.102 68.5469C249.411 68.7005 249.647 68.9141 249.809 69.1875C249.97 69.4583 250.051 69.7682 250.051 70.1172C250.051 70.4844 249.97 70.7995 249.809 71.0625C249.647 71.3255 249.411 71.5273 249.102 71.668C248.794 71.8086 248.421 71.8789 247.98 71.8789ZM251.781 70.5781V74H250.84V69.7734H251.738L251.781 70.5781ZM253.074 69.7461L253.066 70.6211C253.009 70.6107 252.947 70.6029 252.879 70.5977C252.814 70.5924 252.749 70.5898 252.684 70.5898C252.522 70.5898 252.38 70.6133 252.258 70.6602C252.135 70.7044 252.033 70.7695 251.949 70.8555C251.868 70.9388 251.806 71.0404 251.762 71.1602C251.717 71.2799 251.691 71.4141 251.684 71.5625L251.469 71.5781C251.469 71.3125 251.495 71.0664 251.547 70.8398C251.599 70.6133 251.677 70.4141 251.781 70.2422C251.888 70.0703 252.021 69.9362 252.18 69.8398C252.341 69.7435 252.527 69.6953 252.738 69.6953C252.796 69.6953 252.857 69.7005 252.922 69.7109C252.99 69.7214 253.04 69.7331 253.074 69.7461ZM254.672 69.7734V74H253.727V69.7734H254.672ZM253.664 68.6641C253.664 68.5208 253.711 68.4023 253.805 68.3086C253.901 68.2122 254.034 68.1641 254.203 68.1641C254.37 68.1641 254.501 68.2122 254.598 68.3086C254.694 68.4023 254.742 68.5208 254.742 68.6641C254.742 68.8047 254.694 68.9219 254.598 69.0156C254.501 69.1094 254.37 69.1562 254.203 69.1562C254.034 69.1562 253.901 69.1094 253.805 69.0156C253.711 68.9219 253.664 68.8047 253.664 68.6641ZM257.078 73.2539L258.113 69.7734H259.09L257.621 74H257.012L257.078 73.2539ZM256.285 69.7734L257.34 73.2695L257.391 74H256.781L255.305 69.7734H256.285ZM261.992 73.1523V71.1367C261.992 70.9857 261.965 70.8555 261.91 70.7461C261.855 70.6367 261.772 70.5521 261.66 70.4922C261.551 70.4323 261.413 70.4023 261.246 70.4023C261.092 70.4023 260.96 70.4284 260.848 70.4805C260.736 70.5326 260.648 70.6029 260.586 70.6914C260.523 70.7799 260.492 70.8802 260.492 70.9922H259.555C259.555 70.8255 259.595 70.6641 259.676 70.5078C259.757 70.3516 259.874 70.2122 260.027 70.0898C260.181 69.9674 260.365 69.8711 260.578 69.8008C260.792 69.7305 261.031 69.6953 261.297 69.6953C261.615 69.6953 261.896 69.7487 262.141 69.8555C262.388 69.9622 262.582 70.1237 262.723 70.3398C262.866 70.5534 262.938 70.8216 262.938 71.1445V73.0234C262.938 73.2161 262.951 73.3893 262.977 73.543C263.005 73.694 263.046 73.8255 263.098 73.9375V74H262.133C262.089 73.8984 262.053 73.7695 262.027 73.6133C262.004 73.4544 261.992 73.3008 261.992 73.1523ZM262.129 71.4297L262.137 72.0117H261.461C261.286 72.0117 261.133 72.0286 261 72.0625C260.867 72.0938 260.757 72.1406 260.668 72.2031C260.579 72.2656 260.513 72.3411 260.469 72.4297C260.424 72.5182 260.402 72.6185 260.402 72.7305C260.402 72.8424 260.428 72.9453 260.48 73.0391C260.533 73.1302 260.608 73.2018 260.707 73.2539C260.809 73.306 260.931 73.332 261.074 73.332C261.267 73.332 261.435 73.293 261.578 73.2148C261.724 73.1341 261.839 73.0365 261.922 72.9219C262.005 72.8047 262.049 72.694 262.055 72.5898L262.359 73.0078C262.328 73.1146 262.275 73.2292 262.199 73.3516C262.124 73.474 262.025 73.5911 261.902 73.7031C261.783 73.8125 261.638 73.9023 261.469 73.9727C261.302 74.043 261.109 74.0781 260.891 74.0781C260.615 74.0781 260.368 74.0234 260.152 73.9141C259.936 73.8021 259.767 73.6523 259.645 73.4648C259.522 73.2747 259.461 73.0599 259.461 72.8203C259.461 72.5964 259.503 72.3984 259.586 72.2266C259.672 72.0521 259.797 71.9062 259.961 71.7891C260.128 71.6719 260.331 71.5833 260.57 71.5234C260.81 71.4609 261.083 71.4297 261.391 71.4297H262.129ZM265.648 73.3281C265.802 73.3281 265.94 73.2982 266.062 73.2383C266.188 73.1758 266.288 73.0898 266.363 72.9805C266.441 72.8711 266.484 72.7448 266.492 72.6016H267.379C267.374 72.875 267.293 73.1237 267.137 73.3477C266.98 73.5716 266.773 73.75 266.516 73.8828C266.258 74.013 265.973 74.0781 265.66 74.0781C265.337 74.0781 265.056 74.0234 264.816 73.9141C264.577 73.8021 264.378 73.6484 264.219 73.4531C264.06 73.2578 263.94 73.0326 263.859 72.7773C263.781 72.5221 263.742 72.2487 263.742 71.957V71.8203C263.742 71.5286 263.781 71.2552 263.859 71C263.94 70.7422 264.06 70.5156 264.219 70.3203C264.378 70.125 264.577 69.9727 264.816 69.8633C265.056 69.7513 265.336 69.6953 265.656 69.6953C265.995 69.6953 266.292 69.763 266.547 69.8984C266.802 70.0312 267.003 70.2174 267.148 70.457C267.297 70.694 267.374 70.9701 267.379 71.2852H266.492C266.484 71.1289 266.445 70.9883 266.375 70.8633C266.307 70.7357 266.211 70.6341 266.086 70.5586C265.964 70.4831 265.816 70.4453 265.645 70.4453C265.454 70.4453 265.297 70.4844 265.172 70.5625C265.047 70.638 264.949 70.7422 264.879 70.875C264.809 71.0052 264.758 71.1523 264.727 71.3164C264.698 71.4779 264.684 71.6458 264.684 71.8203V71.957C264.684 72.1315 264.698 72.3008 264.727 72.4648C264.755 72.6289 264.805 72.776 264.875 72.9062C264.948 73.0339 265.047 73.1367 265.172 73.2148C265.297 73.2904 265.456 73.3281 265.648 73.3281ZM269.328 73.5391L270.477 69.7734H271.484L269.789 74.6445C269.75 74.7487 269.699 74.862 269.637 74.9844C269.574 75.1068 269.492 75.2227 269.391 75.332C269.292 75.444 269.168 75.5339 269.02 75.6016C268.871 75.6719 268.691 75.707 268.48 75.707C268.397 75.707 268.316 75.6992 268.238 75.6836C268.163 75.6706 268.091 75.6562 268.023 75.6406L268.02 74.9219C268.046 74.9245 268.077 74.9271 268.113 74.9297C268.152 74.9323 268.184 74.9336 268.207 74.9336C268.363 74.9336 268.493 74.9141 268.598 74.875C268.702 74.8385 268.786 74.7786 268.852 74.6953C268.919 74.612 268.977 74.5 269.023 74.3594L269.328 73.5391ZM268.68 69.7734L269.684 72.9375L269.852 73.9297L269.199 74.0977L267.664 69.7734H268.68ZM275.91 71.1953V71.9453H273.844V71.1953H275.91ZM280.973 68.3125V74H280V68.3125H280.973ZM282.758 68.3125V69.0938H278.23V68.3125H282.758ZM284.902 74.0781C284.59 74.0781 284.307 74.0273 284.055 73.9258C283.805 73.8216 283.591 73.6771 283.414 73.4922C283.24 73.3073 283.105 73.0898 283.012 72.8398C282.918 72.5898 282.871 72.3203 282.871 72.0312V71.875C282.871 71.5443 282.919 71.2448 283.016 70.9766C283.112 70.7083 283.246 70.4792 283.418 70.2891C283.59 70.0964 283.793 69.9492 284.027 69.8477C284.262 69.7461 284.516 69.6953 284.789 69.6953C285.091 69.6953 285.355 69.7461 285.582 69.8477C285.809 69.9492 285.996 70.0924 286.145 70.2773C286.296 70.4596 286.408 70.6771 286.48 70.9297C286.556 71.1823 286.594 71.4609 286.594 71.7656V72.168H283.328V71.4922H285.664V71.418C285.659 71.2487 285.625 71.0898 285.562 70.9414C285.503 70.793 285.41 70.6732 285.285 70.582C285.16 70.4909 284.993 70.4453 284.785 70.4453C284.629 70.4453 284.49 70.4792 284.367 70.5469C284.247 70.612 284.147 70.707 284.066 70.832C283.986 70.957 283.923 71.1081 283.879 71.2852C283.837 71.4596 283.816 71.6562 283.816 71.875V72.0312C283.816 72.2161 283.841 72.388 283.891 72.5469C283.943 72.7031 284.018 72.8398 284.117 72.957C284.216 73.0742 284.336 73.1667 284.477 73.2344C284.617 73.2995 284.777 73.332 284.957 73.332C285.184 73.332 285.385 73.2865 285.562 73.1953C285.74 73.1042 285.893 72.9753 286.023 72.8086L286.52 73.2891C286.428 73.4219 286.31 73.5495 286.164 73.6719C286.018 73.7917 285.84 73.8893 285.629 73.9648C285.421 74.0404 285.178 74.0781 284.902 74.0781ZM288.273 70.5781V74H287.332V69.7734H288.23L288.273 70.5781ZM289.566 69.7461L289.559 70.6211C289.501 70.6107 289.439 70.6029 289.371 70.5977C289.306 70.5924 289.241 70.5898 289.176 70.5898C289.014 70.5898 288.872 70.6133 288.75 70.6602C288.628 70.7044 288.525 70.7695 288.441 70.8555C288.361 70.9388 288.298 71.0404 288.254 71.1602C288.21 71.2799 288.184 71.4141 288.176 71.5625L287.961 71.5781C287.961 71.3125 287.987 71.0664 288.039 70.8398C288.091 70.6133 288.169 70.4141 288.273 70.2422C288.38 70.0703 288.513 69.9362 288.672 69.8398C288.833 69.7435 289.02 69.6953 289.23 69.6953C289.288 69.6953 289.349 69.7005 289.414 69.7109C289.482 69.7214 289.533 69.7331 289.566 69.7461ZM291.098 70.6328V74H290.156V69.7734H291.043L291.098 70.6328ZM290.945 71.7305L290.625 71.7266C290.625 71.4349 290.661 71.1654 290.734 70.918C290.807 70.6706 290.914 70.4557 291.055 70.2734C291.195 70.0885 291.37 69.9466 291.578 69.8477C291.789 69.7461 292.033 69.6953 292.309 69.6953C292.501 69.6953 292.677 69.724 292.836 69.7812C292.997 69.8359 293.137 69.9232 293.254 70.043C293.374 70.1628 293.465 70.3164 293.527 70.5039C293.592 70.6914 293.625 70.918 293.625 71.1836V74H292.684V71.2656C292.684 71.0599 292.652 70.8984 292.59 70.7812C292.53 70.6641 292.443 70.5807 292.328 70.5312C292.216 70.4792 292.082 70.4531 291.926 70.4531C291.749 70.4531 291.598 70.487 291.473 70.5547C291.35 70.6224 291.25 70.7148 291.172 70.832C291.094 70.9492 291.036 71.0846 291 71.2383C290.964 71.3919 290.945 71.556 290.945 71.7305ZM293.566 71.4805L293.125 71.5781C293.125 71.3229 293.16 71.082 293.23 70.8555C293.303 70.6263 293.409 70.4258 293.547 70.2539C293.688 70.0794 293.861 69.9427 294.066 69.8438C294.272 69.7448 294.508 69.6953 294.773 69.6953C294.99 69.6953 295.182 69.7253 295.352 69.7852C295.523 69.8424 295.669 69.9336 295.789 70.0586C295.909 70.1836 296 70.3464 296.062 70.5469C296.125 70.7448 296.156 70.9844 296.156 71.2656V74H295.211V71.2617C295.211 71.0482 295.18 70.8828 295.117 70.7656C295.057 70.6484 294.971 70.5677 294.859 70.5234C294.747 70.4766 294.613 70.4531 294.457 70.4531C294.311 70.4531 294.182 70.4805 294.07 70.5352C293.961 70.5872 293.868 70.6615 293.793 70.7578C293.717 70.8516 293.66 70.9596 293.621 71.082C293.585 71.2044 293.566 71.3372 293.566 71.4805ZM299.496 72.8555C299.496 72.7617 299.473 72.6771 299.426 72.6016C299.379 72.5234 299.289 72.4531 299.156 72.3906C299.026 72.3281 298.833 72.2708 298.578 72.2188C298.354 72.1693 298.148 72.1107 297.961 72.043C297.776 71.9727 297.617 71.888 297.484 71.7891C297.352 71.6901 297.249 71.5729 297.176 71.4375C297.103 71.3021 297.066 71.1458 297.066 70.9688C297.066 70.7969 297.104 70.6341 297.18 70.4805C297.255 70.3268 297.363 70.1914 297.504 70.0742C297.645 69.957 297.815 69.8646 298.016 69.7969C298.219 69.7292 298.445 69.6953 298.695 69.6953C299.049 69.6953 299.353 69.7552 299.605 69.875C299.861 69.9922 300.056 70.1523 300.191 70.3555C300.327 70.556 300.395 70.7826 300.395 71.0352H299.453C299.453 70.9232 299.424 70.819 299.367 70.7227C299.312 70.6237 299.229 70.5443 299.117 70.4844C299.005 70.4219 298.865 70.3906 298.695 70.3906C298.534 70.3906 298.4 70.4167 298.293 70.4688C298.189 70.5182 298.111 70.5833 298.059 70.6641C298.009 70.7448 297.984 70.8333 297.984 70.9297C297.984 71 297.997 71.0638 298.023 71.1211C298.052 71.1758 298.099 71.2266 298.164 71.2734C298.229 71.3177 298.318 71.3594 298.43 71.3984C298.544 71.4375 298.688 71.4753 298.859 71.5117C299.182 71.5794 299.46 71.6667 299.691 71.7734C299.926 71.8776 300.105 72.013 300.23 72.1797C300.355 72.3438 300.418 72.5521 300.418 72.8047C300.418 72.9922 300.378 73.1641 300.297 73.3203C300.219 73.474 300.104 73.6081 299.953 73.7227C299.802 73.8346 299.621 73.9219 299.41 73.9844C299.202 74.0469 298.967 74.0781 298.707 74.0781C298.324 74.0781 298 74.0104 297.734 73.875C297.469 73.737 297.267 73.5612 297.129 73.3477C296.993 73.1315 296.926 72.9076 296.926 72.6758H297.836C297.846 72.8503 297.895 72.9896 297.98 73.0938C298.069 73.1953 298.178 73.2695 298.309 73.3164C298.441 73.3607 298.578 73.3828 298.719 73.3828C298.888 73.3828 299.03 73.3607 299.145 73.3164C299.259 73.2695 299.346 73.207 299.406 73.1289C299.466 73.0482 299.496 72.957 299.496 72.8555Z" fill="#A6A6A6"/>
</g>
<defs>
<filter id="filter0_d_706_261" x="6" y="7" width="308" height="80" filterUnits="userSpaceOnUse" color-interpolation-filters="sRGB">
<feFlood flood-opacity="0" result="BackgroundImageFix"/>
<feColorMatrix in="SourceAlpha" type="matrix" values="0 0 0 0 0 0 0 0 0 0 0 0 0 0 0 0 0 0 127 0" result="hardAlpha"/>
<feOffset dy="1"/>
<feGaussianBlur stdDeviation="1"/>
<feColorMatrix type="matrix" values="0 0 0 0 0 0 0 0 0 0 0 0 0 0 0 0 0 0 0.1 0"/>
<feBlend mode="normal" in2="BackgroundImageFix" result="effect1_dropShadow_706_261"/>
<feBlend mode="normal" in="SourceGraphic" in2="effect1_dropShadow_706_261" result="shape"/>
</filter>
<clipPath id="clip0_706_261">
<rect width="48" height="46" fill="white" transform="translate(249 17)"/>
</clipPath>
</defs>
</svg>
