<svg width="80" height="70" viewBox="0 0 80 70" fill="none" xmlns="http://www.w3.org/2000/svg">
<g filter="url(#filter0_d_706_277)">
<rect x="5" y="5" width="70" height="60" rx="3" fill="#F9F9F9"/>
<rect x="5" y="5" width="70" height="60" rx="3" stroke="#E2E2E2"/>
<path d="M57.8333 29.0275C57.8325 28.7646 57.8264 28.5031 57.8146 28.2429V13.4055L53.7127 17.5074C50.3555 13.3981 45.2484 10.7734 39.5279 10.7734C33.5748 10.7734 28.2861 13.615 24.9429 18.0155L31.6664 24.8098C32.3253 23.5912 33.2614 22.5445 34.39 21.754C35.5638 20.838 37.227 20.089 39.5277 20.089C39.8057 20.089 40.0202 20.1215 40.1778 20.1827C43.0284 20.4077 45.4993 21.9809 46.9542 24.2642L42.1949 29.0234C48.2231 28.9998 55.033 28.9859 57.8328 29.0265" fill="#1C3AA9"/>
<path d="M39.4208 10.6667C39.1579 10.6676 38.8964 10.6736 38.6361 10.6854H23.7988L27.9007 14.7873C23.7913 18.1445 21.1667 23.2516 21.1667 28.9721C21.1667 34.9252 24.0082 40.2139 28.4088 43.5571L35.203 36.8336C33.9844 36.1747 32.9378 35.2386 32.1472 34.11C31.2313 32.9362 30.4823 31.273 30.4823 28.9723C30.4823 28.6944 30.5147 28.4798 30.5759 28.3222C30.8009 25.4716 32.3741 23.0007 34.6574 21.5459L39.4167 26.3051C39.393 20.2769 39.3791 13.467 39.4197 10.6672" fill="#4285F4"/>
<path d="M21.1675 29.079C21.1684 29.342 21.1745 29.6035 21.1863 29.8637V44.701L25.2882 40.5991C28.6454 44.7085 33.7525 47.3331 39.4729 47.3331C45.426 47.3331 50.7148 44.4916 54.058 40.091L47.3344 33.2968C46.6755 34.5154 45.7395 35.5621 44.6109 36.3526C43.437 37.2686 41.7739 38.0175 39.4732 38.0175C39.1952 38.0175 38.9807 37.9851 38.8231 37.9239C35.9725 37.6989 33.5016 36.1257 32.0467 33.8424L36.806 29.0832C30.7778 29.1068 23.9678 29.1207 21.1681 29.0801" fill="#ABABAB"/>
<path d="M15.082 55.7695H13.5625V55.1562H15.082C15.3763 55.1562 15.6146 55.1094 15.7969 55.0156C15.9792 54.9219 16.112 54.7917 16.1953 54.625C16.2812 54.4583 16.3242 54.2682 16.3242 54.0547C16.3242 53.8594 16.2812 53.6758 16.1953 53.5039C16.112 53.332 15.9792 53.194 15.7969 53.0898C15.6146 52.9831 15.3763 52.9297 15.082 52.9297H13.7383V58H12.9844V52.3125H15.082C15.5117 52.3125 15.875 52.3867 16.1719 52.5352C16.4688 52.6836 16.694 52.8893 16.8477 53.1523C17.0013 53.4128 17.0781 53.7109 17.0781 54.0469C17.0781 54.4115 17.0013 54.7227 16.8477 54.9805C16.694 55.2383 16.4688 55.4349 16.1719 55.5703C15.875 55.7031 15.5117 55.7695 15.082 55.7695ZM18.6445 54.4375V58H17.9219V53.7734H18.625L18.6445 54.4375ZM19.9648 53.75L19.9609 54.4219C19.901 54.4089 19.8438 54.401 19.7891 54.3984C19.737 54.3932 19.6771 54.3906 19.6094 54.3906C19.4427 54.3906 19.2956 54.4167 19.168 54.4688C19.0404 54.5208 18.9323 54.5938 18.8438 54.6875C18.7552 54.7812 18.6849 54.8932 18.6328 55.0234C18.5833 55.151 18.5508 55.2917 18.5352 55.4453L18.332 55.5625C18.332 55.3073 18.3568 55.0677 18.4062 54.8438C18.4583 54.6198 18.5378 54.4219 18.6445 54.25C18.7513 54.0755 18.8867 53.9401 19.0508 53.8438C19.2174 53.7448 19.4154 53.6953 19.6445 53.6953C19.6966 53.6953 19.7565 53.7018 19.8242 53.7148C19.8919 53.7253 19.9388 53.737 19.9648 53.75ZM21.418 53.7734V58H20.6914V53.7734H21.418ZM20.6367 52.6523C20.6367 52.5352 20.6719 52.4362 20.7422 52.3555C20.8151 52.2747 20.9219 52.2344 21.0625 52.2344C21.2005 52.2344 21.306 52.2747 21.3789 52.3555C21.4544 52.4362 21.4922 52.5352 21.4922 52.6523C21.4922 52.7643 21.4544 52.8607 21.3789 52.9414C21.306 53.0195 21.2005 53.0586 21.0625 53.0586C20.9219 53.0586 20.8151 53.0195 20.7422 52.9414C20.6719 52.8607 20.6367 52.7643 20.6367 52.6523ZM23.8633 57.3477L25.0195 53.7734H25.7578L24.2383 58H23.7539L23.8633 57.3477ZM22.8984 53.7734L24.0898 57.3672L24.1719 58H23.6875L22.1562 53.7734H22.8984ZM28.8828 57.2773V55.1016C28.8828 54.9349 28.849 54.7904 28.7812 54.668C28.7161 54.543 28.6172 54.4466 28.4844 54.3789C28.3516 54.3112 28.1875 54.2773 27.9922 54.2773C27.8099 54.2773 27.6497 54.3086 27.5117 54.3711C27.3763 54.4336 27.2695 54.5156 27.1914 54.6172C27.1159 54.7188 27.0781 54.8281 27.0781 54.9453H26.3555C26.3555 54.7943 26.3945 54.6445 26.4727 54.4961C26.5508 54.3477 26.6628 54.2135 26.8086 54.0938C26.957 53.9714 27.1341 53.875 27.3398 53.8047C27.5482 53.7318 27.7799 53.6953 28.0352 53.6953C28.3424 53.6953 28.6133 53.7474 28.8477 53.8516C29.0846 53.9557 29.2695 54.1133 29.4023 54.3242C29.5378 54.5326 29.6055 54.7943 29.6055 55.1094V57.0781C29.6055 57.2188 29.6172 57.3685 29.6406 57.5273C29.6667 57.6862 29.7044 57.8229 29.7539 57.9375V58H29C28.9635 57.9167 28.9349 57.806 28.9141 57.668C28.8932 57.5273 28.8828 57.3971 28.8828 57.2773ZM29.0078 55.4375L29.0156 55.9453H28.2852C28.0794 55.9453 27.8958 55.9622 27.7344 55.9961C27.5729 56.0273 27.4375 56.0755 27.3281 56.1406C27.2188 56.2057 27.1354 56.2878 27.0781 56.3867C27.0208 56.4831 26.9922 56.5964 26.9922 56.7266C26.9922 56.8594 27.0221 56.9805 27.082 57.0898C27.1419 57.1992 27.2318 57.2865 27.3516 57.3516C27.474 57.4141 27.6237 57.4453 27.8008 57.4453C28.0221 57.4453 28.2174 57.3984 28.3867 57.3047C28.556 57.2109 28.6901 57.0964 28.7891 56.9609C28.8906 56.8255 28.9453 56.694 28.9531 56.5664L29.2617 56.9141C29.2435 57.0234 29.194 57.1445 29.1133 57.2773C29.0326 57.4102 28.9245 57.5378 28.7891 57.6602C28.6562 57.7799 28.4974 57.8802 28.3125 57.9609C28.1302 58.0391 27.9245 58.0781 27.6953 58.0781C27.4089 58.0781 27.1576 58.0221 26.9414 57.9102C26.7279 57.7982 26.5612 57.6484 26.4414 57.4609C26.3242 57.2708 26.2656 57.0586 26.2656 56.8242C26.2656 56.5977 26.3099 56.3984 26.3984 56.2266C26.487 56.0521 26.6146 55.9076 26.7812 55.793C26.9479 55.6758 27.1484 55.5872 27.3828 55.5273C27.6172 55.4674 27.8789 55.4375 28.168 55.4375H29.0078ZM32.4336 57.4844C32.6055 57.4844 32.7643 57.4492 32.9102 57.3789C33.056 57.3086 33.1758 57.2122 33.2695 57.0898C33.3633 56.9648 33.4167 56.8229 33.4297 56.6641H34.1172C34.1042 56.9141 34.0195 57.1471 33.8633 57.3633C33.7096 57.5768 33.5078 57.75 33.2578 57.8828C33.0078 58.013 32.7331 58.0781 32.4336 58.0781C32.1159 58.0781 31.8385 58.0221 31.6016 57.9102C31.3672 57.7982 31.1719 57.6445 31.0156 57.4492C30.862 57.2539 30.7461 57.0299 30.668 56.7773C30.5924 56.5221 30.5547 56.2526 30.5547 55.9688V55.8047C30.5547 55.5208 30.5924 55.2526 30.668 55C30.7461 54.7448 30.862 54.5195 31.0156 54.3242C31.1719 54.1289 31.3672 53.9753 31.6016 53.8633C31.8385 53.7513 32.1159 53.6953 32.4336 53.6953C32.7643 53.6953 33.0534 53.763 33.3008 53.8984C33.5482 54.0312 33.7422 54.2135 33.8828 54.4453C34.026 54.6745 34.1042 54.9349 34.1172 55.2266H33.4297C33.4167 55.0521 33.3672 54.8945 33.2812 54.7539C33.1979 54.6133 33.0833 54.5013 32.9375 54.418C32.7943 54.332 32.6263 54.2891 32.4336 54.2891C32.2122 54.2891 32.026 54.3333 31.875 54.4219C31.7266 54.5078 31.6081 54.625 31.5195 54.7734C31.4336 54.9193 31.3711 55.082 31.332 55.2617C31.2956 55.4388 31.2773 55.6198 31.2773 55.8047V55.9688C31.2773 56.1536 31.2956 56.3359 31.332 56.5156C31.3685 56.6953 31.4297 56.8581 31.5156 57.0039C31.6042 57.1497 31.7227 57.2669 31.8711 57.3555C32.0221 57.4414 32.2096 57.4844 32.4336 57.4844ZM36.1172 57.5625L37.293 53.7734H38.0664L36.3711 58.6523C36.332 58.7565 36.2799 58.8685 36.2148 58.9883C36.1523 59.1107 36.0716 59.2266 35.9727 59.3359C35.8737 59.4453 35.7539 59.5339 35.6133 59.6016C35.4753 59.6719 35.3099 59.707 35.1172 59.707C35.0599 59.707 34.987 59.6992 34.8984 59.6836C34.8099 59.668 34.7474 59.6549 34.7109 59.6445L34.707 59.0586C34.7279 59.0612 34.7604 59.0638 34.8047 59.0664C34.8516 59.0716 34.8841 59.0742 34.9023 59.0742C35.0664 59.0742 35.2057 59.0521 35.3203 59.0078C35.4349 58.9661 35.5312 58.8945 35.6094 58.793C35.6901 58.694 35.7591 58.5573 35.8164 58.3828L36.1172 57.5625ZM35.2539 53.7734L36.3516 57.0547L36.5391 57.8164L36.0195 58.082L34.4648 53.7734H35.2539ZM42.207 55.2852V55.8789H40.3008V55.2852H42.207ZM46.9531 52.3125V58H46.2109V52.3125H46.9531ZM48.7812 52.3125V52.9297H44.3867V52.3125H48.7812ZM50.8789 58.0781C50.5846 58.0781 50.3177 58.0286 50.0781 57.9297C49.8411 57.8281 49.6367 57.6862 49.4648 57.5039C49.2956 57.3216 49.1654 57.1055 49.0742 56.8555C48.9831 56.6055 48.9375 56.332 48.9375 56.0352V55.8711C48.9375 55.5273 48.9883 55.2214 49.0898 54.9531C49.1914 54.6823 49.3294 54.4531 49.5039 54.2656C49.6784 54.0781 49.8763 53.9362 50.0977 53.8398C50.319 53.7435 50.5482 53.6953 50.7852 53.6953C51.0872 53.6953 51.3477 53.7474 51.5664 53.8516C51.7878 53.9557 51.9688 54.1016 52.1094 54.2891C52.25 54.474 52.3542 54.6927 52.4219 54.9453C52.4896 55.1953 52.5234 55.4688 52.5234 55.7656V56.0898H49.3672V55.5H51.8008V55.4453C51.7904 55.2578 51.7513 55.0755 51.6836 54.8984C51.6185 54.7214 51.5143 54.5755 51.3711 54.4609C51.2279 54.3464 51.0326 54.2891 50.7852 54.2891C50.6211 54.2891 50.4701 54.3242 50.332 54.3945C50.194 54.4622 50.0755 54.5638 49.9766 54.6992C49.8776 54.8346 49.8008 55 49.7461 55.1953C49.6914 55.3906 49.6641 55.6159 49.6641 55.8711V56.0352C49.6641 56.2357 49.6914 56.4245 49.7461 56.6016C49.8034 56.776 49.8854 56.9297 49.9922 57.0625C50.1016 57.1953 50.2331 57.2995 50.3867 57.375C50.543 57.4505 50.7201 57.4883 50.918 57.4883C51.1732 57.4883 51.3893 57.4362 51.5664 57.332C51.7435 57.2279 51.8984 57.0885 52.0312 56.9141L52.4688 57.2617C52.3776 57.3997 52.2617 57.5312 52.1211 57.6562C51.9805 57.7812 51.8073 57.8828 51.6016 57.9609C51.3984 58.0391 51.1576 58.0781 50.8789 58.0781ZM54.0898 54.4375V58H53.3672V53.7734H54.0703L54.0898 54.4375ZM55.4102 53.75L55.4062 54.4219C55.3464 54.4089 55.2891 54.401 55.2344 54.3984C55.1823 54.3932 55.1224 54.3906 55.0547 54.3906C54.888 54.3906 54.7409 54.4167 54.6133 54.4688C54.4857 54.5208 54.3776 54.5938 54.2891 54.6875C54.2005 54.7812 54.1302 54.8932 54.0781 55.0234C54.0286 55.151 53.9961 55.2917 53.9805 55.4453L53.7773 55.5625C53.7773 55.3073 53.8021 55.0677 53.8516 54.8438C53.9036 54.6198 53.9831 54.4219 54.0898 54.25C54.1966 54.0755 54.332 53.9401 54.4961 53.8438C54.6628 53.7448 54.8607 53.6953 55.0898 53.6953C55.1419 53.6953 55.2018 53.7018 55.2695 53.7148C55.3372 53.7253 55.3841 53.737 55.4102 53.75ZM56.7969 54.6133V58H56.0703V53.7734H56.7578L56.7969 54.6133ZM56.6484 55.7266L56.3125 55.7148C56.3151 55.4258 56.3529 55.1589 56.4258 54.9141C56.4987 54.6667 56.6068 54.4518 56.75 54.2695C56.8932 54.0872 57.0716 53.9466 57.2852 53.8477C57.4987 53.7461 57.7461 53.6953 58.0273 53.6953C58.2253 53.6953 58.4076 53.724 58.5742 53.7812C58.7409 53.8359 58.8854 53.9232 59.0078 54.043C59.1302 54.1628 59.2253 54.3164 59.293 54.5039C59.3607 54.6914 59.3945 54.918 59.3945 55.1836V58H58.6719V55.2188C58.6719 54.9974 58.6341 54.8203 58.5586 54.6875C58.4857 54.5547 58.3815 54.4583 58.2461 54.3984C58.1107 54.3359 57.9518 54.3047 57.7695 54.3047C57.556 54.3047 57.3776 54.3424 57.2344 54.418C57.0911 54.4935 56.9766 54.5977 56.8906 54.7305C56.8047 54.8633 56.7422 55.0156 56.7031 55.1875C56.6667 55.3568 56.6484 55.5365 56.6484 55.7266ZM59.3867 55.3281L58.9023 55.4766C58.9049 55.2448 58.9427 55.0221 59.0156 54.8086C59.0911 54.5951 59.1992 54.4049 59.3398 54.2383C59.4831 54.0716 59.6589 53.9401 59.8672 53.8438C60.0755 53.7448 60.3138 53.6953 60.582 53.6953C60.8086 53.6953 61.0091 53.7253 61.1836 53.7852C61.3607 53.8451 61.5091 53.9375 61.6289 54.0625C61.7513 54.1849 61.8438 54.3424 61.9062 54.5352C61.9688 54.7279 62 54.957 62 55.2227V58H61.2734V55.2148C61.2734 54.9779 61.2357 54.7943 61.1602 54.6641C61.0872 54.5312 60.9831 54.4388 60.8477 54.3867C60.7148 54.332 60.556 54.3047 60.3711 54.3047C60.2122 54.3047 60.0716 54.332 59.9492 54.3867C59.8268 54.4414 59.724 54.5169 59.6406 54.6133C59.5573 54.707 59.4935 54.8151 59.4492 54.9375C59.4076 55.0599 59.3867 55.1901 59.3867 55.3281ZM65.5547 56.8789C65.5547 56.7747 65.5312 56.6784 65.4844 56.5898C65.4401 56.4987 65.3477 56.4167 65.207 56.3438C65.069 56.2682 64.8607 56.2031 64.582 56.1484C64.3477 56.099 64.1354 56.0404 63.9453 55.9727C63.7578 55.9049 63.5977 55.8229 63.4648 55.7266C63.3346 55.6302 63.2344 55.5169 63.1641 55.3867C63.0938 55.2565 63.0586 55.1042 63.0586 54.9297C63.0586 54.763 63.0951 54.6055 63.168 54.457C63.2435 54.3086 63.349 54.1771 63.4844 54.0625C63.6224 53.9479 63.7878 53.8581 63.9805 53.793C64.1732 53.7279 64.388 53.6953 64.625 53.6953C64.9635 53.6953 65.2526 53.7552 65.4922 53.875C65.7318 53.9948 65.9154 54.1549 66.043 54.3555C66.1706 54.5534 66.2344 54.7734 66.2344 55.0156H65.5117C65.5117 54.8984 65.4766 54.7852 65.4062 54.6758C65.3385 54.5638 65.2383 54.4714 65.1055 54.3984C64.9753 54.3255 64.8151 54.2891 64.625 54.2891C64.4245 54.2891 64.2617 54.3203 64.1367 54.3828C64.0143 54.4427 63.9245 54.5195 63.8672 54.6133C63.8125 54.707 63.7852 54.806 63.7852 54.9102C63.7852 54.9883 63.7982 55.0586 63.8242 55.1211C63.8529 55.181 63.9023 55.237 63.9727 55.2891C64.043 55.3385 64.1419 55.3854 64.2695 55.4297C64.3971 55.474 64.5599 55.5182 64.7578 55.5625C65.1042 55.6406 65.3893 55.7344 65.6133 55.8438C65.8372 55.9531 66.0039 56.0872 66.1133 56.2461C66.2227 56.4049 66.2773 56.5977 66.2773 56.8242C66.2773 57.0091 66.2383 57.1784 66.1602 57.332C66.0846 57.4857 65.974 57.6185 65.8281 57.7305C65.6849 57.8398 65.513 57.9258 65.3125 57.9883C65.1146 58.0482 64.8919 58.0781 64.6445 58.0781C64.2721 58.0781 63.957 58.0117 63.6992 57.8789C63.4414 57.7461 63.2461 57.5742 63.1133 57.3633C62.9805 57.1523 62.9141 56.9297 62.9141 56.6953H63.6406C63.651 56.8932 63.7083 57.0508 63.8125 57.168C63.9167 57.2826 64.0443 57.3646 64.1953 57.4141C64.3464 57.4609 64.4961 57.4844 64.6445 57.4844C64.8424 57.4844 65.0078 57.4583 65.1406 57.4062C65.276 57.3542 65.3789 57.2826 65.4492 57.1914C65.5195 57.1003 65.5547 56.9961 65.5547 56.8789Z" fill="#555555"/>
</g>
<defs>
<filter id="filter0_d_706_277" x="0.5" y="0.5" width="79" height="69" filterUnits="userSpaceOnUse" color-interpolation-filters="sRGB">
<feFlood flood-opacity="0" result="BackgroundImageFix"/>
<feColorMatrix in="SourceAlpha" type="matrix" values="0 0 0 0 0 0 0 0 0 0 0 0 0 0 0 0 0 0 127 0" result="hardAlpha"/>
<feOffset/>
<feGaussianBlur stdDeviation="2"/>
<feColorMatrix type="matrix" values="0 0 0 0 0 0 0 0 0 0 0 0 0 0 0 0 0 0 0.12 0"/>
<feBlend mode="normal" in2="BackgroundImageFix" result="effect1_dropShadow_706_277"/>
<feBlend mode="normal" in="SourceGraphic" in2="effect1_dropShadow_706_277" result="shape"/>
</filter>
</defs>
</svg>
