<svg width="94" height="34" viewBox="0 0 94 34" fill="none" xmlns="http://www.w3.org/2000/svg">
<rect width="94" height="34" rx="2" fill="#4285F4"/>
<path d="M28.9199 20.1816L31.5381 12.0469H33.4316L29.8633 22H28.585L28.9199 20.1816ZM26.5 12.0469L29.0977 20.1816L29.4531 22H28.168L24.6133 12.0469H26.5ZM41.0605 20.6396V22H35.7764V20.6396H41.0605ZM36.2617 12.0469V22H34.5459V12.0469H36.2617ZM40.3701 16.2031V17.543H35.7764V16.2031H40.3701ZM41.0264 12.0469V13.4141H35.7764V12.0469H41.0264ZM42.4619 12.0469H45.9824C46.7389 12.0469 47.3838 12.1608 47.917 12.3887C48.4502 12.6165 48.8581 12.9538 49.1406 13.4004C49.4277 13.8424 49.5713 14.3893 49.5713 15.041C49.5713 15.5378 49.4801 15.9753 49.2979 16.3535C49.1156 16.7318 48.8581 17.0508 48.5254 17.3105C48.1927 17.5658 47.7962 17.764 47.3359 17.9053L46.8164 18.1582H43.6514L43.6377 16.7979H46.0098C46.4199 16.7979 46.7617 16.7249 47.0352 16.5791C47.3086 16.4333 47.5137 16.235 47.6504 15.9844C47.7917 15.7292 47.8623 15.4421 47.8623 15.123C47.8623 14.7767 47.7939 14.4759 47.6572 14.2207C47.5251 13.9609 47.32 13.7627 47.042 13.626C46.764 13.4847 46.4108 13.4141 45.9824 13.4141H44.1777V22H42.4619V12.0469ZM48.1426 22L45.8047 17.5293L47.6025 17.5225L49.9746 21.9111V22H48.1426ZM53.1123 12.0469V22H51.3965V12.0469H53.1123ZM56.9609 12.0469V22H55.2451V12.0469H56.9609ZM61.0215 16.4014V17.7617H56.5234V16.4014H61.0215ZM61.5889 12.0469V13.4141H56.5234V12.0469H61.5889ZM63.9062 12.0469L66.2168 16.7979L68.5273 12.0469H70.4277L67.0781 18.3359V22H65.3486V18.3359L61.999 12.0469H63.9062Z" fill="white"/>
</svg>
